<svg xmlns="http://www.w3.org/2000/svg" xmlns:xlink="http://www.w3.org/1999/xlink" contentStyleType="text/css" height="358px" preserveAspectRatio="none" style="width:600px;height:358px;background:#FFFFFF;" version="1.1" viewBox="0 0 600 358" width="600px" zoomAndPan="magnify"><defs/><g><line style="stroke:#181818;stroke-width:0.5;stroke-dasharray:5.0,5.0;" x1="23" x2="23" y1="81.4883" y2="277.3516"/><line style="stroke:#181818;stroke-width:0.5;stroke-dasharray:5.0,5.0;" x1="141.7769" x2="141.7769" y1="81.4883" y2="277.3516"/><line style="stroke:#181818;stroke-width:0.5;stroke-dasharray:5.0,5.0;" x1="284.6401" x2="284.6401" y1="81.4883" y2="277.3516"/><line style="stroke:#181818;stroke-width:0.5;stroke-dasharray:5.0,5.0;" x1="462.4282" x2="462.4282" y1="81.4883" y2="277.3516"/><line style="stroke:#181818;stroke-width:0.5;stroke-dasharray:5.0,5.0;" x1="564.519" x2="564.519" y1="81.4883" y2="277.3516"/><text fill="#000000" font-family="sans-serif" font-size="14" lengthAdjust="spacing" textLength="30.3652" x="5" y="78.5352">User</text><ellipse cx="23.1826" cy="13.5" fill="#E2E2F0" rx="8" ry="8" style="stroke:#181818;stroke-width:0.5;"/><path d="M23.1826,21.5 L23.1826,48.5 M10.1826,29.5 L36.1826,29.5 M23.1826,48.5 L10.1826,63.5 M23.1826,48.5 L36.1826,63.5 " fill="none" style="stroke:#181818;stroke-width:0.5;"/><text fill="#000000" font-family="sans-serif" font-size="14" lengthAdjust="spacing" textLength="30.3652" x="5" y="289.8867">User</text><ellipse cx="23.1826" cy="301.3398" fill="#E2E2F0" rx="8" ry="8" style="stroke:#181818;stroke-width:0.5;"/><path d="M23.1826,309.3398 L23.1826,336.3398 M10.1826,317.3398 L36.1826,317.3398 M23.1826,336.3398 L10.1826,351.3398 M23.1826,336.3398 L36.1826,351.3398 " fill="none" style="stroke:#181818;stroke-width:0.5;"/><rect fill="#E2E2F0" height="30.4883" rx="2.5" ry="2.5" style="stroke:#181818;stroke-width:0.5;" width="55.8633" x="114.7769" y="50"/><text fill="#000000" font-family="sans-serif" font-size="14" lengthAdjust="spacing" textLength="41.8633" x="121.7769" y="70.5352">Parser</text><rect fill="#E2E2F0" height="30.4883" rx="2.5" ry="2.5" style="stroke:#181818;stroke-width:0.5;" width="55.8633" x="114.7769" y="276.3516"/><text fill="#000000" font-family="sans-serif" font-size="14" lengthAdjust="spacing" textLength="41.8633" x="121.7769" y="296.8867">Parser</text><rect fill="#E2E2F0" height="30.4883" rx="2.5" ry="2.5" style="stroke:#181818;stroke-width:0.5;" width="209.7881" x="180.6401" y="50"/><text fill="#000000" font-family="sans-serif" font-size="14" lengthAdjust="spacing" textLength="195.7881" x="187.6401" y="70.5352">ViewAchievementsCommand</text><rect fill="#E2E2F0" height="30.4883" rx="2.5" ry="2.5" style="stroke:#181818;stroke-width:0.5;" width="209.7881" x="180.6401" y="276.3516"/><text fill="#000000" font-family="sans-serif" font-size="14" lengthAdjust="spacing" textLength="195.7881" x="187.6401" y="296.8867">ViewAchievementsCommand</text><rect fill="#E2E2F0" height="30.4883" rx="2.5" ry="2.5" style="stroke:#181818;stroke-width:0.5;" width="125.0908" x="400.4282" y="50"/><text fill="#000000" font-family="sans-serif" font-size="14" lengthAdjust="spacing" textLength="111.0908" x="407.4282" y="70.5352">AchievementList</text><rect fill="#E2E2F0" height="30.4883" rx="2.5" ry="2.5" style="stroke:#181818;stroke-width:0.5;" width="125.0908" x="400.4282" y="276.3516"/><text fill="#000000" font-family="sans-serif" font-size="14" lengthAdjust="spacing" textLength="111.0908" x="407.4282" y="296.8867">AchievementList</text><rect fill="#E2E2F0" height="30.4883" rx="2.5" ry="2.5" style="stroke:#181818;stroke-width:0.5;" width="58.9668" x="535.519" y="50"/><text fill="#000000" font-family="sans-serif" font-size="14" lengthAdjust="spacing" textLength="44.9668" x="542.519" y="70.5352">Printer</text><rect fill="#E2E2F0" height="30.4883" rx="2.5" ry="2.5" style="stroke:#181818;stroke-width:0.5;" width="58.9668" x="535.519" y="276.3516"/><text fill="#000000" font-family="sans-serif" font-size="14" lengthAdjust="spacing" textLength="44.9668" x="542.519" y="296.8867">Printer</text><polygon fill="#181818" points="130.7085,108.7988,140.7085,112.7988,130.7085,116.7988,134.7085,112.7988" style="stroke:#181818;stroke-width:1.0;"/><line style="stroke:#181818;stroke-width:1.0;" x1="23.1826" x2="136.7085" y1="112.7988" y2="112.7988"/><text fill="#000000" font-family="sans-serif" font-size="13" lengthAdjust="spacing" textLength="95.5259" x="30.1826" y="108.0566">"achievements"</text><polygon fill="#181818" points="273.5342,138.1094,283.5342,142.1094,273.5342,146.1094,277.5342,142.1094" style="stroke:#181818;stroke-width:1.0;"/><line style="stroke:#181818;stroke-width:1.0;" x1="142.7085" x2="279.5342" y1="142.1094" y2="142.1094"/><text fill="#000000" font-family="sans-serif" font-size="13" lengthAdjust="spacing" textLength="45.1318" x="149.7085" y="137.3672">creates</text><polygon fill="#181818" points="450.9736,167.4199,460.9736,171.4199,450.9736,175.4199,454.9736,171.4199" style="stroke:#181818;stroke-width:1.0;"/><line style="stroke:#181818;stroke-width:1.0;" x1="285.5342" x2="456.9736" y1="171.4199" y2="171.4199"/><text fill="#000000" font-family="sans-serif" font-size="13" lengthAdjust="spacing" textLength="116.27" x="292.5342" y="166.6777">getAchievements()</text><polygon fill="#181818" points="296.5342,196.7305,286.5342,200.7305,296.5342,204.7305,292.5342,200.7305" style="stroke:#181818;stroke-width:1.0;"/><line style="stroke:#181818;stroke-width:1.0;stroke-dasharray:2.0,2.0;" x1="290.5342" x2="461.9736" y1="200.7305" y2="200.7305"/><text fill="#000000" font-family="sans-serif" font-size="13" lengthAdjust="spacing" textLength="117.3301" x="302.5342" y="195.9883">achievements data</text><polygon fill="#181818" points="553.0024,226.041,563.0024,230.041,553.0024,234.041,557.0024,230.041" style="stroke:#181818;stroke-width:1.0;"/><line style="stroke:#181818;stroke-width:1.0;" x1="285.5342" x2="559.0024" y1="230.041" y2="230.041"/><text fill="#000000" font-family="sans-serif" font-size="13" lengthAdjust="spacing" textLength="212.0625" x="292.5342" y="225.2988">printAchievements(achievements)</text><polygon fill="#181818" points="34.1826,255.3516,24.1826,259.3516,34.1826,263.3516,30.1826,259.3516" style="stroke:#181818;stroke-width:1.0;"/><line style="stroke:#181818;stroke-width:1.0;stroke-dasharray:2.0,2.0;" x1="28.1826" x2="564.0024" y1="259.3516" y2="259.3516"/><text fill="#000000" font-family="sans-serif" font-size="13" lengthAdjust="spacing" textLength="201.0684" x="40.1826" y="254.6094">formatted achievements display</text><!--SRC=[VP0n3i8m34NtdCBgH8TU80CIOcLWARkL6h14qiYngBWzf7H88xLRv3p_PnkTZW9z8Z4HHTbnnA1mHQbBDwRfv9vCR_8KD9r7xp4CAwRult3ITQHmq5-coJBeZel3GeD5QcF-vGni62qu8LHAPWF8lTKa5Xwa9NfeJOL0jwSiPuG15VVaoweMOdwij6LEQnPmLlVpCUwZU5IbeJ9oYY_yc2y0]--></g></svg>