<svg xmlns="http://www.w3.org/2000/svg" xmlns:xlink="http://www.w3.org/1999/xlink" contentStyleType="text/css" height="645px" preserveAspectRatio="none" style="width:689px;height:645px;background:#FFFFFF;" version="1.1" viewBox="0 0 689 645" width="689px" zoomAndPan="magnify"><title>High-Level Architecture</title><defs/><g><text fill="#000000" font-family="sans-serif" font-size="14" font-weight="bold" lengthAdjust="spacing" textLength="157.9238" x="258.5381" y="25.1074">High-Level Architecture</text><!--entity Main--><g id="elem_Main"><rect fill="#E3F2FD" height="38.6211" rx="2.5" ry="2.5" style="stroke:#181818;stroke-width:0.5;" width="50.3447" x="168" y="46.6211"/><text fill="#000000" font-family="sans-serif" font-size="14" lengthAdjust="spacing" textLength="30.3447" x="178" y="71.7285">Main</text></g><!--entity Common--><g id="elem_Common"><rect fill="#E8F5E9" height="38.6211" rx="2.5" ry="2.5" style="stroke:#181818;stroke-width:0.5;" width="76.793" x="253.5" y="46.6211"/><text fill="#000000" font-family="sans-serif" font-size="14" lengthAdjust="spacing" textLength="56.793" x="263.5" y="71.7285">Common</text></g><!--entity Model--><g id="elem_Model"><rect fill="#FFF3E0" height="38.6211" rx="2.5" ry="2.5" style="stroke:#181818;stroke-width:0.5;" width="58.1309" x="415" y="600.6211"/><text fill="#000000" font-family="sans-serif" font-size="14" lengthAdjust="spacing" textLength="38.1309" x="425" y="625.7285">Model</text></g><!--entity Storage--><g id="elem_Storage"><rect fill="#E0F7FA" height="38.6211" rx="2.5" ry="2.5" style="stroke:#181818;stroke-width:0.5;" width="69.0342" x="257.5" y="382.6211"/><text fill="#000000" font-family="sans-serif" font-size="14" lengthAdjust="spacing" textLength="49.0342" x="267.5" y="407.7285">Storage</text></g><!--entity UserInput--><g id="elem_UserInput"><rect fill="#F3E5F5" height="38.6211" rx="2.5" ry="2.5" style="stroke:#181818;stroke-width:0.5;" width="84.5859" x="372.5" y="164.6211"/><text fill="#000000" font-family="sans-serif" font-size="14" lengthAdjust="spacing" textLength="64.5859" x="382.5" y="189.7285">User Input</text></g><!--entity Logic--><g id="elem_Logic"><rect fill="#E8EAF6" height="38.6211" rx="2.5" ry="2.5" style="stroke:#181818;stroke-width:0.5;" width="53.4688" x="417.5" y="282.6211"/><text fill="#000000" font-family="sans-serif" font-size="14" lengthAdjust="spacing" textLength="33.4688" x="427.5" y="307.7285">Logic</text></g><!--entity UserOutput--><g id="elem_UserOutput"><rect fill="#FCE4EC" height="38.6211" rx="2.5" ry="2.5" style="stroke:#181818;stroke-width:0.5;" width="95.4756" x="396.5" y="500.6211"/><text fill="#000000" font-family="sans-serif" font-size="14" lengthAdjust="spacing" textLength="75.4756" x="406.5" y="525.7285">User Output</text></g><!--link Main to UserInput--><g id="link_Main_UserInput"><path d="M218.37,78.3111 C224.14,80.7811 230.26,83.3411 236,85.6211 C272.06,99.9611 283.57,97.7211 318,115.6211 C344.76,129.5311 368.0209,146.0543 387.0209,160.7243 " fill="none" id="Main-to-UserInput" style="stroke:#181818;stroke-width:1.0;stroke-dasharray:7.0,7.0;"/><polygon fill="#181818" points="391.77,164.3911,387.0908,155.7247,387.8124,161.3354,382.2017,162.0569,391.77,164.3911" style="stroke:#181818;stroke-width:1.0;"/><text fill="#000000" font-family="sans-serif" font-size="13" lengthAdjust="spacing" textLength="42.6309" x="349" y="130.6494">creates</text></g><!--link Main to UserOutput--><g id="link_Main_UserOutput"><path d="M167.76,81.8511 C138.43,101.0811 94,137.7111 94,183.1211 C94,183.1211 94,183.1211 94,403.1211 C94,540.3611 254.84,463.6311 387,500.6211 C390.01,501.4611 387.343,500.637 390.443,501.567 " fill="none" id="Main-to-UserOutput" style="stroke:#181818;stroke-width:1.0;stroke-dasharray:7.0,7.0;"/><polygon fill="#181818" points="396.19,503.2911,388.719,496.8737,391.4009,501.8544,386.4202,504.5363,396.19,503.2911" style="stroke:#181818;stroke-width:1.0;"/><text fill="#000000" font-family="sans-serif" font-size="13" lengthAdjust="spacing" textLength="143.0635" x="95" y="307.6494">sends error messages to</text></g><!--link Main to Model--><g id="link_Main_Model"><path d="M167.78,70.7711 C116.74,79.7411 6,107.8611 6,183.1211 C6,183.1211 6,183.1211 6,521.1211 C6,605.1811 311.1009,617.0574 408.9209,618.7474 " fill="none" id="Main-to-Model" style="stroke:#181818;stroke-width:1.0;"/><polygon fill="#181818" points="414.92,618.8511,405.9904,614.6962,409.9207,618.7647,405.8522,622.695,414.92,618.8511" style="stroke:#181818;stroke-width:1.0;"/></g><!--link Main to Storage--><g id="link_Main_Storage"><path d="M198.61,86.0311 C216.03,144.8211 267.404,318.1588 284.754,376.6588 " fill="none" id="Main-to-Storage" style="stroke:#181818;stroke-width:1.0;"/><polygon fill="#181818" points="286.46,382.4111,287.7358,372.6452,285.0383,377.6175,280.0661,374.9199,286.46,382.4111" style="stroke:#181818;stroke-width:1.0;"/></g><!--link UserInput to Logic--><g id="link_UserInput_Logic"><path d="M419.66,203.7611 C425.07,225.4011 432.4967,255.0798 437.8967,276.7098 " fill="none" id="UserInput-to-Logic" style="stroke:#181818;stroke-width:1.0;stroke-dasharray:7.0,7.0;"/><polygon fill="#181818" points="439.35,282.5311,441.0509,272.8302,438.1389,277.68,433.2891,274.768,439.35,282.5311" style="stroke:#181818;stroke-width:1.0;"/><text fill="#000000" font-family="sans-serif" font-size="13" lengthAdjust="spacing" textLength="42.6309" x="432" y="248.6494">creates</text></g><!--link UserInput to Storage--><g id="link_UserInput_Storage"><path d="M404.3,203.9111 C380.98,244.8611 328.7788,336.5371 305.5588,377.3171 " fill="none" id="UserInput-to-Storage" style="stroke:#181818;stroke-width:1.0;"/><polygon fill="#181818" points="302.59,382.5311,310.5193,376.6893,305.064,378.1861,303.5673,372.7308,302.59,382.5311" style="stroke:#181818;stroke-width:1.0;"/></g><!--link UserInput to Model--><g id="link_UserInput_Model"><path d="M457.6,185.0811 C532.98,187.4811 682,204.4611 682,301.1211 C682,301.1211 682,301.1211 682,521.1211 C682,610.4911 542.74,620.0405 479.18,619.9405 " fill="none" id="UserInput-to-Model" style="stroke:#181818;stroke-width:1.0;"/><polygon fill="#181818" points="473.18,619.9311,482.1737,623.9452,478.18,619.939,482.1863,615.9453,473.18,619.9311" style="stroke:#181818;stroke-width:1.0;"/></g><!--link Logic to UserOutput--><g id="link_Logic_UserOutput"><path d="M444,321.9111 C444,362.8611 444,453.7511 444,494.5311 " fill="none" id="Logic-to-UserOutput" style="stroke:#181818;stroke-width:1.0;stroke-dasharray:7.0,7.0;"/><polygon fill="#181818" points="444,500.5311,448,491.5311,444,495.5311,440,491.5311,444,500.5311" style="stroke:#181818;stroke-width:1.0;"/><text fill="#000000" font-family="sans-serif" font-size="13" lengthAdjust="spacing" textLength="112.7344" x="445" y="407.6494">sends responses to</text></g><!--link Logic to Model--><g id="link_Logic_Model"><path d="M470.69,311.8111 C500.1,322.9811 545.88,345.5011 566,382.6211 C574.26,397.8611 569.87,404.7211 566,421.6211 C549.05,495.6811 494.9267,563.285 465.4467,596.145 " fill="none" id="Logic-to-Model" style="stroke:#181818;stroke-width:1.0;"/><polygon fill="#181818" points="461.44,600.6111,470.4275,596.5831,464.7789,596.8893,464.4727,591.2408,461.44,600.6111" style="stroke:#181818;stroke-width:1.0;"/></g><!--link Logic to Storage--><g id="link_Logic_Storage"><path d="M422.22,321.7011 C410.39,331.4111 395.29,343.2111 381,352.6211 C363.66,364.0411 348.7222,372.4708 331.9122,381.2208 " fill="none" id="Logic-to-Storage" style="stroke:#181818;stroke-width:1.0;"/><polygon fill="#181818" points="326.59,383.9911,336.4201,383.3837,331.0251,381.6825,332.7264,376.2875,326.59,383.9911" style="stroke:#181818;stroke-width:1.0;"/></g><!--link Storage to Model--><g id="link_Storage_Model"><path d="M266.91,421.6311 C233.62,448.4711 182.22,499.3911 211,539.6211 C258.25,605.6711 357.7133,617.2733 408.9533,618.9633 " fill="none" id="Storage-to-Model" style="stroke:#181818;stroke-width:1.0;stroke-dasharray:7.0,7.0;"/><polygon fill="#181818" points="414.95,619.1611,406.0867,614.8666,409.9527,618.9963,405.823,622.8622,414.95,619.1611" style="stroke:#181818;stroke-width:1.0;"/><text fill="#000000" font-family="sans-serif" font-size="13" lengthAdjust="spacing" textLength="166.918" x="212" y="525.6494">saves from or loads data into</text></g><!--link Storage to UserOutput--><g id="link_Storage_UserOutput"><path d="M278.73,421.6511 C270.08,436.2111 262.21,456.3411 273,470.6211 C276.85,475.7111 341.3784,492.9995 390.6284,505.6395 " fill="none" id="Storage-to-UserOutput" style="stroke:#181818;stroke-width:1.0;stroke-dasharray:7.0,7.0;"/><polygon fill="#181818" points="396.44,507.1311,388.7169,501.0193,391.597,505.8881,386.7282,508.7682,396.44,507.1311" style="stroke:#181818;stroke-width:1.0;"/><text fill="#000000" font-family="sans-serif" font-size="13" lengthAdjust="spacing" textLength="143.0635" x="274" y="466.6494">sends error messages to</text></g><!--link UserOutput to Model--><g id="link_UserOutput_Model"><path d="M444,540.0211 C444,557.4811 444,577.2811 444,594.6111 " fill="none" id="UserOutput-to-Model" style="stroke:#181818;stroke-width:1.0;stroke-dasharray:7.0,7.0;"/><polygon fill="#181818" points="444,600.6111,448,591.6111,444,595.6111,440,591.6111,444,600.6111" style="stroke:#181818;stroke-width:1.0;"/></g><!--SRC=[ZP5DQiCm48NtEiMGBB9o27NTDba4Z2lHGaeNfGSGzjGHs5AGv9o_OykDP4gXkndflM_-Db2P_c8qQk-OnTfBtNO8gpUfz0gaWp60DS_5dNXE1MJhJP24a4HFek3x1SKqs0NC6C5Q297pNIhvyCRA5YVH71Df9nv5cSe-7LfurPV1JyendJ92vhmGHQezcLRLasoAniPuAHv-uTu7d_92Ii2At_EAiGqDfZLvbD6EiMaHs-qngNs0sgBqw9QVC-W03dNZ0Aqr5dfqZcPpu4rGPzanR2Mcy_oCnH8ZCqmHYyNVrBHy3MGMh7yqPj7HvLteAIYZDUQthdxEC-B2FOaah-J_igO76h8pahYDz1AK9cZg-DTcMAAwbM7CAqzNUr7jEJlXbGgNjZuhJxSPB7u3]--></g></svg>