<svg xmlns="http://www.w3.org/2000/svg" xmlns:xlink="http://www.w3.org/1999/xlink" contentStyleType="text/css" data-diagram-type="DESCRIPTION" height="491px" preserveAspectRatio="none" style="width:355px;height:491px;background:#FFFFFF;" version="1.1" viewBox="0 0 355 491" width="355px" zoomAndPan="magnify"><title>Coinflip Architecture</title><defs/><g><g class="title" data-source-line="21"><text fill="#000000" font-family="sans-serif" font-size="14" font-weight="bold" lengthAdjust="spacing" textLength="163.5908" x="88.7152" y="22.9951">Coinflip Architecture</text></g><!--entity Main--><g class="entity" data-entity="Main" data-source-line="2" data-uid="ent0002" id="entity_Main"><rect fill="#E3F2FD" height="36.2969" rx="2.5" ry="2.5" style="stroke:#181818;stroke-width:0.5;" width="53.4209" x="41.82" y="44.2969"/><text fill="#000000" font-family="sans-serif" font-size="14" lengthAdjust="spacing" textLength="33.4209" x="51.82" y="67.292">Main</text></g><!--entity Common--><g class="entity" data-entity="Common" data-source-line="3" data-uid="ent0003" id="entity_Common"><rect fill="#E8F5E9" height="36.2969" rx="2.5" ry="2.5" style="stroke:#181818;stroke-width:0.5;" width="83.0547" x="7" y="141.5869"/><text fill="#000000" font-family="sans-serif" font-size="14" lengthAdjust="spacing" textLength="63.0547" x="17" y="164.582">Common</text></g><!--entity Model--><g class="entity" data-entity="Model" data-source-line="4" data-uid="ent0004" id="entity_Model"><rect fill="#FFF3E0" height="36.2969" rx="2.5" ry="2.5" style="stroke:#181818;stroke-width:0.5;" width="62.0342" x="79.51" y="449.4769"/><text fill="#000000" font-family="sans-serif" font-size="14" lengthAdjust="spacing" textLength="42.0342" x="89.51" y="472.472">Model</text></g><!--entity Storage--><g class="entity" data-entity="Storage" data-source-line="5" data-uid="ent0005" id="entity_Storage"><rect fill="#E0F7FA" height="36.2969" rx="2.5" ry="2.5" style="stroke:#181818;stroke-width:0.5;" width="74.7764" x="134.14" y="336.1869"/><text fill="#000000" font-family="sans-serif" font-size="14" lengthAdjust="spacing" textLength="54.7764" x="144.14" y="359.182">Storage</text></g><!--entity UserInput--><g class="entity" data-entity="UserInput" data-source-line="6" data-uid="ent0006" id="entity_UserInput"><rect fill="#F3E5F5" height="36.2969" rx="2.5" ry="2.5" style="stroke:#181818;stroke-width:0.5;" width="92.6113" x="125.22" y="141.5869"/><text fill="#000000" font-family="sans-serif" font-size="14" lengthAdjust="spacing" textLength="72.6113" x="135.22" y="164.582">User Input</text></g><!--entity Logic--><g class="entity" data-entity="Logic" data-source-line="7" data-uid="ent0007" id="entity_Logic"><rect fill="#E8EAF6" height="36.2969" rx="2.5" ry="2.5" style="stroke:#181818;stroke-width:0.5;" width="56.8389" x="143.11" y="238.8869"/><text fill="#000000" font-family="sans-serif" font-size="14" lengthAdjust="spacing" textLength="36.8389" x="153.11" y="261.882">Logic</text></g><!--entity UserOutput--><g class="entity" data-entity="UserOutput" data-source-line="8" data-uid="ent0008" id="entity_UserOutput"><rect fill="#FCE4EC" height="36.2969" rx="2.5" ry="2.5" style="stroke:#181818;stroke-width:0.5;" width="104.9912" x="244.03" y="336.1869"/><text fill="#000000" font-family="sans-serif" font-size="14" lengthAdjust="spacing" textLength="84.9912" x="254.03" y="359.182">User Output</text></g><!--link Main to UserInput--><g class="link" data-entity-1="Main" data-entity-2="UserInput" data-source-line="11" data-uid="lnk9" id="link_Main_UserInput"><path d="M87.42,80.9169 C106,98.1169 129.8044,120.1437 148.3544,137.2937" fill="none" id="Main-to-UserInput" style="stroke:#181818;stroke-width:1;"/><polygon fill="#181818" points="152.76,141.3669,148.867,132.3201,149.0886,137.9726,143.4361,138.1943,152.76,141.3669" style="stroke:#181818;stroke-width:1;"/></g><!--link UserInput to Logic--><g class="link" data-entity-1="UserInput" data-entity-2="Logic" data-source-line="12" data-uid="lnk10" id="link_UserInput_Logic"><path d="M171.53,178.2169 C171.53,195.4069 171.53,215.5069 171.53,232.6669" fill="none" id="UserInput-to-Logic" style="stroke:#181818;stroke-width:1;"/><polygon fill="#181818" points="171.53,238.6669,175.53,229.6669,171.53,233.6669,167.53,229.6669,171.53,238.6669" style="stroke:#181818;stroke-width:1;"/></g><!--link Logic to UserOutput--><g class="link" data-entity-1="Logic" data-entity-2="UserOutput" data-source-line="13" data-uid="lnk11" id="link_Logic_UserOutput"><path d="M194.45,275.5169 C217.01,292.7069 246.4684,315.1693 268.9784,332.3293" fill="none" id="Logic-to-UserOutput" style="stroke:#181818;stroke-width:1;"/><polygon fill="#181818" points="273.75,335.9669,269.0176,327.3295,269.7737,332.9356,264.1676,333.6916,273.75,335.9669" style="stroke:#181818;stroke-width:1;"/></g><!--link Logic to Model--><g class="link" data-entity-1="Logic" data-entity-2="Model" data-source-line="14" data-uid="lnk12" id="link_Logic_Model"><path d="M154.66,275.6169 C141.62,290.4569 124.47,312.9469 116.53,336.1869 C103.32,374.7969 105.1156,417.6274 107.7056,443.2074" fill="none" id="Logic-to-Model" style="stroke:#181818;stroke-width:1;"/><polygon fill="#181818" points="108.31,449.1769,111.383,439.8197,107.8063,444.2023,103.4237,440.6256,108.31,449.1769" style="stroke:#181818;stroke-width:1;"/></g><!--link Logic to Storage--><g class="link" data-entity-1="Logic" data-entity-2="Storage" data-source-line="15" data-uid="lnk13" id="link_Logic_Storage"><path d="M171.53,275.5169 C171.53,292.7069 171.53,312.8069 171.53,329.9669" fill="none" id="Logic-to-Storage" style="stroke:#181818;stroke-width:1;"/><polygon fill="#181818" points="171.53,335.9669,175.53,326.9669,171.53,330.9669,167.53,326.9669,171.53,335.9669" style="stroke:#181818;stroke-width:1;"/></g><!--link Main to Common--><g class="link" data-entity-1="Main" data-entity-2="Common" data-source-line="16" data-uid="lnk14" id="link_Main_Common"><path d="M64.86,80.9169 C61.25,98.1169 57.0026,118.3449 53.4026,135.4949" fill="none" id="Main-to-Common" style="stroke:#181818;stroke-width:1;"/><polygon fill="#181818" points="52.17,141.3669,57.9336,133.3806,53.1972,136.4735,50.1042,131.7371,52.17,141.3669" style="stroke:#181818;stroke-width:1;"/></g><!--link Storage to Model--><g class="link" data-entity-1="Storage" data-entity-2="Model" data-source-line="19" data-uid="lnk15" id="link_Storage_Model"><path d="M162,372.7169 C150.6,393.5069 134.5228,422.8348 123.0728,443.7348" fill="none" id="Storage-to-Model" style="stroke:#181818;stroke-width:1;stroke-dasharray:7.0,7.0;"/><polygon fill="#181818" points="120.19,448.9969,128.0223,443.0256,122.5923,444.6118,121.0062,439.1819,120.19,448.9969" style="stroke:#181818;stroke-width:1;"/><text fill="#000000" font-family="sans-serif" font-size="13" lengthAdjust="spacing" textLength="67.9707" x="146.53" y="415.5438">loads data</text></g><!--SRC=[PP3BQiCm44Nt-eeXMQHT98IwxcjHC8u62YrTb7w0i5H7e8oC9Fz_zN2mIdTtn9apcjb1Ro-J9KN1CwU686Wq2ZOVGjC6X8SKOCiRlCDJ3SIsYor8YH5wmfO__x5OgKpHf0HRH6puiKQ-WdLYL1bQSZGTyH6x6llsoi4RJNF8P2fp5PKDRx6jsNSxwY5ZEQMFyGuV_ka-vr3xIXc5FR_dFMExk1XHxD6MFCjtsEzVrz5i_KHwpxDOcNZbYh9wp6UewcNZrLvkcOQVH11Wh92QHhYHmf-L1AD9tRBhdGw7nGWlcVGWOnDZGOUuP6yr_HWzGUU6imvnaTcfNm00]--></g></svg>