<svg xmlns="http://www.w3.org/2000/svg" xmlns:xlink="http://www.w3.org/1999/xlink" contentStyleType="text/css" height="356px" preserveAspectRatio="none" style="width:916px;height:356px;background:#FFFFFF;" version="1.1" viewBox="0 0 916 356" width="916px" zoomAndPan="magnify"><defs/><g><rect fill="#FFFFFF" height="138.1641" style="stroke:#181818;stroke-width:1.0;" width="10" x="316.1631" y="116.9121"/><rect fill="#FFFFFF" height="75.582" style="stroke:#181818;stroke-width:1.0;" width="10" x="581.4355" y="148.2031"/><line style="stroke:#181818;stroke-width:0.5;stroke-dasharray:5.0,5.0;" x1="22" x2="22" y1="83.6211" y2="273.0762"/><line style="stroke:#181818;stroke-width:0.5;stroke-dasharray:5.0,5.0;" x1="320.6011" x2="320.6011" y1="83.6211" y2="273.0762"/><line style="stroke:#181818;stroke-width:0.5;stroke-dasharray:5.0,5.0;" x1="585.6807" x2="585.6807" y1="83.6211" y2="273.0762"/><line style="stroke:#181818;stroke-width:0.5;stroke-dasharray:5.0,5.0;" x1="880.3242" x2="880.3242" y1="83.6211" y2="273.0762"/><text fill="#000000" font-family="sans-serif" font-size="14" lengthAdjust="spacing" textLength="29.5586" x="5" y="80.1074">User</text><ellipse cx="22.7793" cy="13.5" fill="#E2E2F0" rx="8" ry="8" style="stroke:#181818;stroke-width:0.5;"/><path d="M22.7793,21.5 L22.7793,48.5 M9.7793,29.5 L35.7793,29.5 M22.7793,48.5 L9.7793,63.5 M22.7793,48.5 L35.7793,63.5 " fill="none" style="stroke:#181818;stroke-width:0.5;"/><text fill="#000000" font-family="sans-serif" font-size="14" lengthAdjust="spacing" textLength="29.5586" x="5" y="287.1836">User</text><ellipse cx="22.7793" cy="299.1973" fill="#E2E2F0" rx="8" ry="8" style="stroke:#181818;stroke-width:0.5;"/><path d="M22.7793,307.1973 L22.7793,334.1973 M9.7793,315.1973 L35.7793,315.1973 M22.7793,334.1973 L9.7793,349.1973 M22.7793,334.1973 L35.7793,349.1973 " fill="none" style="stroke:#181818;stroke-width:0.5;"/><rect fill="#E2E2F0" height="32.6211" rx="2.5" ry="2.5" style="stroke:#181818;stroke-width:0.5;" width="59.124" x="291.6011" y="50"/><text fill="#000000" font-family="sans-serif" font-size="14" lengthAdjust="spacing" textLength="45.124" x="298.6011" y="72.1074">:Parser</text><rect fill="#E2E2F0" height="32.6211" rx="2.5" ry="2.5" style="stroke:#181818;stroke-width:0.5;" width="59.124" x="291.6011" y="272.0762"/><text fill="#000000" font-family="sans-serif" font-size="14" lengthAdjust="spacing" textLength="45.124" x="298.6011" y="294.1836">:Parser</text><rect fill="#E2E2F0" height="32.6211" rx="2.5" ry="2.5" style="stroke:#181818;stroke-width:0.5;" width="131.5098" x="520.6807" y="50"/><text fill="#000000" font-family="sans-serif" font-size="14" lengthAdjust="spacing" textLength="117.5098" x="527.6807" y="72.1074">:ChangeCommand</text><rect fill="#E2E2F0" height="32.6211" rx="2.5" ry="2.5" style="stroke:#181818;stroke-width:0.5;" width="131.5098" x="520.6807" y="272.0762"/><text fill="#000000" font-family="sans-serif" font-size="14" lengthAdjust="spacing" textLength="117.5098" x="527.6807" y="294.1836">:ChangeCommand</text><rect fill="#E2E2F0" height="32.6211" rx="2.5" ry="2.5" style="stroke:#181818;stroke-width:0.5;" width="59.124" x="851.3242" y="50"/><text fill="#000000" font-family="sans-serif" font-size="14" lengthAdjust="spacing" textLength="45.124" x="858.3242" y="72.1074">:Printer</text><rect fill="#E2E2F0" height="32.6211" rx="2.5" ry="2.5" style="stroke:#181818;stroke-width:0.5;" width="59.124" x="851.3242" y="272.0762"/><text fill="#000000" font-family="sans-serif" font-size="14" lengthAdjust="spacing" textLength="45.124" x="858.3242" y="294.1836">:Printer</text><rect fill="#FFFFFF" height="138.1641" style="stroke:#181818;stroke-width:1.0;" width="10" x="316.1631" y="116.9121"/><rect fill="#FFFFFF" height="75.582" style="stroke:#181818;stroke-width:1.0;" width="10" x="581.4355" y="148.2031"/><polygon fill="#181818" points="304.1631,112.9121,314.1631,116.9121,304.1631,120.9121,308.1631,116.9121" style="stroke:#181818;stroke-width:1.0;"/><line style="stroke:#181818;stroke-width:1.0;" x1="22.7793" x2="310.1631" y1="116.9121" y2="116.9121"/><text fill="#000000" font-family="sans-serif" font-size="13" lengthAdjust="spacing" textLength="274.3838" x="29.7793" y="111.6494">input command "change NEW_BET_AMOUNT"</text><polygon fill="#181818" points="569.4355,144.2031,579.4355,148.2031,569.4355,152.2031,573.4355,148.2031" style="stroke:#181818;stroke-width:1.0;"/><line style="stroke:#181818;stroke-width:1.0;" x1="326.1631" x2="575.4355" y1="148.2031" y2="148.2031"/><text fill="#000000" font-family="sans-serif" font-size="13" lengthAdjust="spacing" textLength="236.2725" x="333.1631" y="142.9404">new ChangeCommand(words, userData)</text><line style="stroke:#181818;stroke-width:1.0;" x1="591.4355" x2="633.4355" y1="179.4941" y2="179.4941"/><line style="stroke:#181818;stroke-width:1.0;" x1="633.4355" x2="633.4355" y1="179.4941" y2="192.4941"/><line style="stroke:#181818;stroke-width:1.0;" x1="592.4355" x2="633.4355" y1="192.4941" y2="192.4941"/><polygon fill="#181818" points="602.4355,188.4941,592.4355,192.4941,602.4355,196.4941,598.4355,192.4941" style="stroke:#181818;stroke-width:1.0;"/><text fill="#000000" font-family="sans-serif" font-size="13" lengthAdjust="spacing" textLength="260.4507" x="598.4355" y="174.2314">userData.betAmount = NEW_BET_AMOUNT</text><polygon fill="#181818" points="868.8862,219.7852,878.8862,223.7852,868.8862,227.7852,872.8862,223.7852" style="stroke:#181818;stroke-width:1.0;"/><line style="stroke:#181818;stroke-width:1.0;" x1="586.4355" x2="874.8862" y1="223.7852" y2="223.7852"/><text fill="#000000" font-family="sans-serif" font-size="13" lengthAdjust="spacing" textLength="224.6626" x="593.4355" y="218.5225">printBetAmount(NEW_BET_AMOUNT)</text><line style="stroke:#181818;stroke-width:1.0;" x1="23.7793" x2="33.7793" y1="255.0762" y2="251.0762"/><line style="stroke:#181818;stroke-width:1.0;" x1="23.7793" x2="33.7793" y1="255.0762" y2="259.0762"/><line style="stroke:#181818;stroke-width:1.0;stroke-dasharray:2.0,2.0;" x1="22.7793" x2="320.1631" y1="255.0762" y2="255.0762"/><text fill="#000000" font-family="sans-serif" font-size="13" lengthAdjust="spacing" textLength="113.4517" x="39.7793" y="249.8135">command executed</text><!--SRC=[TL6x3i8m3Dpz5LOca80FY4GbNYEF0SI8J6f1XgPLwWAVJsbJ83ocEFRT-IuX8xd7NSaUgMnEACYBDROW9xWX7qPAjxMAvhCpkHFFyYmZbxQmg1MZDzuwUSgr5mNGR1ycOPb6wufAq0HHPHf1N2tsX-bYUvWirxlLLW4PiHSI3ZI0uBKMYYneT7oDMxrhxjDoW5MDdvDG_oKMuG3YVD_IdSBeo3B9ygeEEVvm-aCaHDTOF8ffH-t5n3wa_CzNbtMO9CsdwUTpyOrD9Po-arlq7G00]--></g></svg>