<svg xmlns="http://www.w3.org/2000/svg" xmlns:xlink="http://www.w3.org/1999/xlink" contentStyleType="text/css" height="705px" preserveAspectRatio="none" style="width:493px;height:705px;background:#FFFFFF;" version="1.1" viewBox="0 0 493 705" width="493px" zoomAndPan="magnify"><defs/><g><rect fill="#FFFFFF" height="487.0371" style="stroke:#181818;stroke-width:1.0;" width="10" x="111.3135" y="116.9121"/><rect fill="#FFFFFF" height="426.7461" style="stroke:#181818;stroke-width:1.0;" width="10" x="116.3135" y="156.2031"/><rect fill="#FFFFFF" height="25" style="stroke:#181818;stroke-width:1.0;" width="10" x="121.3135" y="200.4941"/><rect fill="#FFFFFF" height="25" style="stroke:#181818;stroke-width:1.0;" width="10" x="121.3135" y="271.7852"/><rect fill="#FFFFFF" height="25" style="stroke:#181818;stroke-width:1.0;" width="10" x="121.3135" y="343.0762"/><rect fill="#FFFFFF" height="25" style="stroke:#181818;stroke-width:1.0;" width="10" x="121.3135" y="414.3672"/><rect fill="#FFFFFF" height="25" style="stroke:#181818;stroke-width:1.0;" width="10" x="121.3135" y="485.6582"/><rect fill="#FFFFFF" height="14" style="stroke:#181818;stroke-width:1.0;" width="10" x="453.0249" y="548.9492"/><line style="stroke:#181818;stroke-width:0.5;stroke-dasharray:5.0,5.0;" x1="22" x2="22" y1="83.6211" y2="621.9492"/><line style="stroke:#181818;stroke-width:0.5;stroke-dasharray:5.0,5.0;" x1="115.5586" x2="115.5586" y1="83.6211" y2="621.9492"/><line style="stroke:#181818;stroke-width:0.5;stroke-dasharray:5.0,5.0;" x1="457.4629" x2="457.4629" y1="83.6211" y2="621.9492"/><text fill="#000000" font-family="sans-serif" font-size="14" lengthAdjust="spacing" textLength="29.5586" x="5" y="80.1074">User</text><ellipse cx="22.7793" cy="13.5" fill="#E2E2F0" rx="8" ry="8" style="stroke:#181818;stroke-width:0.5;"/><path d="M22.7793,21.5 L22.7793,48.5 M9.7793,29.5 L35.7793,29.5 M22.7793,48.5 L9.7793,63.5 M22.7793,48.5 L35.7793,63.5 " fill="none" style="stroke:#181818;stroke-width:0.5;"/><text fill="#000000" font-family="sans-serif" font-size="14" lengthAdjust="spacing" textLength="29.5586" x="5" y="636.0566">User</text><ellipse cx="22.7793" cy="648.0703" fill="#E2E2F0" rx="8" ry="8" style="stroke:#181818;stroke-width:0.5;"/><path d="M22.7793,656.0703 L22.7793,683.0703 M9.7793,664.0703 L35.7793,664.0703 M22.7793,683.0703 L9.7793,698.0703 M22.7793,683.0703 L35.7793,698.0703 " fill="none" style="stroke:#181818;stroke-width:0.5;"/><rect fill="#E2E2F0" height="32.6211" rx="2.5" ry="2.5" style="stroke:#181818;stroke-width:0.5;" width="131.5098" x="50.5586" y="50"/><text fill="#000000" font-family="sans-serif" font-size="14" lengthAdjust="spacing" textLength="117.5098" x="57.5586" y="72.1074">:ChangeCommand</text><rect fill="#E2E2F0" height="32.6211" rx="2.5" ry="2.5" style="stroke:#181818;stroke-width:0.5;" width="131.5098" x="50.5586" y="620.9492"/><text fill="#000000" font-family="sans-serif" font-size="14" lengthAdjust="spacing" textLength="117.5098" x="57.5586" y="643.0566">:ChangeCommand</text><rect fill="#E2E2F0" height="32.6211" rx="2.5" ry="2.5" style="stroke:#181818;stroke-width:0.5;" width="59.124" x="428.4629" y="50"/><text fill="#000000" font-family="sans-serif" font-size="14" lengthAdjust="spacing" textLength="45.124" x="435.4629" y="72.1074">:Printer</text><rect fill="#E2E2F0" height="32.6211" rx="2.5" ry="2.5" style="stroke:#181818;stroke-width:0.5;" width="59.124" x="428.4629" y="620.9492"/><text fill="#000000" font-family="sans-serif" font-size="14" lengthAdjust="spacing" textLength="45.124" x="435.4629" y="643.0566">:Printer</text><rect fill="#FFFFFF" height="487.0371" style="stroke:#181818;stroke-width:1.0;" width="10" x="111.3135" y="116.9121"/><rect fill="#FFFFFF" height="426.7461" style="stroke:#181818;stroke-width:1.0;" width="10" x="116.3135" y="156.2031"/><rect fill="#FFFFFF" height="25" style="stroke:#181818;stroke-width:1.0;" width="10" x="121.3135" y="200.4941"/><rect fill="#FFFFFF" height="25" style="stroke:#181818;stroke-width:1.0;" width="10" x="121.3135" y="271.7852"/><rect fill="#FFFFFF" height="25" style="stroke:#181818;stroke-width:1.0;" width="10" x="121.3135" y="343.0762"/><rect fill="#FFFFFF" height="25" style="stroke:#181818;stroke-width:1.0;" width="10" x="121.3135" y="414.3672"/><rect fill="#FFFFFF" height="25" style="stroke:#181818;stroke-width:1.0;" width="10" x="121.3135" y="485.6582"/><rect fill="#FFFFFF" height="14" style="stroke:#181818;stroke-width:1.0;" width="10" x="453.0249" y="548.9492"/><polygon fill="#181818" points="99.3135,112.9121,109.3135,116.9121,99.3135,120.9121,103.3135,116.9121" style="stroke:#181818;stroke-width:1.0;"/><line style="stroke:#181818;stroke-width:1.0;" x1="22.7793" x2="105.3135" y1="116.9121" y2="116.9121"/><text fill="#000000" font-family="sans-serif" font-size="13" lengthAdjust="spacing" textLength="54.1899" x="29.7793" y="111.6494">execute()</text><line style="stroke:#181818;stroke-width:1.0;" x1="121.3135" x2="168.3135" y1="143.2031" y2="143.2031"/><line style="stroke:#181818;stroke-width:1.0;" x1="168.3135" x2="168.3135" y1="143.2031" y2="156.2031"/><line style="stroke:#181818;stroke-width:1.0;" x1="127.3135" x2="168.3135" y1="156.2031" y2="156.2031"/><polygon fill="#181818" points="137.3135,152.2031,127.3135,156.2031,137.3135,160.2031,133.3135,156.2031" style="stroke:#181818;stroke-width:1.0;"/><text fill="#000000" font-family="sans-serif" font-size="13" lengthAdjust="spacing" textLength="51.3081" x="133.3135" y="137.9404">change()</text><line style="stroke:#181818;stroke-width:1.0;" x1="126.3135" x2="173.3135" y1="187.4941" y2="187.4941"/><line style="stroke:#181818;stroke-width:1.0;" x1="173.3135" x2="173.3135" y1="187.4941" y2="200.4941"/><line style="stroke:#181818;stroke-width:1.0;" x1="132.3135" x2="173.3135" y1="200.4941" y2="200.4941"/><polygon fill="#181818" points="142.3135,196.4941,132.3135,200.4941,142.3135,204.4941,138.3135,200.4941" style="stroke:#181818;stroke-width:1.0;"/><text fill="#000000" font-family="sans-serif" font-size="13" lengthAdjust="spacing" textLength="174.8145" x="138.3135" y="182.2314">checkNumberOfWords(words)</text><line style="stroke:#181818;stroke-width:1.0;stroke-dasharray:2.0,2.0;" x1="131.3135" x2="173.3135" y1="224.4941" y2="224.4941"/><line style="stroke:#181818;stroke-width:1.0;stroke-dasharray:2.0,2.0;" x1="173.3135" x2="173.3135" y1="224.4941" y2="237.4941"/><line style="stroke:#181818;stroke-width:1.0;stroke-dasharray:2.0,2.0;" x1="126.3135" x2="173.3135" y1="237.4941" y2="237.4941"/><polygon fill="#181818" points="136.3135,233.4941,126.3135,237.4941,136.3135,241.4941,132.3135,237.4941" style="stroke:#181818;stroke-width:1.0;"/><line style="stroke:#181818;stroke-width:1.0;" x1="126.3135" x2="173.3135" y1="258.7852" y2="258.7852"/><line style="stroke:#181818;stroke-width:1.0;" x1="173.3135" x2="173.3135" y1="258.7852" y2="271.7852"/><line style="stroke:#181818;stroke-width:1.0;" x1="132.3135" x2="173.3135" y1="271.7852" y2="271.7852"/><polygon fill="#181818" points="142.3135,267.7852,132.3135,271.7852,142.3135,275.7852,138.3135,271.7852" style="stroke:#181818;stroke-width:1.0;"/><text fill="#000000" font-family="sans-serif" font-size="13" lengthAdjust="spacing" textLength="150.2617" x="138.3135" y="253.5225">checkNumerical(words[1])</text><line style="stroke:#181818;stroke-width:1.0;stroke-dasharray:2.0,2.0;" x1="131.3135" x2="173.3135" y1="295.7852" y2="295.7852"/><line style="stroke:#181818;stroke-width:1.0;stroke-dasharray:2.0,2.0;" x1="173.3135" x2="173.3135" y1="295.7852" y2="308.7852"/><line style="stroke:#181818;stroke-width:1.0;stroke-dasharray:2.0,2.0;" x1="126.3135" x2="173.3135" y1="308.7852" y2="308.7852"/><polygon fill="#181818" points="136.3135,304.7852,126.3135,308.7852,136.3135,312.7852,132.3135,308.7852" style="stroke:#181818;stroke-width:1.0;"/><line style="stroke:#181818;stroke-width:1.0;" x1="126.3135" x2="173.3135" y1="330.0762" y2="330.0762"/><line style="stroke:#181818;stroke-width:1.0;" x1="173.3135" x2="173.3135" y1="330.0762" y2="343.0762"/><line style="stroke:#181818;stroke-width:1.0;" x1="132.3135" x2="173.3135" y1="343.0762" y2="343.0762"/><polygon fill="#181818" points="142.3135,339.0762,132.3135,343.0762,142.3135,347.0762,138.3135,343.0762" style="stroke:#181818;stroke-width:1.0;"/><text fill="#000000" font-family="sans-serif" font-size="13" lengthAdjust="spacing" textLength="171.9707" x="138.3135" y="324.8135">checkCanBeInteger(words[1])</text><line style="stroke:#181818;stroke-width:1.0;stroke-dasharray:2.0,2.0;" x1="131.3135" x2="173.3135" y1="367.0762" y2="367.0762"/><line style="stroke:#181818;stroke-width:1.0;stroke-dasharray:2.0,2.0;" x1="173.3135" x2="173.3135" y1="367.0762" y2="380.0762"/><line style="stroke:#181818;stroke-width:1.0;stroke-dasharray:2.0,2.0;" x1="126.3135" x2="173.3135" y1="380.0762" y2="380.0762"/><polygon fill="#181818" points="136.3135,376.0762,126.3135,380.0762,136.3135,384.0762,132.3135,380.0762" style="stroke:#181818;stroke-width:1.0;"/><line style="stroke:#181818;stroke-width:1.0;" x1="126.3135" x2="173.3135" y1="401.3672" y2="401.3672"/><line style="stroke:#181818;stroke-width:1.0;" x1="173.3135" x2="173.3135" y1="401.3672" y2="414.3672"/><line style="stroke:#181818;stroke-width:1.0;" x1="132.3135" x2="173.3135" y1="414.3672" y2="414.3672"/><polygon fill="#181818" points="142.3135,410.3672,132.3135,414.3672,142.3135,418.3672,138.3135,414.3672" style="stroke:#181818;stroke-width:1.0;"/><text fill="#000000" font-family="sans-serif" font-size="13" lengthAdjust="spacing" textLength="180.6479" x="138.3135" y="396.1045">checkNonNegative(betAmount)</text><line style="stroke:#181818;stroke-width:1.0;stroke-dasharray:2.0,2.0;" x1="131.3135" x2="173.3135" y1="438.3672" y2="438.3672"/><line style="stroke:#181818;stroke-width:1.0;stroke-dasharray:2.0,2.0;" x1="173.3135" x2="173.3135" y1="438.3672" y2="451.3672"/><line style="stroke:#181818;stroke-width:1.0;stroke-dasharray:2.0,2.0;" x1="126.3135" x2="173.3135" y1="451.3672" y2="451.3672"/><polygon fill="#181818" points="136.3135,447.3672,126.3135,451.3672,136.3135,455.3672,132.3135,451.3672" style="stroke:#181818;stroke-width:1.0;"/><line style="stroke:#181818;stroke-width:1.0;" x1="126.3135" x2="173.3135" y1="472.6582" y2="472.6582"/><line style="stroke:#181818;stroke-width:1.0;" x1="173.3135" x2="173.3135" y1="472.6582" y2="485.6582"/><line style="stroke:#181818;stroke-width:1.0;" x1="132.3135" x2="173.3135" y1="485.6582" y2="485.6582"/><polygon fill="#181818" points="142.3135,481.6582,132.3135,485.6582,142.3135,489.6582,138.3135,485.6582" style="stroke:#181818;stroke-width:1.0;"/><text fill="#000000" font-family="sans-serif" font-size="13" lengthAdjust="spacing" textLength="297.7114" x="138.3135" y="467.3955">checkWithinBalance(betAmount, userData.balance)</text><line style="stroke:#181818;stroke-width:1.0;stroke-dasharray:2.0,2.0;" x1="131.3135" x2="173.3135" y1="509.6582" y2="509.6582"/><line style="stroke:#181818;stroke-width:1.0;stroke-dasharray:2.0,2.0;" x1="173.3135" x2="173.3135" y1="509.6582" y2="522.6582"/><line style="stroke:#181818;stroke-width:1.0;stroke-dasharray:2.0,2.0;" x1="126.3135" x2="173.3135" y1="522.6582" y2="522.6582"/><polygon fill="#181818" points="136.3135,518.6582,126.3135,522.6582,136.3135,526.6582,132.3135,522.6582" style="stroke:#181818;stroke-width:1.0;"/><polygon fill="#181818" points="441.0249,544.9492,451.0249,548.9492,441.0249,552.9492,445.0249,548.9492" style="stroke:#181818;stroke-width:1.0;"/><line style="stroke:#181818;stroke-width:1.0;" x1="126.3135" x2="447.0249" y1="548.9492" y2="548.9492"/><text fill="#000000" font-family="sans-serif" font-size="13" lengthAdjust="spacing" textLength="98.2617" x="133.3135" y="543.6865">printBetAmount()</text><polygon fill="#181818" points="137.3135,558.9492,127.3135,562.9492,137.3135,566.9492,133.3135,562.9492" style="stroke:#181818;stroke-width:1.0;"/><line style="stroke:#181818;stroke-width:1.0;stroke-dasharray:2.0,2.0;" x1="131.3135" x2="457.0249" y1="562.9492" y2="562.9492"/><line style="stroke:#181818;stroke-width:1.0;stroke-dasharray:2.0,2.0;" x1="126.3135" x2="168.3135" y1="581.9492" y2="581.9492"/><line style="stroke:#181818;stroke-width:1.0;stroke-dasharray:2.0,2.0;" x1="168.3135" x2="168.3135" y1="581.9492" y2="594.9492"/><line style="stroke:#181818;stroke-width:1.0;stroke-dasharray:2.0,2.0;" x1="121.3135" x2="168.3135" y1="594.9492" y2="594.9492"/><polygon fill="#181818" points="131.3135,590.9492,121.3135,594.9492,131.3135,598.9492,127.3135,594.9492" style="stroke:#181818;stroke-width:1.0;"/><polygon fill="#181818" points="33.7793,599.9492,23.7793,603.9492,33.7793,607.9492,29.7793,603.9492" style="stroke:#181818;stroke-width:1.0;"/><line style="stroke:#181818;stroke-width:1.0;stroke-dasharray:2.0,2.0;" x1="27.7793" x2="115.3135" y1="603.9492" y2="603.9492"/><!--SRC=[nPGzQyCm48Rt-nN2amDjeQk7GEmkNTmk9KF8S9QlZaXyClAvpS-FFo5AI5jem8kaarwzzo3fX5giKnyrEOLrtqE5Jems5RAeP8TSK6BB4Zdl547aJGMU-jqPbi4fYCOW0EZT7vU-MQJeIBeH2XU0MimN2laA0F3JNrleFhpjyFj-qlkqAJDoRvzhw_8w_ExQlnfUEa9E_oGXPpGU1ehDytOca0GvfjVs-WfoSxEabbCgi3MWC2DPbRPXcObbRMHdECO3iZwZUL1D-yHVKF0f6zRkptSDE1POfAfk44ymvzKmIc0gp1_pJU9x7M6xiVzFRkbF]--></g></svg>