<svg xmlns="http://www.w3.org/2000/svg" xmlns:xlink="http://www.w3.org/1999/xlink" contentStyleType="text/css" height="791px" preserveAspectRatio="none" style="width:935px;height:791px;background:#FFFFFF;" version="1.1" viewBox="0 0 935 791" width="935px" zoomAndPan="magnify"><defs/><g><rect fill="#FFFFFF" height="649.8223" style="stroke:#181818;stroke-width:1.0;" width="10" x="126.3135" y="116.9121"/><rect fill="#FFFFFF" height="589.5313" style="stroke:#181818;stroke-width:1.0;" width="10" x="131.3135" y="156.2031"/><rect fill="#FFFFFF" height="187.7852" style="stroke:#181818;stroke-width:1.0;" width="10" x="136.3135" y="200.4941"/><rect fill="#FFFFFF" height="25" style="stroke:#181818;stroke-width:1.0;" width="10" x="136.3135" y="434.5703"/><rect fill="#FFFFFF" height="25" style="stroke:#181818;stroke-width:1.0;" width="10" x="136.3135" y="505.8613"/><rect fill="#FFFFFF" height="25" style="stroke:#181818;stroke-width:1.0;" width="10" x="136.3135" y="577.1523"/><rect fill="#FFFFFF" height="25" style="stroke:#181818;stroke-width:1.0;" width="10" x="136.3135" y="648.4434"/><rect fill="#FFFFFF" height="14" style="stroke:#181818;stroke-width:1.0;" width="10" x="468.0249" y="711.7344"/><rect fill="#FFFFFF" height="16.3301" style="stroke:#181818;stroke-width:1.0;" width="10" x="617.0366" y="273.0762"/><rect fill="none" height="76.9121" style="stroke:#000000;stroke-width:1.5;" width="685.0674" x="10" y="220.4941"/><line style="stroke:#181818;stroke-width:0.5;stroke-dasharray:5.0,5.0;" x1="37" x2="37" y1="83.6211" y2="784.7344"/><line style="stroke:#181818;stroke-width:0.5;stroke-dasharray:5.0,5.0;" x1="130.5586" x2="130.5586" y1="83.6211" y2="784.7344"/><line style="stroke:#181818;stroke-width:0.5;stroke-dasharray:5.0,5.0;" x1="472.4629" x2="472.4629" y1="83.6211" y2="784.7344"/><line style="stroke:#181818;stroke-width:0.5;stroke-dasharray:5.0,5.0;" x1="622.0059" x2="622.0059" y1="271.5957" y2="784.7344"/><text fill="#000000" font-family="sans-serif" font-size="14" lengthAdjust="spacing" textLength="29.5586" x="20" y="80.1074">User</text><ellipse cx="37.7793" cy="13.5" fill="#E2E2F0" rx="8" ry="8" style="stroke:#181818;stroke-width:0.5;"/><path d="M37.7793,21.5 L37.7793,48.5 M24.7793,29.5 L50.7793,29.5 M37.7793,48.5 L24.7793,63.5 M37.7793,48.5 L50.7793,63.5 " fill="none" style="stroke:#181818;stroke-width:0.5;"/><rect fill="#E2E2F0" height="32.6211" rx="2.5" ry="2.5" style="stroke:#181818;stroke-width:0.5;" width="131.5098" x="65.5586" y="50"/><text fill="#000000" font-family="sans-serif" font-size="14" lengthAdjust="spacing" textLength="117.5098" x="72.5586" y="72.1074">:ChangeCommand</text><rect fill="#E2E2F0" height="32.6211" rx="2.5" ry="2.5" style="stroke:#181818;stroke-width:0.5;" width="59.124" x="443.4629" y="50"/><text fill="#000000" font-family="sans-serif" font-size="14" lengthAdjust="spacing" textLength="45.124" x="450.4629" y="72.1074">:Printer</text><rect fill="#FFFFFF" height="649.8223" style="stroke:#181818;stroke-width:1.0;" width="10" x="126.3135" y="116.9121"/><rect fill="#FFFFFF" height="589.5313" style="stroke:#181818;stroke-width:1.0;" width="10" x="131.3135" y="156.2031"/><rect fill="#FFFFFF" height="187.7852" style="stroke:#181818;stroke-width:1.0;" width="10" x="136.3135" y="200.4941"/><rect fill="#FFFFFF" height="25" style="stroke:#181818;stroke-width:1.0;" width="10" x="136.3135" y="434.5703"/><rect fill="#FFFFFF" height="25" style="stroke:#181818;stroke-width:1.0;" width="10" x="136.3135" y="505.8613"/><rect fill="#FFFFFF" height="25" style="stroke:#181818;stroke-width:1.0;" width="10" x="136.3135" y="577.1523"/><rect fill="#FFFFFF" height="25" style="stroke:#181818;stroke-width:1.0;" width="10" x="136.3135" y="648.4434"/><rect fill="#FFFFFF" height="14" style="stroke:#181818;stroke-width:1.0;" width="10" x="468.0249" y="711.7344"/><rect fill="#FFFFFF" height="16.3301" style="stroke:#181818;stroke-width:1.0;" width="10" x="617.0366" y="273.0762"/><polygon fill="#181818" points="114.3135,112.9121,124.3135,116.9121,114.3135,120.9121,118.3135,116.9121" style="stroke:#181818;stroke-width:1.0;"/><line style="stroke:#181818;stroke-width:1.0;" x1="37.7793" x2="120.3135" y1="116.9121" y2="116.9121"/><text fill="#000000" font-family="sans-serif" font-size="13" lengthAdjust="spacing" textLength="54.1899" x="44.7793" y="111.6494">execute()</text><line style="stroke:#181818;stroke-width:1.0;" x1="136.3135" x2="183.3135" y1="143.2031" y2="143.2031"/><line style="stroke:#181818;stroke-width:1.0;" x1="183.3135" x2="183.3135" y1="143.2031" y2="156.2031"/><line style="stroke:#181818;stroke-width:1.0;" x1="142.3135" x2="183.3135" y1="156.2031" y2="156.2031"/><polygon fill="#181818" points="152.3135,152.2031,142.3135,156.2031,152.3135,160.2031,148.3135,156.2031" style="stroke:#181818;stroke-width:1.0;"/><text fill="#000000" font-family="sans-serif" font-size="13" lengthAdjust="spacing" textLength="51.3081" x="148.3135" y="137.9404">change()</text><line style="stroke:#181818;stroke-width:1.0;" x1="141.3135" x2="188.3135" y1="187.4941" y2="187.4941"/><line style="stroke:#181818;stroke-width:1.0;" x1="188.3135" x2="188.3135" y1="187.4941" y2="200.4941"/><line style="stroke:#181818;stroke-width:1.0;" x1="147.3135" x2="188.3135" y1="200.4941" y2="200.4941"/><polygon fill="#181818" points="157.3135,196.4941,147.3135,200.4941,157.3135,204.4941,153.3135,200.4941" style="stroke:#181818;stroke-width:1.0;"/><text fill="#000000" font-family="sans-serif" font-size="13" lengthAdjust="spacing" textLength="174.8145" x="153.3135" y="182.2314">checkNumberOfWords(words)</text><path d="M10,220.4941 L75.2109,220.4941 L75.2109,229.7852 L65.2109,239.7852 L10,239.7852 L10,220.4941 " fill="#EEEEEE" style="stroke:#000000;stroke-width:1.5;"/><rect fill="none" height="76.9121" style="stroke:#000000;stroke-width:1.5;" width="685.0674" x="10" y="220.4941"/><text fill="#000000" font-family="sans-serif" font-size="13" font-weight="bold" lengthAdjust="spacing" textLength="20.2109" x="25" y="235.5225">opt</text><text fill="#000000" font-family="sans-serif" font-size="11" font-weight="bold" lengthAdjust="spacing" textLength="98.0869" x="90.2109" y="234.3643">[words.length != 2]</text><polygon fill="#181818" points="547.0059,259.0762,557.0059,263.0762,547.0059,267.0762,551.0059,263.0762" style="stroke:#181818;stroke-width:1.0;"/><line style="stroke:#181818;stroke-width:1.0;" x1="146.3135" x2="553.0059" y1="263.0762" y2="263.0762"/><text fill="#000000" font-family="sans-serif" font-size="13" lengthAdjust="spacing" textLength="388.6924" x="153.3135" y="257.8135">CoinflipException(CoinflipException.CHANGE_INVALID_FORMAT)</text><rect fill="#E2E2F0" height="32.6211" rx="2.5" ry="2.5" style="stroke:#181818;stroke-width:0.5;" width="126.0615" x="559.0059" y="239.7852"/><text fill="#000000" font-family="sans-serif" font-size="14" lengthAdjust="spacing" textLength="112.0615" x="566.0059" y="261.8926">:CoinflipException</text><polygon fill="#181818" points="48.7793,285.4063,38.7793,289.4063,48.7793,293.4063,44.7793,289.4063" style="stroke:#181818;stroke-width:1.0;"/><line style="stroke:#181818;stroke-width:1.0;stroke-dasharray:2.0,2.0;" x1="42.7793" x2="621.0366" y1="289.4063" y2="289.4063"/><path d="M627,309.4063 L627,370.4063 L928,370.4063 L928,319.4063 L918,309.4063 L627,309.4063 " fill="#FEFFDD" style="stroke:#181818;stroke-width:0.5;"/><path d="M918,309.4063 L918,319.4063 L928,319.4063 L918,309.4063 " fill="#FEFFDD" style="stroke:#181818;stroke-width:0.5;"/><text fill="#000000" font-family="sans-serif" font-size="13" lengthAdjust="spacing" textLength="280.687" x="633" y="328.4346">The other functions' exception throws, such as in</text><text fill="#000000" font-family="sans-serif" font-size="13" lengthAdjust="spacing" textLength="218.207" x="633" y="345.7256">checkNumerical(words[1]), have been</text><text fill="#000000" font-family="sans-serif" font-size="13" lengthAdjust="spacing" textLength="232.686" x="633" y="363.0166">intentionally omitted to prevent cluttering</text><line style="stroke:#181818;stroke-width:1.0;stroke-dasharray:2.0,2.0;" x1="146.3135" x2="188.3135" y1="387.2793" y2="387.2793"/><line style="stroke:#181818;stroke-width:1.0;stroke-dasharray:2.0,2.0;" x1="188.3135" x2="188.3135" y1="387.2793" y2="400.2793"/><line style="stroke:#181818;stroke-width:1.0;stroke-dasharray:2.0,2.0;" x1="141.3135" x2="188.3135" y1="400.2793" y2="400.2793"/><polygon fill="#181818" points="151.3135,396.2793,141.3135,400.2793,151.3135,404.2793,147.3135,400.2793" style="stroke:#181818;stroke-width:1.0;"/><line style="stroke:#181818;stroke-width:1.0;" x1="141.3135" x2="188.3135" y1="421.5703" y2="421.5703"/><line style="stroke:#181818;stroke-width:1.0;" x1="188.3135" x2="188.3135" y1="421.5703" y2="434.5703"/><line style="stroke:#181818;stroke-width:1.0;" x1="147.3135" x2="188.3135" y1="434.5703" y2="434.5703"/><polygon fill="#181818" points="157.3135,430.5703,147.3135,434.5703,157.3135,438.5703,153.3135,434.5703" style="stroke:#181818;stroke-width:1.0;"/><text fill="#000000" font-family="sans-serif" font-size="13" lengthAdjust="spacing" textLength="150.2617" x="153.3135" y="416.3076">checkNumerical(words[1])</text><line style="stroke:#181818;stroke-width:1.0;stroke-dasharray:2.0,2.0;" x1="146.3135" x2="188.3135" y1="458.5703" y2="458.5703"/><line style="stroke:#181818;stroke-width:1.0;stroke-dasharray:2.0,2.0;" x1="188.3135" x2="188.3135" y1="458.5703" y2="471.5703"/><line style="stroke:#181818;stroke-width:1.0;stroke-dasharray:2.0,2.0;" x1="141.3135" x2="188.3135" y1="471.5703" y2="471.5703"/><polygon fill="#181818" points="151.3135,467.5703,141.3135,471.5703,151.3135,475.5703,147.3135,471.5703" style="stroke:#181818;stroke-width:1.0;"/><line style="stroke:#181818;stroke-width:1.0;" x1="141.3135" x2="188.3135" y1="492.8613" y2="492.8613"/><line style="stroke:#181818;stroke-width:1.0;" x1="188.3135" x2="188.3135" y1="492.8613" y2="505.8613"/><line style="stroke:#181818;stroke-width:1.0;" x1="147.3135" x2="188.3135" y1="505.8613" y2="505.8613"/><polygon fill="#181818" points="157.3135,501.8613,147.3135,505.8613,157.3135,509.8613,153.3135,505.8613" style="stroke:#181818;stroke-width:1.0;"/><text fill="#000000" font-family="sans-serif" font-size="13" lengthAdjust="spacing" textLength="171.9707" x="153.3135" y="487.5986">checkCanBeInteger(words[1])</text><line style="stroke:#181818;stroke-width:1.0;stroke-dasharray:2.0,2.0;" x1="146.3135" x2="188.3135" y1="529.8613" y2="529.8613"/><line style="stroke:#181818;stroke-width:1.0;stroke-dasharray:2.0,2.0;" x1="188.3135" x2="188.3135" y1="529.8613" y2="542.8613"/><line style="stroke:#181818;stroke-width:1.0;stroke-dasharray:2.0,2.0;" x1="141.3135" x2="188.3135" y1="542.8613" y2="542.8613"/><polygon fill="#181818" points="151.3135,538.8613,141.3135,542.8613,151.3135,546.8613,147.3135,542.8613" style="stroke:#181818;stroke-width:1.0;"/><line style="stroke:#181818;stroke-width:1.0;" x1="141.3135" x2="188.3135" y1="564.1523" y2="564.1523"/><line style="stroke:#181818;stroke-width:1.0;" x1="188.3135" x2="188.3135" y1="564.1523" y2="577.1523"/><line style="stroke:#181818;stroke-width:1.0;" x1="147.3135" x2="188.3135" y1="577.1523" y2="577.1523"/><polygon fill="#181818" points="157.3135,573.1523,147.3135,577.1523,157.3135,581.1523,153.3135,577.1523" style="stroke:#181818;stroke-width:1.0;"/><text fill="#000000" font-family="sans-serif" font-size="13" lengthAdjust="spacing" textLength="180.6479" x="153.3135" y="558.8896">checkNonNegative(betAmount)</text><line style="stroke:#181818;stroke-width:1.0;stroke-dasharray:2.0,2.0;" x1="146.3135" x2="188.3135" y1="601.1523" y2="601.1523"/><line style="stroke:#181818;stroke-width:1.0;stroke-dasharray:2.0,2.0;" x1="188.3135" x2="188.3135" y1="601.1523" y2="614.1523"/><line style="stroke:#181818;stroke-width:1.0;stroke-dasharray:2.0,2.0;" x1="141.3135" x2="188.3135" y1="614.1523" y2="614.1523"/><polygon fill="#181818" points="151.3135,610.1523,141.3135,614.1523,151.3135,618.1523,147.3135,614.1523" style="stroke:#181818;stroke-width:1.0;"/><line style="stroke:#181818;stroke-width:1.0;" x1="141.3135" x2="188.3135" y1="635.4434" y2="635.4434"/><line style="stroke:#181818;stroke-width:1.0;" x1="188.3135" x2="188.3135" y1="635.4434" y2="648.4434"/><line style="stroke:#181818;stroke-width:1.0;" x1="147.3135" x2="188.3135" y1="648.4434" y2="648.4434"/><polygon fill="#181818" points="157.3135,644.4434,147.3135,648.4434,157.3135,652.4434,153.3135,648.4434" style="stroke:#181818;stroke-width:1.0;"/><text fill="#000000" font-family="sans-serif" font-size="13" lengthAdjust="spacing" textLength="297.7114" x="153.3135" y="630.1807">checkWithinBalance(betAmount, userData.balance)</text><line style="stroke:#181818;stroke-width:1.0;stroke-dasharray:2.0,2.0;" x1="146.3135" x2="188.3135" y1="672.4434" y2="672.4434"/><line style="stroke:#181818;stroke-width:1.0;stroke-dasharray:2.0,2.0;" x1="188.3135" x2="188.3135" y1="672.4434" y2="685.4434"/><line style="stroke:#181818;stroke-width:1.0;stroke-dasharray:2.0,2.0;" x1="141.3135" x2="188.3135" y1="685.4434" y2="685.4434"/><polygon fill="#181818" points="151.3135,681.4434,141.3135,685.4434,151.3135,689.4434,147.3135,685.4434" style="stroke:#181818;stroke-width:1.0;"/><polygon fill="#181818" points="456.0249,707.7344,466.0249,711.7344,456.0249,715.7344,460.0249,711.7344" style="stroke:#181818;stroke-width:1.0;"/><line style="stroke:#181818;stroke-width:1.0;" x1="141.3135" x2="462.0249" y1="711.7344" y2="711.7344"/><text fill="#000000" font-family="sans-serif" font-size="13" lengthAdjust="spacing" textLength="98.2617" x="148.3135" y="706.4717">printBetAmount()</text><polygon fill="#181818" points="152.3135,721.7344,142.3135,725.7344,152.3135,729.7344,148.3135,725.7344" style="stroke:#181818;stroke-width:1.0;"/><line style="stroke:#181818;stroke-width:1.0;stroke-dasharray:2.0,2.0;" x1="146.3135" x2="472.0249" y1="725.7344" y2="725.7344"/><line style="stroke:#181818;stroke-width:1.0;stroke-dasharray:2.0,2.0;" x1="141.3135" x2="183.3135" y1="744.7344" y2="744.7344"/><line style="stroke:#181818;stroke-width:1.0;stroke-dasharray:2.0,2.0;" x1="183.3135" x2="183.3135" y1="744.7344" y2="757.7344"/><line style="stroke:#181818;stroke-width:1.0;stroke-dasharray:2.0,2.0;" x1="136.3135" x2="183.3135" y1="757.7344" y2="757.7344"/><polygon fill="#181818" points="146.3135,753.7344,136.3135,757.7344,146.3135,761.7344,142.3135,757.7344" style="stroke:#181818;stroke-width:1.0;"/><polygon fill="#181818" points="48.7793,762.7344,38.7793,766.7344,48.7793,770.7344,44.7793,766.7344" style="stroke:#181818;stroke-width:1.0;"/><line style="stroke:#181818;stroke-width:1.0;stroke-dasharray:2.0,2.0;" x1="42.7793" x2="130.3135" y1="766.7344" y2="766.7344"/><!--SRC=[nPHHQzim4CVVzIbkULaAQM1xD7IGkDqQMDrIslLXZ2BBPqlKrXdvdARVlh8JGsodtHY1ljZMwQ-xdqv_Ioec1_SLEf1L-nRQ90Wf4SUq4QLqR9GffMK8jRGPXbGKqYQDV1BqGfEU-iOPozkqas0tw2j2CZRDJNcnKLYo8RlBEGnFX6W1Jx_r4GB03QgQSNeYf6ApbenzXH2Y3prEeThXsnd-lXxLKrGNCRhhz85SKasVc-UR2QbaQ1Np76t66ZwTmLUX7BRIuTuFr1zrBHZ7fgF8FBnSH3yk7bVHhyNFrVdZz-lRgyNTFkMuzAZIgQ_VUYJ1TzQXtwKbF-LCfXaeFQ2vqmZ4sfzgMblLXAhF_ZYxGgmTFLSpg6gb6rSOAxf6epDAvjic__xovsG6MguHOaGh6fFP9e7CynUWmZ1Z0anGEbpx6L1vxKFUZ5b32GtbiCF38-xjzR-iCIJ-HwiT6IIKTeahtw0CtKUpH6GZpAHFWDCOUL5GRVc3M1uCQsENCfTMxT7CeFP6FvSiv_5sxlXyOy3TFHbum_gFPGUpVptj9AAxNz-jrucFrS93__- -uXK0]--></g></svg>