<svg xmlns="http://www.w3.org/2000/svg" xmlns:xlink="http://www.w3.org/1999/xlink" contentStyleType="text/css" height="472px" preserveAspectRatio="none" style="width:678px;height:472px;background:#FFFFFF;" version="1.1" viewBox="0 0 678 472" width="678px" zoomAndPan="magnify"><defs/><g><rect fill="#FFFFFF" height="254.2988" style="stroke:#181818;stroke-width:1.0;" width="10" x="258.3613" y="116.9121"/><rect fill="#FFFFFF" height="191.7168" style="stroke:#181818;stroke-width:1.0;" width="10" x="488.8994" y="148.2031"/><rect fill="none" height="146.4258" style="stroke:#000000;stroke-width:1.5;" width="248.7349" x="422.8237" y="163.2031"/><line style="stroke:#181818;stroke-width:0.5;stroke-dasharray:5.0,5.0;" x1="22" x2="22" y1="83.6211" y2="389.2109"/><line style="stroke:#181818;stroke-width:0.5;stroke-dasharray:5.0,5.0;" x1="262.7993" x2="262.7993" y1="83.6211" y2="389.2109"/><line style="stroke:#181818;stroke-width:0.5;stroke-dasharray:5.0,5.0;" x1="493.8237" x2="493.8237" y1="83.6211" y2="389.2109"/><line style="stroke:#181818;stroke-width:0.5;stroke-dasharray:5.0,5.0;" x1="631.4346" x2="631.4346" y1="83.6211" y2="389.2109"/><text fill="#000000" font-family="sans-serif" font-size="14" lengthAdjust="spacing" textLength="29.5586" x="5" y="80.1074">User</text><ellipse cx="22.7793" cy="13.5" fill="#E2E2F0" rx="8" ry="8" style="stroke:#181818;stroke-width:0.5;"/><path d="M22.7793,21.5 L22.7793,48.5 M9.7793,29.5 L35.7793,29.5 M22.7793,48.5 L9.7793,63.5 M22.7793,48.5 L35.7793,63.5 " fill="none" style="stroke:#181818;stroke-width:0.5;"/><text fill="#000000" font-family="sans-serif" font-size="14" lengthAdjust="spacing" textLength="29.5586" x="5" y="403.3184">User</text><ellipse cx="22.7793" cy="415.332" fill="#E2E2F0" rx="8" ry="8" style="stroke:#181818;stroke-width:0.5;"/><path d="M22.7793,423.332 L22.7793,450.332 M9.7793,431.332 L35.7793,431.332 M22.7793,450.332 L9.7793,465.332 M22.7793,450.332 L35.7793,465.332 " fill="none" style="stroke:#181818;stroke-width:0.5;"/><rect fill="#E2E2F0" height="32.6211" rx="2.5" ry="2.5" style="stroke:#181818;stroke-width:0.5;" width="59.124" x="233.7993" y="50"/><text fill="#000000" font-family="sans-serif" font-size="14" lengthAdjust="spacing" textLength="45.124" x="240.7993" y="72.1074">:Parser</text><rect fill="#E2E2F0" height="32.6211" rx="2.5" ry="2.5" style="stroke:#181818;stroke-width:0.5;" width="59.124" x="233.7993" y="388.2109"/><text fill="#000000" font-family="sans-serif" font-size="14" lengthAdjust="spacing" textLength="45.124" x="240.7993" y="410.3184">:Parser</text><rect fill="#E2E2F0" height="32.6211" rx="2.5" ry="2.5" style="stroke:#181818;stroke-width:0.5;" width="122.1514" x="432.8237" y="50"/><text fill="#000000" font-family="sans-serif" font-size="14" lengthAdjust="spacing" textLength="108.1514" x="439.8237" y="72.1074">:CheckCommand</text><rect fill="#E2E2F0" height="32.6211" rx="2.5" ry="2.5" style="stroke:#181818;stroke-width:0.5;" width="122.1514" x="432.8237" y="388.2109"/><text fill="#000000" font-family="sans-serif" font-size="14" lengthAdjust="spacing" textLength="108.1514" x="439.8237" y="410.3184">:CheckCommand</text><rect fill="#E2E2F0" height="32.6211" rx="2.5" ry="2.5" style="stroke:#181818;stroke-width:0.5;" width="59.124" x="602.4346" y="50"/><text fill="#000000" font-family="sans-serif" font-size="14" lengthAdjust="spacing" textLength="45.124" x="609.4346" y="72.1074">:Printer</text><rect fill="#E2E2F0" height="32.6211" rx="2.5" ry="2.5" style="stroke:#181818;stroke-width:0.5;" width="59.124" x="602.4346" y="388.2109"/><text fill="#000000" font-family="sans-serif" font-size="14" lengthAdjust="spacing" textLength="45.124" x="609.4346" y="410.3184">:Printer</text><rect fill="#FFFFFF" height="254.2988" style="stroke:#181818;stroke-width:1.0;" width="10" x="258.3613" y="116.9121"/><rect fill="#FFFFFF" height="191.7168" style="stroke:#181818;stroke-width:1.0;" width="10" x="488.8994" y="148.2031"/><polygon fill="#181818" points="246.3613,112.9121,256.3613,116.9121,246.3613,120.9121,250.3613,116.9121" style="stroke:#181818;stroke-width:1.0;"/><line style="stroke:#181818;stroke-width:1.0;" x1="22.7793" x2="252.3613" y1="116.9121" y2="116.9121"/><text fill="#000000" font-family="sans-serif" font-size="13" lengthAdjust="spacing" textLength="216.582" x="29.7793" y="111.6494">input command "check {COMMAND}"</text><polygon fill="#181818" points="476.8994,144.2031,486.8994,148.2031,476.8994,152.2031,480.8994,148.2031" style="stroke:#181818;stroke-width:1.0;"/><line style="stroke:#181818;stroke-width:1.0;" x1="268.3613" x2="482.8994" y1="148.2031" y2="148.2031"/><text fill="#000000" font-family="sans-serif" font-size="13" lengthAdjust="spacing" textLength="201.5381" x="275.3613" y="142.9404">new CheckCommand(COMMAND)</text><path d="M422.8237,163.2031 L482.9946,163.2031 L482.9946,172.4941 L472.9946,182.4941 L422.8237,182.4941 L422.8237,163.2031 " fill="#EEEEEE" style="stroke:#000000;stroke-width:1.5;"/><rect fill="none" height="146.4258" style="stroke:#000000;stroke-width:1.5;" width="248.7349" x="422.8237" y="163.2031"/><text fill="#000000" font-family="sans-serif" font-size="13" font-weight="bold" lengthAdjust="spacing" textLength="15.1709" x="437.8237" y="178.2314">alt</text><text fill="#000000" font-family="sans-serif" font-size="11" font-weight="bold" lengthAdjust="spacing" textLength="136.3398" x="497.9946" y="177.0732">[COMMAND == "balance"]</text><polygon fill="#181818" points="619.9966,201.7852,629.9966,205.7852,619.9966,209.7852,623.9966,205.7852" style="stroke:#181818;stroke-width:1.0;"/><line style="stroke:#181818;stroke-width:1.0;" x1="498.8994" x2="625.9966" y1="205.7852" y2="205.7852"/><text fill="#000000" font-family="sans-serif" font-size="13" lengthAdjust="spacing" textLength="91.7617" x="505.8994" y="200.5225">printBalance(...)</text><line style="stroke:#000000;stroke-width:1.0;stroke-dasharray:2.0,2.0;" x1="422.8237" x2="671.5586" y1="214.7852" y2="214.7852"/><text fill="#000000" font-family="sans-serif" font-size="11" font-weight="bold" lengthAdjust="spacing" textLength="111.8745" x="427.8237" y="226.6553">[COMMAND == "bet"]</text><polygon fill="#181818" points="619.9966,249.707,629.9966,253.707,619.9966,257.707,623.9966,253.707" style="stroke:#181818;stroke-width:1.0;"/><line style="stroke:#181818;stroke-width:1.0;" x1="498.8994" x2="625.9966" y1="253.707" y2="253.707"/><text fill="#000000" font-family="sans-serif" font-size="13" lengthAdjust="spacing" textLength="109.0972" x="505.8994" y="248.4443">printBetAmount(...)</text><line style="stroke:#000000;stroke-width:1.0;stroke-dasharray:2.0,2.0;" x1="422.8237" x2="671.5586" y1="262.707" y2="262.707"/><text fill="#000000" font-family="sans-serif" font-size="11" font-weight="bold" lengthAdjust="spacing" textLength="132.0483" x="427.8237" y="274.5771">[COMMAND == "history"]</text><polygon fill="#181818" points="619.9966,297.6289,629.9966,301.6289,619.9966,305.6289,623.9966,301.6289" style="stroke:#181818;stroke-width:1.0;"/><line style="stroke:#181818;stroke-width:1.0;" x1="498.8994" x2="625.9966" y1="301.6289" y2="301.6289"/><text fill="#000000" font-family="sans-serif" font-size="13" lengthAdjust="spacing" textLength="74.4072" x="505.8994" y="296.3662">printStats(...)</text><line style="stroke:#181818;stroke-width:1.0;" x1="269.3613" x2="279.3613" y1="339.9199" y2="335.9199"/><line style="stroke:#181818;stroke-width:1.0;" x1="269.3613" x2="279.3613" y1="339.9199" y2="343.9199"/><line style="stroke:#181818;stroke-width:1.0;stroke-dasharray:2.0,2.0;" x1="268.3613" x2="492.8994" y1="339.9199" y2="339.9199"/><text fill="#000000" font-family="sans-serif" font-size="13" lengthAdjust="spacing" textLength="57.0781" x="285.3613" y="334.6572">command</text><line style="stroke:#181818;stroke-width:1.0;" x1="23.7793" x2="33.7793" y1="371.2109" y2="367.2109"/><line style="stroke:#181818;stroke-width:1.0;" x1="23.7793" x2="33.7793" y1="371.2109" y2="375.2109"/><line style="stroke:#181818;stroke-width:1.0;stroke-dasharray:2.0,2.0;" x1="22.7793" x2="262.3613" y1="371.2109" y2="371.2109"/><text fill="#000000" font-family="sans-serif" font-size="13" lengthAdjust="spacing" textLength="57.0781" x="39.7793" y="365.9482">command</text><!--SRC=[XP71Ri8m38RlVWeh9pZG1wX49LQkC2JK1_229IBQj4hC449xzpKa6ysXufJ4_ltP_aDQUeUDPuVadoSCvCHeCv0LF91BALN6kyhozPdrfUwxZkmfggQHN7jmnie_B3uKmBFtgagjIZHsk0hgn5GwyF1HV-vsc_tsHm5fCTyad0e0qemZOjgxHCktBB98ZEKBCKq3K3ik53MuNgFwefQiPWNPbc7KE7o9GxXyHDcYA8ebSEivXx2y1R1iklvgPGPnDdxyfFixp558V4A4TNBrgdfPdCo54yyuyMTfA6hcIgBe5m00]--></g></svg>