<svg xmlns="http://www.w3.org/2000/svg" xmlns:xlink="http://www.w3.org/1999/xlink" contentStyleType="text/css" height="862px" preserveAspectRatio="none" style="width:377px;height:862px;background:#FFFFFF;" version="1.1" viewBox="0 0 377 862" width="377px" zoomAndPan="magnify"><defs/><g><rect fill="#FFFFFF" height="644.1719" style="stroke:#181818;stroke-width:1.0;" width="10" x="106.6343" y="116.9121"/><rect fill="#FFFFFF" height="583.8809" style="stroke:#181818;stroke-width:1.0;" width="10" x="111.6343" y="156.2031"/><rect fill="#FFFFFF" height="25" style="stroke:#181818;stroke-width:1.0;" width="10" x="116.6343" y="200.4941"/><rect fill="#FFFFFF" height="441.2988" style="stroke:#181818;stroke-width:1.0;" width="10" x="116.6343" y="271.7852"/><rect fill="#FFFFFF" height="70.291" style="stroke:#181818;stroke-width:1.0;" width="10" x="121.6343" y="342.3672"/><rect fill="#FFFFFF" height="70.291" style="stroke:#181818;stroke-width:1.0;" width="10" x="121.6343" y="475.5801"/><rect fill="#FFFFFF" height="70.291" style="stroke:#181818;stroke-width:1.0;" width="10" x="121.6343" y="608.793"/><rect fill="#FFFFFF" height="14" style="stroke:#181818;stroke-width:1.0;" width="10" x="325.4487" y="378.6582"/><rect fill="#FFFFFF" height="14" style="stroke:#181818;stroke-width:1.0;" width="10" x="325.4487" y="511.8711"/><rect fill="#FFFFFF" height="14" style="stroke:#181818;stroke-width:1.0;" width="10" x="325.4487" y="645.084"/><rect fill="none" height="402.2988" style="stroke:#000000;stroke-width:1.5;" width="329.4521" x="40.5586" y="291.7852"/><line style="stroke:#181818;stroke-width:0.5;stroke-dasharray:5.0,5.0;" x1="22" x2="22" y1="83.6211" y2="779.084"/><line style="stroke:#181818;stroke-width:0.5;stroke-dasharray:5.0,5.0;" x1="111.5586" x2="111.5586" y1="83.6211" y2="779.084"/><line style="stroke:#181818;stroke-width:0.5;stroke-dasharray:5.0,5.0;" x1="329.8867" x2="329.8867" y1="83.6211" y2="779.084"/><text fill="#000000" font-family="sans-serif" font-size="14" lengthAdjust="spacing" textLength="29.5586" x="5" y="80.1074">User</text><ellipse cx="22.7793" cy="13.5" fill="#E2E2F0" rx="8" ry="8" style="stroke:#181818;stroke-width:0.5;"/><path d="M22.7793,21.5 L22.7793,48.5 M9.7793,29.5 L35.7793,29.5 M22.7793,48.5 L9.7793,63.5 M22.7793,48.5 L35.7793,63.5 " fill="none" style="stroke:#181818;stroke-width:0.5;"/><text fill="#000000" font-family="sans-serif" font-size="14" lengthAdjust="spacing" textLength="29.5586" x="5" y="793.1914">User</text><ellipse cx="22.7793" cy="805.2051" fill="#E2E2F0" rx="8" ry="8" style="stroke:#181818;stroke-width:0.5;"/><path d="M22.7793,813.2051 L22.7793,840.2051 M9.7793,821.2051 L35.7793,821.2051 M22.7793,840.2051 L9.7793,855.2051 M22.7793,840.2051 L35.7793,855.2051 " fill="none" style="stroke:#181818;stroke-width:0.5;"/><rect fill="#E2E2F0" height="32.6211" rx="2.5" ry="2.5" style="stroke:#181818;stroke-width:0.5;" width="122.1514" x="50.5586" y="50"/><text fill="#000000" font-family="sans-serif" font-size="14" lengthAdjust="spacing" textLength="108.1514" x="57.5586" y="72.1074">:CheckCommand</text><rect fill="#E2E2F0" height="32.6211" rx="2.5" ry="2.5" style="stroke:#181818;stroke-width:0.5;" width="122.1514" x="50.5586" y="778.084"/><text fill="#000000" font-family="sans-serif" font-size="14" lengthAdjust="spacing" textLength="108.1514" x="57.5586" y="800.1914">:CheckCommand</text><rect fill="#E2E2F0" height="32.6211" rx="2.5" ry="2.5" style="stroke:#181818;stroke-width:0.5;" width="59.124" x="300.8867" y="50"/><text fill="#000000" font-family="sans-serif" font-size="14" lengthAdjust="spacing" textLength="45.124" x="307.8867" y="72.1074">:Printer</text><rect fill="#E2E2F0" height="32.6211" rx="2.5" ry="2.5" style="stroke:#181818;stroke-width:0.5;" width="59.124" x="300.8867" y="778.084"/><text fill="#000000" font-family="sans-serif" font-size="14" lengthAdjust="spacing" textLength="45.124" x="307.8867" y="800.1914">:Printer</text><rect fill="#FFFFFF" height="644.1719" style="stroke:#181818;stroke-width:1.0;" width="10" x="106.6343" y="116.9121"/><rect fill="#FFFFFF" height="583.8809" style="stroke:#181818;stroke-width:1.0;" width="10" x="111.6343" y="156.2031"/><rect fill="#FFFFFF" height="25" style="stroke:#181818;stroke-width:1.0;" width="10" x="116.6343" y="200.4941"/><rect fill="#FFFFFF" height="441.2988" style="stroke:#181818;stroke-width:1.0;" width="10" x="116.6343" y="271.7852"/><rect fill="#FFFFFF" height="70.291" style="stroke:#181818;stroke-width:1.0;" width="10" x="121.6343" y="342.3672"/><rect fill="#FFFFFF" height="70.291" style="stroke:#181818;stroke-width:1.0;" width="10" x="121.6343" y="475.5801"/><rect fill="#FFFFFF" height="70.291" style="stroke:#181818;stroke-width:1.0;" width="10" x="121.6343" y="608.793"/><rect fill="#FFFFFF" height="14" style="stroke:#181818;stroke-width:1.0;" width="10" x="325.4487" y="378.6582"/><rect fill="#FFFFFF" height="14" style="stroke:#181818;stroke-width:1.0;" width="10" x="325.4487" y="511.8711"/><rect fill="#FFFFFF" height="14" style="stroke:#181818;stroke-width:1.0;" width="10" x="325.4487" y="645.084"/><polygon fill="#181818" points="94.6343,112.9121,104.6343,116.9121,94.6343,120.9121,98.6343,116.9121" style="stroke:#181818;stroke-width:1.0;"/><line style="stroke:#181818;stroke-width:1.0;" x1="22.7793" x2="100.6343" y1="116.9121" y2="116.9121"/><text fill="#000000" font-family="sans-serif" font-size="13" lengthAdjust="spacing" textLength="54.1899" x="29.7793" y="111.6494">execute()</text><line style="stroke:#181818;stroke-width:1.0;" x1="116.6343" x2="163.6343" y1="143.2031" y2="143.2031"/><line style="stroke:#181818;stroke-width:1.0;" x1="163.6343" x2="163.6343" y1="143.2031" y2="156.2031"/><line style="stroke:#181818;stroke-width:1.0;" x1="122.6343" x2="163.6343" y1="156.2031" y2="156.2031"/><polygon fill="#181818" points="132.6343,152.2031,122.6343,156.2031,132.6343,160.2031,128.6343,156.2031" style="stroke:#181818;stroke-width:1.0;"/><text fill="#000000" font-family="sans-serif" font-size="13" lengthAdjust="spacing" textLength="42.6182" x="128.6343" y="137.9404">check()</text><line style="stroke:#181818;stroke-width:1.0;" x1="121.6343" x2="168.6343" y1="187.4941" y2="187.4941"/><line style="stroke:#181818;stroke-width:1.0;" x1="168.6343" x2="168.6343" y1="187.4941" y2="200.4941"/><line style="stroke:#181818;stroke-width:1.0;" x1="127.6343" x2="168.6343" y1="200.4941" y2="200.4941"/><polygon fill="#181818" points="137.6343,196.4941,127.6343,200.4941,137.6343,204.4941,133.6343,200.4941" style="stroke:#181818;stroke-width:1.0;"/><text fill="#000000" font-family="sans-serif" font-size="13" lengthAdjust="spacing" textLength="174.8145" x="133.6343" y="182.2314">checkNumberOfWords(words)</text><line style="stroke:#181818;stroke-width:1.0;stroke-dasharray:2.0,2.0;" x1="126.6343" x2="168.6343" y1="224.4941" y2="224.4941"/><line style="stroke:#181818;stroke-width:1.0;stroke-dasharray:2.0,2.0;" x1="168.6343" x2="168.6343" y1="224.4941" y2="237.4941"/><line style="stroke:#181818;stroke-width:1.0;stroke-dasharray:2.0,2.0;" x1="121.6343" x2="168.6343" y1="237.4941" y2="237.4941"/><polygon fill="#181818" points="131.6343,233.4941,121.6343,237.4941,131.6343,241.4941,127.6343,237.4941" style="stroke:#181818;stroke-width:1.0;"/><line style="stroke:#181818;stroke-width:1.0;" x1="121.6343" x2="168.6343" y1="258.7852" y2="258.7852"/><line style="stroke:#181818;stroke-width:1.0;" x1="168.6343" x2="168.6343" y1="258.7852" y2="271.7852"/><line style="stroke:#181818;stroke-width:1.0;" x1="127.6343" x2="168.6343" y1="271.7852" y2="271.7852"/><polygon fill="#181818" points="137.6343,267.7852,127.6343,271.7852,137.6343,275.7852,133.6343,271.7852" style="stroke:#181818;stroke-width:1.0;"/><text fill="#000000" font-family="sans-serif" font-size="13" lengthAdjust="spacing" textLength="91.749" x="133.6343" y="253.5225">check(words[1])</text><path d="M40.5586,291.7852 L100.7295,291.7852 L100.7295,301.0762 L90.7295,311.0762 L40.5586,311.0762 L40.5586,291.7852 " fill="#EEEEEE" style="stroke:#000000;stroke-width:1.5;"/><rect fill="none" height="402.2988" style="stroke:#000000;stroke-width:1.5;" width="329.4521" x="40.5586" y="291.7852"/><text fill="#000000" font-family="sans-serif" font-size="13" font-weight="bold" lengthAdjust="spacing" textLength="15.1709" x="55.5586" y="306.8135">alt</text><text fill="#000000" font-family="sans-serif" font-size="11" font-weight="bold" lengthAdjust="spacing" textLength="123.519" x="115.7295" y="305.6553">[words[1] == "balance"]</text><line style="stroke:#181818;stroke-width:1.0;" x1="126.6343" x2="173.6343" y1="329.3672" y2="329.3672"/><line style="stroke:#181818;stroke-width:1.0;" x1="173.6343" x2="173.6343" y1="329.3672" y2="342.3672"/><line style="stroke:#181818;stroke-width:1.0;" x1="132.6343" x2="173.6343" y1="342.3672" y2="342.3672"/><polygon fill="#181818" points="142.6343,338.3672,132.6343,342.3672,142.6343,346.3672,138.6343,342.3672" style="stroke:#181818;stroke-width:1.0;"/><text fill="#000000" font-family="sans-serif" font-size="13" lengthAdjust="spacing" textLength="89.5972" x="138.6343" y="324.1045">checkBalance()</text><polygon fill="#181818" points="313.4487,374.6582,323.4487,378.6582,313.4487,382.6582,317.4487,378.6582" style="stroke:#181818;stroke-width:1.0;"/><line style="stroke:#181818;stroke-width:1.0;" x1="131.6343" x2="319.4487" y1="378.6582" y2="378.6582"/><text fill="#000000" font-family="sans-serif" font-size="13" lengthAdjust="spacing" textLength="80.9263" x="138.6343" y="373.3955">printBalance()</text><polygon fill="#181818" points="142.6343,388.6582,132.6343,392.6582,142.6343,396.6582,138.6343,392.6582" style="stroke:#181818;stroke-width:1.0;"/><line style="stroke:#181818;stroke-width:1.0;stroke-dasharray:2.0,2.0;" x1="136.6343" x2="329.4487" y1="392.6582" y2="392.6582"/><line style="stroke:#181818;stroke-width:1.0;stroke-dasharray:2.0,2.0;" x1="131.6343" x2="173.6343" y1="411.6582" y2="411.6582"/><line style="stroke:#181818;stroke-width:1.0;stroke-dasharray:2.0,2.0;" x1="173.6343" x2="173.6343" y1="411.6582" y2="424.6582"/><line style="stroke:#181818;stroke-width:1.0;stroke-dasharray:2.0,2.0;" x1="126.6343" x2="173.6343" y1="424.6582" y2="424.6582"/><polygon fill="#181818" points="136.6343,420.6582,126.6343,424.6582,136.6343,428.6582,132.6343,424.6582" style="stroke:#181818;stroke-width:1.0;"/><line style="stroke:#000000;stroke-width:1.0;stroke-dasharray:2.0,2.0;" x1="40.5586" x2="370.0107" y1="428.6582" y2="428.6582"/><text fill="#000000" font-family="sans-serif" font-size="11" font-weight="bold" lengthAdjust="spacing" textLength="99.0537" x="45.5586" y="440.5283">[words[1] == "bet"]</text><line style="stroke:#181818;stroke-width:1.0;" x1="126.6343" x2="173.6343" y1="462.5801" y2="462.5801"/><line style="stroke:#181818;stroke-width:1.0;" x1="173.6343" x2="173.6343" y1="462.5801" y2="475.5801"/><line style="stroke:#181818;stroke-width:1.0;" x1="132.6343" x2="173.6343" y1="475.5801" y2="475.5801"/><polygon fill="#181818" points="142.6343,471.5801,132.6343,475.5801,142.6343,479.5801,138.6343,475.5801" style="stroke:#181818;stroke-width:1.0;"/><text fill="#000000" font-family="sans-serif" font-size="13" lengthAdjust="spacing" textLength="62.1309" x="138.6343" y="457.3174">checkBet()</text><polygon fill="#181818" points="313.4487,507.8711,323.4487,511.8711,313.4487,515.8711,317.4487,511.8711" style="stroke:#181818;stroke-width:1.0;"/><line style="stroke:#181818;stroke-width:1.0;" x1="131.6343" x2="319.4487" y1="511.8711" y2="511.8711"/><text fill="#000000" font-family="sans-serif" font-size="13" lengthAdjust="spacing" textLength="98.2617" x="138.6343" y="506.6084">printBetAmount()</text><polygon fill="#181818" points="142.6343,521.8711,132.6343,525.8711,142.6343,529.8711,138.6343,525.8711" style="stroke:#181818;stroke-width:1.0;"/><line style="stroke:#181818;stroke-width:1.0;stroke-dasharray:2.0,2.0;" x1="136.6343" x2="329.4487" y1="525.8711" y2="525.8711"/><line style="stroke:#181818;stroke-width:1.0;stroke-dasharray:2.0,2.0;" x1="131.6343" x2="173.6343" y1="544.8711" y2="544.8711"/><line style="stroke:#181818;stroke-width:1.0;stroke-dasharray:2.0,2.0;" x1="173.6343" x2="173.6343" y1="544.8711" y2="557.8711"/><line style="stroke:#181818;stroke-width:1.0;stroke-dasharray:2.0,2.0;" x1="126.6343" x2="173.6343" y1="557.8711" y2="557.8711"/><polygon fill="#181818" points="136.6343,553.8711,126.6343,557.8711,136.6343,561.8711,132.6343,557.8711" style="stroke:#181818;stroke-width:1.0;"/><line style="stroke:#000000;stroke-width:1.0;stroke-dasharray:2.0,2.0;" x1="40.5586" x2="370.0107" y1="561.8711" y2="561.8711"/><text fill="#000000" font-family="sans-serif" font-size="11" font-weight="bold" lengthAdjust="spacing" textLength="119.2275" x="45.5586" y="573.7412">[words[1] == "history"]</text><line style="stroke:#181818;stroke-width:1.0;" x1="126.6343" x2="173.6343" y1="595.793" y2="595.793"/><line style="stroke:#181818;stroke-width:1.0;" x1="173.6343" x2="173.6343" y1="595.793" y2="608.793"/><line style="stroke:#181818;stroke-width:1.0;" x1="132.6343" x2="173.6343" y1="608.793" y2="608.793"/><polygon fill="#181818" points="142.6343,604.793,132.6343,608.793,142.6343,612.793,138.6343,608.793" style="stroke:#181818;stroke-width:1.0;"/><text fill="#000000" font-family="sans-serif" font-size="13" lengthAdjust="spacing" textLength="83.0654" x="138.6343" y="590.5303">checkHistory()</text><polygon fill="#181818" points="313.4487,641.084,323.4487,645.084,313.4487,649.084,317.4487,645.084" style="stroke:#181818;stroke-width:1.0;"/><line style="stroke:#181818;stroke-width:1.0;" x1="131.6343" x2="319.4487" y1="645.084" y2="645.084"/><text fill="#000000" font-family="sans-serif" font-size="13" lengthAdjust="spacing" textLength="63.5718" x="138.6343" y="639.8213">printStats()</text><polygon fill="#181818" points="142.6343,655.084,132.6343,659.084,142.6343,663.084,138.6343,659.084" style="stroke:#181818;stroke-width:1.0;"/><line style="stroke:#181818;stroke-width:1.0;stroke-dasharray:2.0,2.0;" x1="136.6343" x2="329.4487" y1="659.084" y2="659.084"/><line style="stroke:#181818;stroke-width:1.0;stroke-dasharray:2.0,2.0;" x1="131.6343" x2="173.6343" y1="678.084" y2="678.084"/><line style="stroke:#181818;stroke-width:1.0;stroke-dasharray:2.0,2.0;" x1="173.6343" x2="173.6343" y1="678.084" y2="691.084"/><line style="stroke:#181818;stroke-width:1.0;stroke-dasharray:2.0,2.0;" x1="126.6343" x2="173.6343" y1="691.084" y2="691.084"/><polygon fill="#181818" points="136.6343,687.084,126.6343,691.084,136.6343,695.084,132.6343,691.084" style="stroke:#181818;stroke-width:1.0;"/><line style="stroke:#181818;stroke-width:1.0;stroke-dasharray:2.0,2.0;" x1="126.6343" x2="168.6343" y1="712.084" y2="712.084"/><line style="stroke:#181818;stroke-width:1.0;stroke-dasharray:2.0,2.0;" x1="168.6343" x2="168.6343" y1="712.084" y2="725.084"/><line style="stroke:#181818;stroke-width:1.0;stroke-dasharray:2.0,2.0;" x1="121.6343" x2="168.6343" y1="725.084" y2="725.084"/><polygon fill="#181818" points="131.6343,721.084,121.6343,725.084,131.6343,729.084,127.6343,725.084" style="stroke:#181818;stroke-width:1.0;"/><line style="stroke:#181818;stroke-width:1.0;stroke-dasharray:2.0,2.0;" x1="121.6343" x2="163.6343" y1="739.084" y2="739.084"/><line style="stroke:#181818;stroke-width:1.0;stroke-dasharray:2.0,2.0;" x1="163.6343" x2="163.6343" y1="739.084" y2="752.084"/><line style="stroke:#181818;stroke-width:1.0;stroke-dasharray:2.0,2.0;" x1="116.6343" x2="163.6343" y1="752.084" y2="752.084"/><polygon fill="#181818" points="126.6343,748.084,116.6343,752.084,126.6343,756.084,122.6343,752.084" style="stroke:#181818;stroke-width:1.0;"/><polygon fill="#181818" points="33.7793,757.084,23.7793,761.084,33.7793,765.084,29.7793,761.084" style="stroke:#181818;stroke-width:1.0;"/><line style="stroke:#181818;stroke-width:1.0;stroke-dasharray:2.0,2.0;" x1="27.7793" x2="110.6343" y1="761.084" y2="761.084"/><!--SRC=[pPGnJyCm48Nt-nKdJsLWO8rK9EZ214W8TK0CL-TGBH8diYy5_ZrnaafnsY2hPMW69xRVUsTzreMqL0vVFJiatxsX9YT6cvgiu6hB-dDLbINPF0XKDbvHaVRP6IjzZig6YGBeigzlewWC-Pjr8xou0j9YTYGS2G0WAdtWrs4swqxmFZRbXjtJnxfokLzyXJ4jRH87EPzyXhxisytxN6Kg1FSQN2vHRQWWgra1jaz2XVjUtu8AXkD5ZaKDrvTX7JvcKWPHjxY__0CyONE4QEpvc-l46ErnuNa2XYKT2ikvG5ZkoggnSib8jiQtlVsJZEMXrv-9vaL8_0LXERb__wNjMrVtJvrH_m80]--></g></svg>