<svg xmlns="http://www.w3.org/2000/svg" xmlns:xlink="http://www.w3.org/1999/xlink" contentStyleType="text/css" height="966px" preserveAspectRatio="none" style="width:686px;height:966px;background:#FFFFFF;" version="1.1" viewBox="0 0 686 966" width="686px" zoomAndPan="magnify"><defs/><g><rect fill="#FFFFFF" height="824.248" style="stroke:#181818;stroke-width:1.0;" width="10" x="121.6343" y="116.9121"/><rect fill="#FFFFFF" height="763.957" style="stroke:#181818;stroke-width:1.0;" width="10" x="126.6343" y="156.2031"/><rect fill="#FFFFFF" height="115.9121" style="stroke:#181818;stroke-width:1.0;" width="10" x="131.6343" y="200.4941"/><rect fill="#FFFFFF" height="530.4629" style="stroke:#181818;stroke-width:1.0;" width="10" x="131.6343" y="362.6973"/><rect fill="#FFFFFF" height="70.291" style="stroke:#181818;stroke-width:1.0;" width="10" x="136.6343" y="433.2793"/><rect fill="#FFFFFF" height="70.291" style="stroke:#181818;stroke-width:1.0;" width="10" x="136.6343" y="566.4922"/><rect fill="#FFFFFF" height="70.291" style="stroke:#181818;stroke-width:1.0;" width="10" x="136.6343" y="699.7051"/><rect fill="#FFFFFF" height="14" style="stroke:#181818;stroke-width:1.0;" width="10" x="340.4487" y="469.5703"/><rect fill="#FFFFFF" height="14" style="stroke:#181818;stroke-width:1.0;" width="10" x="340.4487" y="602.7832"/><rect fill="#FFFFFF" height="14" style="stroke:#181818;stroke-width:1.0;" width="10" x="340.4487" y="735.9961"/><rect fill="#FFFFFF" height="16.3301" style="stroke:#181818;stroke-width:1.0;" width="10" x="602.2456" y="273.0762"/><rect fill="none" height="76.9121" style="stroke:#000000;stroke-width:1.5;" width="670.2764" x="10" y="220.4941"/><rect fill="none" height="402.2988" style="stroke:#000000;stroke-width:1.5;" width="329.4521" x="55.5586" y="382.6973"/><line style="stroke:#181818;stroke-width:0.5;stroke-dasharray:5.0,5.0;" x1="37" x2="37" y1="83.6211" y2="959.1602"/><line style="stroke:#181818;stroke-width:0.5;stroke-dasharray:5.0,5.0;" x1="126.5586" x2="126.5586" y1="83.6211" y2="959.1602"/><line style="stroke:#181818;stroke-width:0.5;stroke-dasharray:5.0,5.0;" x1="344.8867" x2="344.8867" y1="83.6211" y2="959.1602"/><line style="stroke:#181818;stroke-width:0.5;stroke-dasharray:5.0,5.0;" x1="607.2148" x2="607.2148" y1="271.5957" y2="959.1602"/><text fill="#000000" font-family="sans-serif" font-size="14" lengthAdjust="spacing" textLength="29.5586" x="20" y="80.1074">User</text><ellipse cx="37.7793" cy="13.5" fill="#E2E2F0" rx="8" ry="8" style="stroke:#181818;stroke-width:0.5;"/><path d="M37.7793,21.5 L37.7793,48.5 M24.7793,29.5 L50.7793,29.5 M37.7793,48.5 L24.7793,63.5 M37.7793,48.5 L50.7793,63.5 " fill="none" style="stroke:#181818;stroke-width:0.5;"/><rect fill="#E2E2F0" height="32.6211" rx="2.5" ry="2.5" style="stroke:#181818;stroke-width:0.5;" width="122.1514" x="65.5586" y="50"/><text fill="#000000" font-family="sans-serif" font-size="14" lengthAdjust="spacing" textLength="108.1514" x="72.5586" y="72.1074">:CheckCommand</text><rect fill="#E2E2F0" height="32.6211" rx="2.5" ry="2.5" style="stroke:#181818;stroke-width:0.5;" width="59.124" x="315.8867" y="50"/><text fill="#000000" font-family="sans-serif" font-size="14" lengthAdjust="spacing" textLength="45.124" x="322.8867" y="72.1074">:Printer</text><rect fill="#FFFFFF" height="824.248" style="stroke:#181818;stroke-width:1.0;" width="10" x="121.6343" y="116.9121"/><rect fill="#FFFFFF" height="763.957" style="stroke:#181818;stroke-width:1.0;" width="10" x="126.6343" y="156.2031"/><rect fill="#FFFFFF" height="115.9121" style="stroke:#181818;stroke-width:1.0;" width="10" x="131.6343" y="200.4941"/><rect fill="#FFFFFF" height="530.4629" style="stroke:#181818;stroke-width:1.0;" width="10" x="131.6343" y="362.6973"/><rect fill="#FFFFFF" height="70.291" style="stroke:#181818;stroke-width:1.0;" width="10" x="136.6343" y="433.2793"/><rect fill="#FFFFFF" height="70.291" style="stroke:#181818;stroke-width:1.0;" width="10" x="136.6343" y="566.4922"/><rect fill="#FFFFFF" height="70.291" style="stroke:#181818;stroke-width:1.0;" width="10" x="136.6343" y="699.7051"/><rect fill="#FFFFFF" height="14" style="stroke:#181818;stroke-width:1.0;" width="10" x="340.4487" y="469.5703"/><rect fill="#FFFFFF" height="14" style="stroke:#181818;stroke-width:1.0;" width="10" x="340.4487" y="602.7832"/><rect fill="#FFFFFF" height="14" style="stroke:#181818;stroke-width:1.0;" width="10" x="340.4487" y="735.9961"/><rect fill="#FFFFFF" height="16.3301" style="stroke:#181818;stroke-width:1.0;" width="10" x="602.2456" y="273.0762"/><polygon fill="#181818" points="109.6343,112.9121,119.6343,116.9121,109.6343,120.9121,113.6343,116.9121" style="stroke:#181818;stroke-width:1.0;"/><line style="stroke:#181818;stroke-width:1.0;" x1="37.7793" x2="115.6343" y1="116.9121" y2="116.9121"/><text fill="#000000" font-family="sans-serif" font-size="13" lengthAdjust="spacing" textLength="54.1899" x="44.7793" y="111.6494">execute()</text><line style="stroke:#181818;stroke-width:1.0;" x1="131.6343" x2="178.6343" y1="143.2031" y2="143.2031"/><line style="stroke:#181818;stroke-width:1.0;" x1="178.6343" x2="178.6343" y1="143.2031" y2="156.2031"/><line style="stroke:#181818;stroke-width:1.0;" x1="137.6343" x2="178.6343" y1="156.2031" y2="156.2031"/><polygon fill="#181818" points="147.6343,152.2031,137.6343,156.2031,147.6343,160.2031,143.6343,156.2031" style="stroke:#181818;stroke-width:1.0;"/><text fill="#000000" font-family="sans-serif" font-size="13" lengthAdjust="spacing" textLength="42.6182" x="143.6343" y="137.9404">check()</text><line style="stroke:#181818;stroke-width:1.0;" x1="136.6343" x2="183.6343" y1="187.4941" y2="187.4941"/><line style="stroke:#181818;stroke-width:1.0;" x1="183.6343" x2="183.6343" y1="187.4941" y2="200.4941"/><line style="stroke:#181818;stroke-width:1.0;" x1="142.6343" x2="183.6343" y1="200.4941" y2="200.4941"/><polygon fill="#181818" points="152.6343,196.4941,142.6343,200.4941,152.6343,204.4941,148.6343,200.4941" style="stroke:#181818;stroke-width:1.0;"/><text fill="#000000" font-family="sans-serif" font-size="13" lengthAdjust="spacing" textLength="174.8145" x="148.6343" y="182.2314">checkNumberOfWords(words)</text><path d="M10,220.4941 L75.2109,220.4941 L75.2109,229.7852 L65.2109,239.7852 L10,239.7852 L10,220.4941 " fill="#EEEEEE" style="stroke:#000000;stroke-width:1.5;"/><rect fill="none" height="76.9121" style="stroke:#000000;stroke-width:1.5;" width="670.2764" x="10" y="220.4941"/><text fill="#000000" font-family="sans-serif" font-size="13" font-weight="bold" lengthAdjust="spacing" textLength="20.2109" x="25" y="235.5225">opt</text><text fill="#000000" font-family="sans-serif" font-size="11" font-weight="bold" lengthAdjust="spacing" textLength="98.0869" x="90.2109" y="234.3643">[words.length != 2]</text><polygon fill="#181818" points="532.2148,259.0762,542.2148,263.0762,532.2148,267.0762,536.2148,263.0762" style="stroke:#181818;stroke-width:1.0;"/><line style="stroke:#181818;stroke-width:1.0;" x1="141.6343" x2="538.2148" y1="263.0762" y2="263.0762"/><text fill="#000000" font-family="sans-serif" font-size="13" lengthAdjust="spacing" textLength="378.5806" x="148.6343" y="257.8135">CoinflipException(CoinflipException.CHECK_INVALID_FORMAT)</text><rect fill="#E2E2F0" height="32.6211" rx="2.5" ry="2.5" style="stroke:#181818;stroke-width:0.5;" width="126.0615" x="544.2148" y="239.7852"/><text fill="#000000" font-family="sans-serif" font-size="14" lengthAdjust="spacing" textLength="112.0615" x="551.2148" y="261.8926">:CoinflipException</text><polygon fill="#181818" points="48.7793,285.4063,38.7793,289.4063,48.7793,293.4063,44.7793,289.4063" style="stroke:#181818;stroke-width:1.0;"/><line style="stroke:#181818;stroke-width:1.0;stroke-dasharray:2.0,2.0;" x1="42.7793" x2="606.2456" y1="289.4063" y2="289.4063"/><line style="stroke:#181818;stroke-width:1.0;stroke-dasharray:2.0,2.0;" x1="141.6343" x2="183.6343" y1="315.4063" y2="315.4063"/><line style="stroke:#181818;stroke-width:1.0;stroke-dasharray:2.0,2.0;" x1="183.6343" x2="183.6343" y1="315.4063" y2="328.4063"/><line style="stroke:#181818;stroke-width:1.0;stroke-dasharray:2.0,2.0;" x1="136.6343" x2="183.6343" y1="328.4063" y2="328.4063"/><polygon fill="#181818" points="146.6343,324.4063,136.6343,328.4063,146.6343,332.4063,142.6343,328.4063" style="stroke:#181818;stroke-width:1.0;"/><line style="stroke:#181818;stroke-width:1.0;" x1="136.6343" x2="183.6343" y1="349.6973" y2="349.6973"/><line style="stroke:#181818;stroke-width:1.0;" x1="183.6343" x2="183.6343" y1="349.6973" y2="362.6973"/><line style="stroke:#181818;stroke-width:1.0;" x1="142.6343" x2="183.6343" y1="362.6973" y2="362.6973"/><polygon fill="#181818" points="152.6343,358.6973,142.6343,362.6973,152.6343,366.6973,148.6343,362.6973" style="stroke:#181818;stroke-width:1.0;"/><text fill="#000000" font-family="sans-serif" font-size="13" lengthAdjust="spacing" textLength="91.749" x="148.6343" y="344.4346">check(words[1])</text><path d="M55.5586,382.6973 L115.7295,382.6973 L115.7295,391.9883 L105.7295,401.9883 L55.5586,401.9883 L55.5586,382.6973 " fill="#EEEEEE" style="stroke:#000000;stroke-width:1.5;"/><rect fill="none" height="402.2988" style="stroke:#000000;stroke-width:1.5;" width="329.4521" x="55.5586" y="382.6973"/><text fill="#000000" font-family="sans-serif" font-size="13" font-weight="bold" lengthAdjust="spacing" textLength="15.1709" x="70.5586" y="397.7256">alt</text><text fill="#000000" font-family="sans-serif" font-size="11" font-weight="bold" lengthAdjust="spacing" textLength="123.519" x="130.7295" y="396.5674">[words[1] == "balance"]</text><line style="stroke:#181818;stroke-width:1.0;" x1="141.6343" x2="188.6343" y1="420.2793" y2="420.2793"/><line style="stroke:#181818;stroke-width:1.0;" x1="188.6343" x2="188.6343" y1="420.2793" y2="433.2793"/><line style="stroke:#181818;stroke-width:1.0;" x1="147.6343" x2="188.6343" y1="433.2793" y2="433.2793"/><polygon fill="#181818" points="157.6343,429.2793,147.6343,433.2793,157.6343,437.2793,153.6343,433.2793" style="stroke:#181818;stroke-width:1.0;"/><text fill="#000000" font-family="sans-serif" font-size="13" lengthAdjust="spacing" textLength="89.5972" x="153.6343" y="415.0166">checkBalance()</text><polygon fill="#181818" points="328.4487,465.5703,338.4487,469.5703,328.4487,473.5703,332.4487,469.5703" style="stroke:#181818;stroke-width:1.0;"/><line style="stroke:#181818;stroke-width:1.0;" x1="146.6343" x2="334.4487" y1="469.5703" y2="469.5703"/><text fill="#000000" font-family="sans-serif" font-size="13" lengthAdjust="spacing" textLength="80.9263" x="153.6343" y="464.3076">printBalance()</text><polygon fill="#181818" points="157.6343,479.5703,147.6343,483.5703,157.6343,487.5703,153.6343,483.5703" style="stroke:#181818;stroke-width:1.0;"/><line style="stroke:#181818;stroke-width:1.0;stroke-dasharray:2.0,2.0;" x1="151.6343" x2="344.4487" y1="483.5703" y2="483.5703"/><line style="stroke:#181818;stroke-width:1.0;stroke-dasharray:2.0,2.0;" x1="146.6343" x2="188.6343" y1="502.5703" y2="502.5703"/><line style="stroke:#181818;stroke-width:1.0;stroke-dasharray:2.0,2.0;" x1="188.6343" x2="188.6343" y1="502.5703" y2="515.5703"/><line style="stroke:#181818;stroke-width:1.0;stroke-dasharray:2.0,2.0;" x1="141.6343" x2="188.6343" y1="515.5703" y2="515.5703"/><polygon fill="#181818" points="151.6343,511.5703,141.6343,515.5703,151.6343,519.5703,147.6343,515.5703" style="stroke:#181818;stroke-width:1.0;"/><line style="stroke:#000000;stroke-width:1.0;stroke-dasharray:2.0,2.0;" x1="55.5586" x2="385.0107" y1="519.5703" y2="519.5703"/><text fill="#000000" font-family="sans-serif" font-size="11" font-weight="bold" lengthAdjust="spacing" textLength="99.0537" x="60.5586" y="531.4404">[words[1] == "bet"]</text><line style="stroke:#181818;stroke-width:1.0;" x1="141.6343" x2="188.6343" y1="553.4922" y2="553.4922"/><line style="stroke:#181818;stroke-width:1.0;" x1="188.6343" x2="188.6343" y1="553.4922" y2="566.4922"/><line style="stroke:#181818;stroke-width:1.0;" x1="147.6343" x2="188.6343" y1="566.4922" y2="566.4922"/><polygon fill="#181818" points="157.6343,562.4922,147.6343,566.4922,157.6343,570.4922,153.6343,566.4922" style="stroke:#181818;stroke-width:1.0;"/><text fill="#000000" font-family="sans-serif" font-size="13" lengthAdjust="spacing" textLength="62.1309" x="153.6343" y="548.2295">checkBet()</text><polygon fill="#181818" points="328.4487,598.7832,338.4487,602.7832,328.4487,606.7832,332.4487,602.7832" style="stroke:#181818;stroke-width:1.0;"/><line style="stroke:#181818;stroke-width:1.0;" x1="146.6343" x2="334.4487" y1="602.7832" y2="602.7832"/><text fill="#000000" font-family="sans-serif" font-size="13" lengthAdjust="spacing" textLength="98.2617" x="153.6343" y="597.5205">printBetAmount()</text><polygon fill="#181818" points="157.6343,612.7832,147.6343,616.7832,157.6343,620.7832,153.6343,616.7832" style="stroke:#181818;stroke-width:1.0;"/><line style="stroke:#181818;stroke-width:1.0;stroke-dasharray:2.0,2.0;" x1="151.6343" x2="344.4487" y1="616.7832" y2="616.7832"/><line style="stroke:#181818;stroke-width:1.0;stroke-dasharray:2.0,2.0;" x1="146.6343" x2="188.6343" y1="635.7832" y2="635.7832"/><line style="stroke:#181818;stroke-width:1.0;stroke-dasharray:2.0,2.0;" x1="188.6343" x2="188.6343" y1="635.7832" y2="648.7832"/><line style="stroke:#181818;stroke-width:1.0;stroke-dasharray:2.0,2.0;" x1="141.6343" x2="188.6343" y1="648.7832" y2="648.7832"/><polygon fill="#181818" points="151.6343,644.7832,141.6343,648.7832,151.6343,652.7832,147.6343,648.7832" style="stroke:#181818;stroke-width:1.0;"/><line style="stroke:#000000;stroke-width:1.0;stroke-dasharray:2.0,2.0;" x1="55.5586" x2="385.0107" y1="652.7832" y2="652.7832"/><text fill="#000000" font-family="sans-serif" font-size="11" font-weight="bold" lengthAdjust="spacing" textLength="119.2275" x="60.5586" y="664.6533">[words[1] == "history"]</text><line style="stroke:#181818;stroke-width:1.0;" x1="141.6343" x2="188.6343" y1="686.7051" y2="686.7051"/><line style="stroke:#181818;stroke-width:1.0;" x1="188.6343" x2="188.6343" y1="686.7051" y2="699.7051"/><line style="stroke:#181818;stroke-width:1.0;" x1="147.6343" x2="188.6343" y1="699.7051" y2="699.7051"/><polygon fill="#181818" points="157.6343,695.7051,147.6343,699.7051,157.6343,703.7051,153.6343,699.7051" style="stroke:#181818;stroke-width:1.0;"/><text fill="#000000" font-family="sans-serif" font-size="13" lengthAdjust="spacing" textLength="83.0654" x="153.6343" y="681.4424">checkHistory()</text><polygon fill="#181818" points="328.4487,731.9961,338.4487,735.9961,328.4487,739.9961,332.4487,735.9961" style="stroke:#181818;stroke-width:1.0;"/><line style="stroke:#181818;stroke-width:1.0;" x1="146.6343" x2="334.4487" y1="735.9961" y2="735.9961"/><text fill="#000000" font-family="sans-serif" font-size="13" lengthAdjust="spacing" textLength="63.5718" x="153.6343" y="730.7334">printStats()</text><polygon fill="#181818" points="157.6343,745.9961,147.6343,749.9961,157.6343,753.9961,153.6343,749.9961" style="stroke:#181818;stroke-width:1.0;"/><line style="stroke:#181818;stroke-width:1.0;stroke-dasharray:2.0,2.0;" x1="151.6343" x2="344.4487" y1="749.9961" y2="749.9961"/><line style="stroke:#181818;stroke-width:1.0;stroke-dasharray:2.0,2.0;" x1="146.6343" x2="188.6343" y1="768.9961" y2="768.9961"/><line style="stroke:#181818;stroke-width:1.0;stroke-dasharray:2.0,2.0;" x1="188.6343" x2="188.6343" y1="768.9961" y2="781.9961"/><line style="stroke:#181818;stroke-width:1.0;stroke-dasharray:2.0,2.0;" x1="141.6343" x2="188.6343" y1="781.9961" y2="781.9961"/><polygon fill="#181818" points="151.6343,777.9961,141.6343,781.9961,151.6343,785.9961,147.6343,781.9961" style="stroke:#181818;stroke-width:1.0;"/><path d="M146,796.9961 L146,875.9961 L327,875.9961 L327,806.9961 L317,796.9961 L146,796.9961 " fill="#FEFFDD" style="stroke:#181818;stroke-width:0.5;"/><path d="M317,796.9961 L317,806.9961 L327,806.9961 L317,796.9961 " fill="#FEFFDD" style="stroke:#181818;stroke-width:0.5;"/><text fill="#000000" font-family="sans-serif" font-size="13" lengthAdjust="spacing" textLength="140.2134" x="152" y="816.0244">The default of the above</text><text fill="#000000" font-family="sans-serif" font-size="13" lengthAdjust="spacing" textLength="154.6226" x="152" y="833.3154">switch case also throws an</text><text fill="#000000" font-family="sans-serif" font-size="13" lengthAdjust="spacing" textLength="134.437" x="152" y="850.6064">exception but has been</text><text fill="#000000" font-family="sans-serif" font-size="13" lengthAdjust="spacing" textLength="160.418" x="152" y="867.8975">omitted to prevent cluttering</text><line style="stroke:#181818;stroke-width:1.0;stroke-dasharray:2.0,2.0;" x1="141.6343" x2="183.6343" y1="892.1602" y2="892.1602"/><line style="stroke:#181818;stroke-width:1.0;stroke-dasharray:2.0,2.0;" x1="183.6343" x2="183.6343" y1="892.1602" y2="905.1602"/><line style="stroke:#181818;stroke-width:1.0;stroke-dasharray:2.0,2.0;" x1="136.6343" x2="183.6343" y1="905.1602" y2="905.1602"/><polygon fill="#181818" points="146.6343,901.1602,136.6343,905.1602,146.6343,909.1602,142.6343,905.1602" style="stroke:#181818;stroke-width:1.0;"/><line style="stroke:#181818;stroke-width:1.0;stroke-dasharray:2.0,2.0;" x1="136.6343" x2="178.6343" y1="919.1602" y2="919.1602"/><line style="stroke:#181818;stroke-width:1.0;stroke-dasharray:2.0,2.0;" x1="178.6343" x2="178.6343" y1="919.1602" y2="932.1602"/><line style="stroke:#181818;stroke-width:1.0;stroke-dasharray:2.0,2.0;" x1="131.6343" x2="178.6343" y1="932.1602" y2="932.1602"/><polygon fill="#181818" points="141.6343,928.1602,131.6343,932.1602,141.6343,936.1602,137.6343,932.1602" style="stroke:#181818;stroke-width:1.0;"/><polygon fill="#181818" points="48.7793,937.1602,38.7793,941.1602,48.7793,945.1602,44.7793,941.1602" style="stroke:#181818;stroke-width:1.0;"/><line style="stroke:#181818;stroke-width:1.0;stroke-dasharray:2.0,2.0;" x1="42.7793" x2="125.6343" y1="941.1602" y2="941.1602"/><!--SRC=[pPLDRvj048Rl-oicdDn3BBL794ToQAf4RPEgJT93LKNBCfXLOGVj3hRxxxDWMW5hHqxJGv3us9btFdYq358nMRXpQ46wxYuAdI7aH9pILjJIibQwbeOXAL3zIgYgfCbQTHGFBT58-yLgmxkaKTmlneg4jCbBNLzi5TQioVGff-P8YAwzqxDH0p7W5bN3E7iZf6AzbemZWH1Yr70GhzhLmUWZOg-RAaLxatydcxdPfhqUoaOrGoUObsXMNC390ju9PR5JJbyvB1wmYaFRBB3CaykBvEF3rVNzyjFL-uSFDry_Bs-7BOQ5WqAdldotBJ9y8Wu3OXDae_1dSjwX_V7svo6wikpfUWqi5X2bifH6OIJ07qTKED_f_MPe0_ONsPUgtzWnrEt3WIozg3F- -Im2FArpW6WOypJNIU38XwN32HZauw4WlnG8yhAYnl1hHb9evqVWxwEnNExqBqJpZIMxLuJ5duQyrUfLmK3vs7rRe0_DPLDsFlPBcT8QGRYDPbM0aXwhB1rvdwMD0sb0uDyXaZOCXH_lAQAtKwMPCGCcpmBNw7y6gcoyoR_Agcq5sbR-SPxybp6qR-OD18y0]--></g></svg>