<svg xmlns="http://www.w3.org/2000/svg" xmlns:xlink="http://www.w3.org/1999/xlink" contentStyleType="text/css" height="417.6px" preserveAspectRatio="none" style="width:416px;height:417px;background:#FFFFFF;" version="1.1" viewBox="0 0 416 417" width="416.4px" zoomAndPan="magnify"><defs/><g><rect fill="#FFFFFF" height="156.6984" style="stroke:#181818;stroke-width:1.2;" width="12" x="118.1543" y="140.2945"/><rect fill="#FFFFFF" height="30" style="stroke:#181818;stroke-width:1.2;" width="12" x="124.1543" y="187.4438"/><rect fill="#FFFFFF" height="16.8" style="stroke:#181818;stroke-width:1.2;" width="12" x="368.7316" y="263.393"/><line style="stroke:#181818;stroke-width:0.6;stroke-dasharray:5.0,5.0;" x1="26.4" x2="26.4" y1="100.3453" y2="318.593"/><line style="stroke:#181818;stroke-width:0.6;stroke-dasharray:5.0,5.0;" x1="123.0703" x2="123.0703" y1="100.3453" y2="318.593"/><line style="stroke:#181818;stroke-width:0.6;stroke-dasharray:5.0,5.0;" x1="374.0572" x2="374.0572" y1="100.3453" y2="318.593"/><text fill="#000000" font-family="sans-serif" font-size="16.8" lengthAdjust="spacing" textLength="35.4703" x="6" y="96.1289">User</text><ellipse cx="27.3352" cy="16.2" fill="#E2E2F0" rx="9.6" ry="9.6" style="stroke:#181818;stroke-width:0.6;"/><path d="M27.3352,25.8 L27.3352,58.2 M11.7352,35.4 L42.9352,35.4 M27.3352,58.2 L11.7352,76.2 M27.3352,58.2 L42.9352,76.2 " fill="none" style="stroke:#181818;stroke-width:0.6;"/><text fill="#000000" font-family="sans-serif" font-size="16.8" lengthAdjust="spacing" textLength="35.4703" x="6" y="335.5219">User</text><ellipse cx="27.3352" cy="349.9383" fill="#E2E2F0" rx="9.6" ry="9.6" style="stroke:#181818;stroke-width:0.6;"/><path d="M27.3352,359.5383 L27.3352,391.9383 M11.7352,369.1383 L42.9352,369.1383 M27.3352,391.9383 L11.7352,409.9383 M27.3352,391.9383 L42.9352,409.9383 " fill="none" style="stroke:#181818;stroke-width:0.6;"/><rect fill="#E2E2F0" height="39.1453" rx="3" ry="3" style="stroke:#181818;stroke-width:0.6;" width="126.968" x="60.6703" y="60"/><text fill="#000000" font-family="sans-serif" font-size="16.8" lengthAdjust="spacing" textLength="110.168" x="69.0703" y="86.5289">:ExitCommand</text><rect fill="#E2E2F0" height="39.1453" rx="3" ry="3" style="stroke:#181818;stroke-width:0.6;" width="126.968" x="60.6703" y="317.393"/><text fill="#000000" font-family="sans-serif" font-size="16.8" lengthAdjust="spacing" textLength="110.168" x="69.0703" y="343.9219">:ExitCommand</text><rect fill="#E2E2F0" height="39.1453" rx="3" ry="3" style="stroke:#181818;stroke-width:0.6;" width="70.9488" x="339.2572" y="60"/><text fill="#000000" font-family="sans-serif" font-size="16.8" lengthAdjust="spacing" textLength="54.1488" x="347.6572" y="86.5289">:Printer</text><rect fill="#E2E2F0" height="39.1453" rx="3" ry="3" style="stroke:#181818;stroke-width:0.6;" width="70.9488" x="339.2572" y="317.393"/><text fill="#000000" font-family="sans-serif" font-size="16.8" lengthAdjust="spacing" textLength="54.1488" x="347.6572" y="343.9219">:Printer</text><rect fill="#FFFFFF" height="156.6984" style="stroke:#181818;stroke-width:1.2;" width="12" x="118.1543" y="140.2945"/><rect fill="#FFFFFF" height="30" style="stroke:#181818;stroke-width:1.2;" width="12" x="124.1543" y="187.4438"/><rect fill="#FFFFFF" height="16.8" style="stroke:#181818;stroke-width:1.2;" width="12" x="368.7316" y="263.393"/><polygon fill="#181818" points="103.7543,135.4945,115.7543,140.2945,103.7543,145.0945,108.5543,140.2945" style="stroke:#181818;stroke-width:1.2;"/><line style="stroke:#181818;stroke-width:1.2;" x1="27.3352" x2="110.9543" y1="140.2945" y2="140.2945"/><text fill="#000000" font-family="sans-serif" font-size="15.6" lengthAdjust="spacing" textLength="65.0279" x="35.7352" y="133.9793">execute()</text><line style="stroke:#181818;stroke-width:1.2;" x1="130.1543" x2="186.5543" y1="171.8438" y2="171.8438"/><line style="stroke:#181818;stroke-width:1.2;" x1="186.5543" x2="186.5543" y1="171.8438" y2="187.4438"/><line style="stroke:#181818;stroke-width:1.2;" x1="137.3543" x2="186.5543" y1="187.4438" y2="187.4438"/><polygon fill="#181818" points="149.3543,182.6437,137.3543,187.4438,149.3543,192.2438,144.5543,187.4438" style="stroke:#181818;stroke-width:1.2;"/><text fill="#000000" font-family="sans-serif" font-size="15.6" lengthAdjust="spacing" textLength="209.7773" x="144.5543" y="165.5285">checkNumberOfWords(words)</text><line style="stroke:#181818;stroke-width:1.2;stroke-dasharray:2.0,2.0;" x1="136.1543" x2="186.5543" y1="216.2438" y2="216.2438"/><line style="stroke:#181818;stroke-width:1.2;stroke-dasharray:2.0,2.0;" x1="186.5543" x2="186.5543" y1="216.2438" y2="231.8438"/><line style="stroke:#181818;stroke-width:1.2;stroke-dasharray:2.0,2.0;" x1="130.1543" x2="186.5543" y1="231.8438" y2="231.8438"/><polygon fill="#181818" points="142.1543,227.0438,130.1543,231.8438,142.1543,236.6437,137.3543,231.8438" style="stroke:#181818;stroke-width:1.2;"/><polygon fill="#181818" points="354.3316,258.593,366.3316,263.393,354.3316,268.193,359.1316,263.393" style="stroke:#181818;stroke-width:1.2;"/><line style="stroke:#181818;stroke-width:1.2;" x1="130.1543" x2="361.5316" y1="263.393" y2="263.393"/><text fill="#000000" font-family="sans-serif" font-size="15.6" lengthAdjust="spacing" textLength="67.6178" x="138.5543" y="257.0777">printBye()</text><polygon fill="#181818" points="143.3543,275.393,131.3543,280.193,143.3543,284.993,138.5543,280.193" style="stroke:#181818;stroke-width:1.2;"/><line style="stroke:#181818;stroke-width:1.2;stroke-dasharray:2.0,2.0;" x1="136.1543" x2="373.5316" y1="280.193" y2="280.193"/><polygon fill="#181818" points="40.5352,292.193,28.5352,296.993,40.5352,301.793,35.7352,296.993" style="stroke:#181818;stroke-width:1.2;"/><line style="stroke:#181818;stroke-width:1.2;stroke-dasharray:2.0,2.0;" x1="33.3352" x2="122.9543" y1="296.993" y2="296.993"/><!--SRC=[VP2_3i8W4CRtUmh2L0TVWC51uweknlc4Cn9J873L-lQ6sYRGL1V-VNU_xpjGiu_Yd2WAJCCE0IDRRGCw5llUyiwtBJgJTQcA1rbLdg9r_AL8DLuam41URqgG4jIJxfYQ5Q1c-qIcKWU0qdRUhE-a7uUklL8ytYu-cjIyyle3Lg5g5XXQzf_PZzCe4V9X-ww2Zo9Cy__nc4hdaOPVNyxo0G00]--></g></svg>