<svg xmlns="http://www.w3.org/2000/svg" xmlns:xlink="http://www.w3.org/1999/xlink" contentStyleType="text/css" height="363px" preserveAspectRatio="none" style="width:656px;height:363px;background:#FFFFFF;" version="1.1" viewBox="0 0 656 363" width="656px" zoomAndPan="magnify"><defs/><g><rect fill="#FFFFFF" height="221.4941" style="stroke:#181818;stroke-width:1.0;" width="10" x="113.4619" y="116.9121"/><rect fill="#FFFFFF" height="115.9121" style="stroke:#181818;stroke-width:1.0;" width="10" x="118.4619" y="156.2031"/><rect fill="#FFFFFF" height="14" style="stroke:#181818;stroke-width:1.0;" width="10" x="322.2764" y="310.4063"/><rect fill="#FFFFFF" height="16.3301" style="stroke:#181818;stroke-width:1.0;" width="10" x="572.4614" y="228.7852"/><rect fill="none" height="76.9121" style="stroke:#000000;stroke-width:1.5;" width="640.4922" x="10" y="176.2031"/><line style="stroke:#181818;stroke-width:0.5;stroke-dasharray:5.0,5.0;" x1="37" x2="37" y1="83.6211" y2="356.4063"/><line style="stroke:#181818;stroke-width:0.5;stroke-dasharray:5.0,5.0;" x1="117.5586" x2="117.5586" y1="83.6211" y2="356.4063"/><line style="stroke:#181818;stroke-width:0.5;stroke-dasharray:5.0,5.0;" x1="326.7144" x2="326.7144" y1="83.6211" y2="356.4063"/><line style="stroke:#181818;stroke-width:0.5;stroke-dasharray:5.0,5.0;" x1="577.4307" x2="577.4307" y1="227.3047" y2="356.4063"/><text fill="#000000" font-family="sans-serif" font-size="14" lengthAdjust="spacing" textLength="29.5586" x="20" y="80.1074">User</text><ellipse cx="37.7793" cy="13.5" fill="#E2E2F0" rx="8" ry="8" style="stroke:#181818;stroke-width:0.5;"/><path d="M37.7793,21.5 L37.7793,48.5 M24.7793,29.5 L50.7793,29.5 M37.7793,48.5 L24.7793,63.5 M37.7793,48.5 L50.7793,63.5 " fill="none" style="stroke:#181818;stroke-width:0.5;"/><rect fill="#E2E2F0" height="32.6211" rx="2.5" ry="2.5" style="stroke:#181818;stroke-width:0.5;" width="105.8066" x="65.5586" y="50"/><text fill="#000000" font-family="sans-serif" font-size="14" lengthAdjust="spacing" textLength="91.8066" x="72.5586" y="72.1074">:ExitCommand</text><rect fill="#E2E2F0" height="32.6211" rx="2.5" ry="2.5" style="stroke:#181818;stroke-width:0.5;" width="59.124" x="297.7144" y="50"/><text fill="#000000" font-family="sans-serif" font-size="14" lengthAdjust="spacing" textLength="45.124" x="304.7144" y="72.1074">:Printer</text><rect fill="#FFFFFF" height="221.4941" style="stroke:#181818;stroke-width:1.0;" width="10" x="113.4619" y="116.9121"/><rect fill="#FFFFFF" height="115.9121" style="stroke:#181818;stroke-width:1.0;" width="10" x="118.4619" y="156.2031"/><rect fill="#FFFFFF" height="14" style="stroke:#181818;stroke-width:1.0;" width="10" x="322.2764" y="310.4063"/><rect fill="#FFFFFF" height="16.3301" style="stroke:#181818;stroke-width:1.0;" width="10" x="572.4614" y="228.7852"/><polygon fill="#181818" points="101.4619,112.9121,111.4619,116.9121,101.4619,120.9121,105.4619,116.9121" style="stroke:#181818;stroke-width:1.0;"/><line style="stroke:#181818;stroke-width:1.0;" x1="37.7793" x2="107.4619" y1="116.9121" y2="116.9121"/><text fill="#000000" font-family="sans-serif" font-size="13" lengthAdjust="spacing" textLength="54.1899" x="44.7793" y="111.6494">execute()</text><line style="stroke:#181818;stroke-width:1.0;" x1="123.4619" x2="170.4619" y1="143.2031" y2="143.2031"/><line style="stroke:#181818;stroke-width:1.0;" x1="170.4619" x2="170.4619" y1="143.2031" y2="156.2031"/><line style="stroke:#181818;stroke-width:1.0;" x1="129.4619" x2="170.4619" y1="156.2031" y2="156.2031"/><polygon fill="#181818" points="139.4619,152.2031,129.4619,156.2031,139.4619,160.2031,135.4619,156.2031" style="stroke:#181818;stroke-width:1.0;"/><text fill="#000000" font-family="sans-serif" font-size="13" lengthAdjust="spacing" textLength="174.8145" x="135.4619" y="137.9404">checkNumberOfWords(words)</text><path d="M10,176.2031 L75.2109,176.2031 L75.2109,185.4941 L65.2109,195.4941 L10,195.4941 L10,176.2031 " fill="#EEEEEE" style="stroke:#000000;stroke-width:1.5;"/><rect fill="none" height="76.9121" style="stroke:#000000;stroke-width:1.5;" width="640.4922" x="10" y="176.2031"/><text fill="#000000" font-family="sans-serif" font-size="13" font-weight="bold" lengthAdjust="spacing" textLength="20.2109" x="25" y="191.2314">opt</text><text fill="#000000" font-family="sans-serif" font-size="11" font-weight="bold" lengthAdjust="spacing" textLength="98.0869" x="90.2109" y="190.0732">[words.length != 1]</text><polygon fill="#181818" points="502.4307,214.7852,512.4307,218.7852,502.4307,222.7852,506.4307,218.7852" style="stroke:#181818;stroke-width:1.0;"/><line style="stroke:#181818;stroke-width:1.0;" x1="128.4619" x2="508.4307" y1="218.7852" y2="218.7852"/><text fill="#000000" font-family="sans-serif" font-size="13" lengthAdjust="spacing" textLength="361.9688" x="135.4619" y="213.5225">CoinflipException(CoinflipException.EXIT_INVALID_FORMAT)</text><rect fill="#E2E2F0" height="32.6211" rx="2.5" ry="2.5" style="stroke:#181818;stroke-width:0.5;" width="126.0615" x="514.4307" y="195.4941"/><text fill="#000000" font-family="sans-serif" font-size="14" lengthAdjust="spacing" textLength="112.0615" x="521.4307" y="217.6016">:CoinflipException</text><polygon fill="#181818" points="48.7793,241.1152,38.7793,245.1152,48.7793,249.1152,44.7793,245.1152" style="stroke:#181818;stroke-width:1.0;"/><line style="stroke:#181818;stroke-width:1.0;stroke-dasharray:2.0,2.0;" x1="42.7793" x2="576.4614" y1="245.1152" y2="245.1152"/><line style="stroke:#181818;stroke-width:1.0;stroke-dasharray:2.0,2.0;" x1="128.4619" x2="170.4619" y1="271.1152" y2="271.1152"/><line style="stroke:#181818;stroke-width:1.0;stroke-dasharray:2.0,2.0;" x1="170.4619" x2="170.4619" y1="271.1152" y2="284.1152"/><line style="stroke:#181818;stroke-width:1.0;stroke-dasharray:2.0,2.0;" x1="123.4619" x2="170.4619" y1="284.1152" y2="284.1152"/><polygon fill="#181818" points="133.4619,280.1152,123.4619,284.1152,133.4619,288.1152,129.4619,284.1152" style="stroke:#181818;stroke-width:1.0;"/><polygon fill="#181818" points="310.2764,306.4063,320.2764,310.4063,310.2764,314.4063,314.2764,310.4063" style="stroke:#181818;stroke-width:1.0;"/><line style="stroke:#181818;stroke-width:1.0;" x1="123.4619" x2="316.2764" y1="310.4063" y2="310.4063"/><text fill="#000000" font-family="sans-serif" font-size="13" lengthAdjust="spacing" textLength="56.3481" x="130.4619" y="305.1436">printBye()</text><polygon fill="#181818" points="134.4619,320.4063,124.4619,324.4063,134.4619,328.4063,130.4619,324.4063" style="stroke:#181818;stroke-width:1.0;"/><line style="stroke:#181818;stroke-width:1.0;stroke-dasharray:2.0,2.0;" x1="128.4619" x2="326.2764" y1="324.4063" y2="324.4063"/><polygon fill="#181818" points="48.7793,334.4063,38.7793,338.4063,48.7793,342.4063,44.7793,338.4063" style="stroke:#181818;stroke-width:1.0;"/><line style="stroke:#181818;stroke-width:1.0;stroke-dasharray:2.0,2.0;" x1="42.7793" x2="117.4619" y1="338.4063" y2="338.4063"/><!--SRC=[VLBBRi8m4BplLxWvfGUGk4Pg9KfJAL8BLKKVDsIS3R5ARCjPslJlIqAG_11S_9YTtPdrcWlIbhstQ1blXnrgMIAhjAQjxi1mIr98mnMnl9Eqq4t3LTcJaym14e_vQgMYKyaa6oy-Ow6bglRIv9r0GrAh4pU24u31tEJUbSyOTYWEXEajS47oXnEwSG1mpOR9eaRnlJmqMxIhwbFRiar_-_L2CMs83V7f7jMEQdPpnsOWBFR4o76e77UQnLWQ8TFygrXlYkN7_Bbut3ojtbxcQyTVB1lhJ8xgmqHBl9A7nmuzo_vhkSdU2mTjZbFEcEaF3t_UQCOWdF_55OqpDRGKDkB4_m40]--></g></svg>