<svg xmlns="http://www.w3.org/2000/svg" xmlns:xlink="http://www.w3.org/1999/xlink" contentStyleType="text/css" height="752px" preserveAspectRatio="none" style="width:1020px;height:752px;background:#FFFFFF;" version="1.1" viewBox="0 0 1020 752" width="1020px" zoomAndPan="magnify"><defs/><g><rect fill="#FFFFFF" height="534.7051" style="stroke:#181818;stroke-width:1.0;" width="10" x="199.1504" y="116.9121"/><rect fill="#FFFFFF" height="472.123" style="stroke:#181818;stroke-width:1.0;" width="10" x="500.3887" y="148.2031"/><rect fill="#FFFFFF" height="31.291" style="stroke:#181818;stroke-width:1.0;" width="10" x="777.9292" y="557.7441"/><rect fill="none" height="364.25" style="stroke:#000000;stroke-width:1.5;" width="570.812" x="442.875" y="163.2031"/><line style="stroke:#181818;stroke-width:0.5;stroke-dasharray:5.0,5.0;" x1="22" x2="22" y1="83.6211" y2="669.6172"/><line style="stroke:#181818;stroke-width:0.5;stroke-dasharray:5.0,5.0;" x1="203.5884" x2="203.5884" y1="83.6211" y2="669.6172"/><line style="stroke:#181818;stroke-width:0.5;stroke-dasharray:5.0,5.0;" x1="504.875" x2="504.875" y1="83.6211" y2="669.6172"/><line style="stroke:#181818;stroke-width:0.5;stroke-dasharray:5.0,5.0;" x1="782.4673" x2="782.4673" y1="83.6211" y2="669.6172"/><line style="stroke:#181818;stroke-width:0.5;stroke-dasharray:5.0,5.0;" x1="855.3911" x2="855.3911" y1="83.6211" y2="669.6172"/><line style="stroke:#181818;stroke-width:0.5;stroke-dasharray:5.0,5.0;" x1="949.5151" x2="949.5151" y1="83.6211" y2="669.6172"/><text fill="#000000" font-family="sans-serif" font-size="14" lengthAdjust="spacing" textLength="29.5586" x="5" y="80.1074">User</text><ellipse cx="22.7793" cy="13.5" fill="#E2E2F0" rx="8" ry="8" style="stroke:#181818;stroke-width:0.5;"/><path d="M22.7793,21.5 L22.7793,48.5 M9.7793,29.5 L35.7793,29.5 M22.7793,48.5 L9.7793,63.5 M22.7793,48.5 L35.7793,63.5 " fill="none" style="stroke:#181818;stroke-width:0.5;"/><text fill="#000000" font-family="sans-serif" font-size="14" lengthAdjust="spacing" textLength="29.5586" x="5" y="683.7246">User</text><ellipse cx="22.7793" cy="695.7383" fill="#E2E2F0" rx="8" ry="8" style="stroke:#181818;stroke-width:0.5;"/><path d="M22.7793,703.7383 L22.7793,730.7383 M9.7793,711.7383 L35.7793,711.7383 M22.7793,730.7383 L9.7793,745.7383 M22.7793,730.7383 L35.7793,745.7383 " fill="none" style="stroke:#181818;stroke-width:0.5;"/><rect fill="#E2E2F0" height="32.6211" rx="2.5" ry="2.5" style="stroke:#181818;stroke-width:0.5;" width="59.124" x="174.5884" y="50"/><text fill="#000000" font-family="sans-serif" font-size="14" lengthAdjust="spacing" textLength="45.124" x="181.5884" y="72.1074">:Parser</text><rect fill="#E2E2F0" height="32.6211" rx="2.5" ry="2.5" style="stroke:#181818;stroke-width:0.5;" width="59.124" x="174.5884" y="668.6172"/><text fill="#000000" font-family="sans-serif" font-size="14" lengthAdjust="spacing" textLength="45.124" x="181.5884" y="690.7246">:Parser</text><rect fill="#E2E2F0" height="32.6211" rx="2.5" ry="2.5" style="stroke:#181818;stroke-width:0.5;" width="105.0273" x="452.875" y="50"/><text fill="#000000" font-family="sans-serif" font-size="14" lengthAdjust="spacing" textLength="91.0273" x="459.875" y="72.1074">:FlipCommand</text><rect fill="#E2E2F0" height="32.6211" rx="2.5" ry="2.5" style="stroke:#181818;stroke-width:0.5;" width="105.0273" x="452.875" y="668.6172"/><text fill="#000000" font-family="sans-serif" font-size="14" lengthAdjust="spacing" textLength="91.0273" x="459.875" y="690.7246">:FlipCommand</text><rect fill="#E2E2F0" height="32.6211" rx="2.5" ry="2.5" style="stroke:#181818;stroke-width:0.5;" width="66.9238" x="749.4673" y="50"/><text fill="#000000" font-family="sans-serif" font-size="14" lengthAdjust="spacing" textLength="52.9238" x="756.4673" y="72.1074">:Storage</text><rect fill="#E2E2F0" height="32.6211" rx="2.5" ry="2.5" style="stroke:#181818;stroke-width:0.5;" width="66.9238" x="749.4673" y="668.6172"/><text fill="#000000" font-family="sans-serif" font-size="14" lengthAdjust="spacing" textLength="52.9238" x="756.4673" y="690.7246">:Storage</text><rect fill="#E2E2F0" height="32.6211" rx="2.5" ry="2.5" style="stroke:#181818;stroke-width:0.5;" width="59.124" x="826.3911" y="50"/><text fill="#000000" font-family="sans-serif" font-size="14" lengthAdjust="spacing" textLength="45.124" x="833.3911" y="72.1074">:Printer</text><rect fill="#E2E2F0" height="32.6211" rx="2.5" ry="2.5" style="stroke:#181818;stroke-width:0.5;" width="59.124" x="826.3911" y="668.6172"/><text fill="#000000" font-family="sans-serif" font-size="14" lengthAdjust="spacing" textLength="45.124" x="833.3911" y="690.7246">:Printer</text><rect fill="#E2E2F0" height="32.6211" rx="2.5" ry="2.5" style="stroke:#181818;stroke-width:0.5;" width="108.1719" x="895.5151" y="50"/><text fill="#000000" font-family="sans-serif" font-size="14" lengthAdjust="spacing" textLength="94.1719" x="902.5151" y="72.1074">:CoinflipLogger</text><rect fill="#E2E2F0" height="32.6211" rx="2.5" ry="2.5" style="stroke:#181818;stroke-width:0.5;" width="108.1719" x="895.5151" y="668.6172"/><text fill="#000000" font-family="sans-serif" font-size="14" lengthAdjust="spacing" textLength="94.1719" x="902.5151" y="690.7246">:CoinflipLogger</text><rect fill="#FFFFFF" height="534.7051" style="stroke:#181818;stroke-width:1.0;" width="10" x="199.1504" y="116.9121"/><rect fill="#FFFFFF" height="472.123" style="stroke:#181818;stroke-width:1.0;" width="10" x="500.3887" y="148.2031"/><rect fill="#FFFFFF" height="31.291" style="stroke:#181818;stroke-width:1.0;" width="10" x="777.9292" y="557.7441"/><polygon fill="#181818" points="187.1504,112.9121,197.1504,116.9121,187.1504,120.9121,191.1504,116.9121" style="stroke:#181818;stroke-width:1.0;"/><line style="stroke:#181818;stroke-width:1.0;" x1="22.7793" x2="193.1504" y1="116.9121" y2="116.9121"/><text fill="#000000" font-family="sans-serif" font-size="13" lengthAdjust="spacing" textLength="157.3711" x="29.7793" y="111.6494">input command "flip heads"</text><polygon fill="#181818" points="488.3887,144.2031,498.3887,148.2031,488.3887,152.2031,492.3887,148.2031" style="stroke:#181818;stroke-width:1.0;"/><line style="stroke:#181818;stroke-width:1.0;" x1="209.1504" x2="494.3887" y1="148.2031" y2="148.2031"/><text fill="#000000" font-family="sans-serif" font-size="13" lengthAdjust="spacing" textLength="272.2383" x="216.1504" y="142.9404">new FlipCommand("heads", userData, storage)</text><path d="M442.875,163.2031 L503.0459,163.2031 L503.0459,172.4941 L493.0459,182.4941 L442.875,182.4941 L442.875,163.2031 " fill="#EEEEEE" style="stroke:#000000;stroke-width:1.5;"/><rect fill="none" height="364.25" style="stroke:#000000;stroke-width:1.5;" width="570.812" x="442.875" y="163.2031"/><text fill="#000000" font-family="sans-serif" font-size="13" font-weight="bold" lengthAdjust="spacing" textLength="15.1709" x="457.875" y="178.2314">alt</text><text fill="#000000" font-family="sans-serif" font-size="11" font-weight="bold" lengthAdjust="spacing" textLength="89.23" x="518.0459" y="177.0732">[outcome is true]</text><line style="stroke:#181818;stroke-width:1.0;" x1="510.3887" x2="552.3887" y1="205.7852" y2="205.7852"/><line style="stroke:#181818;stroke-width:1.0;" x1="552.3887" x2="552.3887" y1="205.7852" y2="218.7852"/><line style="stroke:#181818;stroke-width:1.0;" x1="511.3887" x2="552.3887" y1="218.7852" y2="218.7852"/><polygon fill="#181818" points="521.3887,214.7852,511.3887,218.7852,521.3887,222.7852,517.3887,218.7852" style="stroke:#181818;stroke-width:1.0;"/><text fill="#000000" font-family="sans-serif" font-size="13" lengthAdjust="spacing" textLength="243.5405" x="517.3887" y="200.5225">userData.balance += userData.betAmount</text><line style="stroke:#181818;stroke-width:1.0;" x1="510.3887" x2="552.3887" y1="250.0762" y2="250.0762"/><line style="stroke:#181818;stroke-width:1.0;" x1="552.3887" x2="552.3887" y1="250.0762" y2="263.0762"/><line style="stroke:#181818;stroke-width:1.0;" x1="511.3887" x2="552.3887" y1="263.0762" y2="263.0762"/><polygon fill="#181818" points="521.3887,259.0762,511.3887,263.0762,521.3887,267.0762,517.3887,263.0762" style="stroke:#181818;stroke-width:1.0;"/><text fill="#000000" font-family="sans-serif" font-size="13" lengthAdjust="spacing" textLength="114.8735" x="517.3887" y="244.8135">increaseWinCount()</text><line style="stroke:#181818;stroke-width:1.0;" x1="510.3887" x2="552.3887" y1="294.3672" y2="294.3672"/><line style="stroke:#181818;stroke-width:1.0;" x1="552.3887" x2="552.3887" y1="294.3672" y2="307.3672"/><line style="stroke:#181818;stroke-width:1.0;" x1="511.3887" x2="552.3887" y1="307.3672" y2="307.3672"/><polygon fill="#181818" points="521.3887,303.3672,511.3887,307.3672,521.3887,311.3672,517.3887,307.3672" style="stroke:#181818;stroke-width:1.0;"/><text fill="#000000" font-family="sans-serif" font-size="13" lengthAdjust="spacing" textLength="232.6606" x="517.3887" y="289.1045">increaseTotalWon(userData.betAmount)</text><polygon fill="#181818" points="937.6011,334.6582,947.6011,338.6582,937.6011,342.6582,941.6011,338.6582" style="stroke:#181818;stroke-width:1.0;"/><line style="stroke:#181818;stroke-width:1.0;" x1="510.3887" x2="943.6011" y1="338.6582" y2="338.6582"/><text fill="#000000" font-family="sans-serif" font-size="13" lengthAdjust="spacing" textLength="108.2021" x="517.3887" y="333.3955">info("User won ...")</text><line style="stroke:#000000;stroke-width:1.0;stroke-dasharray:2.0,2.0;" x1="442.875" x2="1013.687" y1="347.6582" y2="347.6582"/><text fill="#000000" font-family="sans-serif" font-size="11" font-weight="bold" lengthAdjust="spacing" textLength="93.5215" x="447.875" y="359.5283">[outcome is false]</text><line style="stroke:#181818;stroke-width:1.0;" x1="510.3887" x2="552.3887" y1="386.5801" y2="386.5801"/><line style="stroke:#181818;stroke-width:1.0;" x1="552.3887" x2="552.3887" y1="386.5801" y2="399.5801"/><line style="stroke:#181818;stroke-width:1.0;" x1="511.3887" x2="552.3887" y1="399.5801" y2="399.5801"/><polygon fill="#181818" points="521.3887,395.5801,511.3887,399.5801,521.3887,403.5801,517.3887,399.5801" style="stroke:#181818;stroke-width:1.0;"/><text fill="#000000" font-family="sans-serif" font-size="13" lengthAdjust="spacing" textLength="240.2778" x="517.3887" y="381.3174">userData.balance -= userData.betAmount</text><line style="stroke:#181818;stroke-width:1.0;" x1="510.3887" x2="552.3887" y1="430.8711" y2="430.8711"/><line style="stroke:#181818;stroke-width:1.0;" x1="552.3887" x2="552.3887" y1="430.8711" y2="443.8711"/><line style="stroke:#181818;stroke-width:1.0;" x1="511.3887" x2="552.3887" y1="443.8711" y2="443.8711"/><polygon fill="#181818" points="521.3887,439.8711,511.3887,443.8711,521.3887,447.8711,517.3887,443.8711" style="stroke:#181818;stroke-width:1.0;"/><text fill="#000000" font-family="sans-serif" font-size="13" lengthAdjust="spacing" textLength="120.6753" x="517.3887" y="425.6084">increaseLoseCount()</text><line style="stroke:#181818;stroke-width:1.0;" x1="510.3887" x2="552.3887" y1="475.1621" y2="475.1621"/><line style="stroke:#181818;stroke-width:1.0;" x1="552.3887" x2="552.3887" y1="475.1621" y2="488.1621"/><line style="stroke:#181818;stroke-width:1.0;" x1="511.3887" x2="552.3887" y1="488.1621" y2="488.1621"/><polygon fill="#181818" points="521.3887,484.1621,511.3887,488.1621,521.3887,492.1621,517.3887,488.1621" style="stroke:#181818;stroke-width:1.0;"/><text fill="#000000" font-family="sans-serif" font-size="13" lengthAdjust="spacing" textLength="230.5024" x="517.3887" y="469.8994">increaseTotalLost(userData.betAmount)</text><polygon fill="#181818" points="937.6011,515.4531,947.6011,519.4531,937.6011,523.4531,941.6011,519.4531" style="stroke:#181818;stroke-width:1.0;"/><line style="stroke:#181818;stroke-width:1.0;" x1="510.3887" x2="943.6011" y1="519.4531" y2="519.4531"/><text fill="#000000" font-family="sans-serif" font-size="13" lengthAdjust="spacing" textLength="104.584" x="517.3887" y="514.1904">info("User lost ...")</text><polygon fill="#181818" points="765.9292,553.7441,775.9292,557.7441,765.9292,561.7441,769.9292,557.7441" style="stroke:#181818;stroke-width:1.0;"/><line style="stroke:#181818;stroke-width:1.0;" x1="510.3887" x2="771.9292" y1="557.7441" y2="557.7441"/><text fill="#000000" font-family="sans-serif" font-size="13" lengthAdjust="spacing" textLength="116.3271" x="517.3887" y="552.4814">saveData(userData)</text><line style="stroke:#181818;stroke-width:1.0;" x1="511.3887" x2="521.3887" y1="589.0352" y2="585.0352"/><line style="stroke:#181818;stroke-width:1.0;" x1="511.3887" x2="521.3887" y1="589.0352" y2="593.0352"/><line style="stroke:#181818;stroke-width:1.0;stroke-dasharray:2.0,2.0;" x1="510.3887" x2="781.9292" y1="589.0352" y2="589.0352"/><text fill="#000000" font-family="sans-serif" font-size="13" lengthAdjust="spacing" textLength="63.6035" x="527.3887" y="583.7725">data saved</text><polygon fill="#181818" points="843.9531,616.3262,853.9531,620.3262,843.9531,624.3262,847.9531,620.3262" style="stroke:#181818;stroke-width:1.0;"/><line style="stroke:#181818;stroke-width:1.0;" x1="505.3887" x2="849.9531" y1="620.3262" y2="620.3262"/><text fill="#000000" font-family="sans-serif" font-size="13" lengthAdjust="spacing" textLength="102.5781" x="512.3887" y="615.0635">printFlipResult(...)</text><line style="stroke:#181818;stroke-width:1.0;" x1="23.7793" x2="33.7793" y1="651.6172" y2="647.6172"/><line style="stroke:#181818;stroke-width:1.0;" x1="23.7793" x2="33.7793" y1="651.6172" y2="655.6172"/><line style="stroke:#181818;stroke-width:1.0;stroke-dasharray:2.0,2.0;" x1="22.7793" x2="203.1504" y1="651.6172" y2="651.6172"/><text fill="#000000" font-family="sans-serif" font-size="13" lengthAdjust="spacing" textLength="113.4517" x="39.7793" y="646.3545">command executed</text><!--SRC=[fLFDJiCm3BxdAQoSMa7x09MOX8OuxJ01qywczKQaBgaQT-FnITfq99k469oQEj-FloJ6caqF6qize1s_eiEULQqwr0nhxCEMhAQrJFQVMzKjpU60kfb0KI55lZeVtDE42ZyfOjqhpMUpwIT5B8tIEsUmCllz34nhKeWnIx48hLUWT3SmrA59wR7mGTXOAR1cTKIcW1KYn7NiA4S5cavn8PCJ_nu6Xtv2ndkmKwByMpCY284jWndOTK6WB70_a8ZFxj9n5YxViKLT4zmzH3NYnuCPDFyeeNJT4rhQAhtqu2p_5VpDCBPRexDhkok1zEoznivaSho0az5GbgNC1RMMukmxT8NRmXT_3hyobcvExqZyp_YjavZp-_k_O8RtNu758tcNirtqW098p9DJ58kBhXj762KQqT0Lxz8qZ5G5dL_upHUoGykPwpEF1PANEu-4Dz-C0pMF4drIFN3gFQ6_0000]--></g></svg>