<svg xmlns="http://www.w3.org/2000/svg" xmlns:xlink="http://www.w3.org/1999/xlink" contentStyleType="text/css" height="866px" preserveAspectRatio="none" style="width:536px;height:866px;background:#FFFFFF;" version="1.1" viewBox="0 0 536 866" width="536px" zoomAndPan="magnify"><defs/><g><rect fill="#FFFFFF" height="648.9102" style="stroke:#181818;stroke-width:1.0;" width="10" x="98.0723" y="116.9121"/><rect fill="#FFFFFF" height="588.6191" style="stroke:#181818;stroke-width:1.0;" width="10" x="103.0723" y="156.2031"/><rect fill="#FFFFFF" height="25" style="stroke:#181818;stroke-width:1.0;" width="10" x="108.0723" y="200.4941"/><rect fill="#FFFFFF" height="25" style="stroke:#181818;stroke-width:1.0;" width="10" x="108.0723" y="271.7852"/><rect fill="#FFFFFF" height="25" style="stroke:#181818;stroke-width:1.0;" width="10" x="108.0723" y="343.0762"/><rect fill="#FFFFFF" height="25" style="stroke:#181818;stroke-width:1.0;" width="10" x="108.0723" y="414.3672"/><rect fill="#FFFFFF" height="25" style="stroke:#181818;stroke-width:1.0;" width="10" x="108.0723" y="485.6582"/><rect fill="#FFFFFF" height="25" style="stroke:#181818;stroke-width:1.0;" width="10" x="108.0723" y="556.9492"/><rect fill="#FFFFFF" height="14" style="stroke:#181818;stroke-width:1.0;" width="10" x="496.1445" y="620.2402"/><rect fill="#FFFFFF" height="14" style="stroke:#181818;stroke-width:1.0;" width="10" x="496.1445" y="665.5313"/><rect fill="#FFFFFF" height="14" style="stroke:#181818;stroke-width:1.0;" width="10" x="496.1445" y="710.8223"/><line style="stroke:#181818;stroke-width:0.5;stroke-dasharray:5.0,5.0;" x1="22" x2="22" y1="83.6211" y2="783.8223"/><line style="stroke:#181818;stroke-width:0.5;stroke-dasharray:5.0,5.0;" x1="102.5586" x2="102.5586" y1="83.6211" y2="783.8223"/><line style="stroke:#181818;stroke-width:0.5;stroke-dasharray:5.0,5.0;" x1="500.5825" x2="500.5825" y1="83.6211" y2="783.8223"/><text fill="#000000" font-family="sans-serif" font-size="14" lengthAdjust="spacing" textLength="29.5586" x="5" y="80.1074">User</text><ellipse cx="22.7793" cy="13.5" fill="#E2E2F0" rx="8" ry="8" style="stroke:#181818;stroke-width:0.5;"/><path d="M22.7793,21.5 L22.7793,48.5 M9.7793,29.5 L35.7793,29.5 M22.7793,48.5 L9.7793,63.5 M22.7793,48.5 L35.7793,63.5 " fill="none" style="stroke:#181818;stroke-width:0.5;"/><text fill="#000000" font-family="sans-serif" font-size="14" lengthAdjust="spacing" textLength="29.5586" x="5" y="797.9297">User</text><ellipse cx="22.7793" cy="809.9434" fill="#E2E2F0" rx="8" ry="8" style="stroke:#181818;stroke-width:0.5;"/><path d="M22.7793,817.9434 L22.7793,844.9434 M9.7793,825.9434 L35.7793,825.9434 M22.7793,844.9434 L9.7793,859.9434 M22.7793,844.9434 L35.7793,859.9434 " fill="none" style="stroke:#181818;stroke-width:0.5;"/><rect fill="#E2E2F0" height="32.6211" rx="2.5" ry="2.5" style="stroke:#181818;stroke-width:0.5;" width="105.0273" x="50.5586" y="50"/><text fill="#000000" font-family="sans-serif" font-size="14" lengthAdjust="spacing" textLength="91.0273" x="57.5586" y="72.1074">:FlipCommand</text><rect fill="#E2E2F0" height="32.6211" rx="2.5" ry="2.5" style="stroke:#181818;stroke-width:0.5;" width="105.0273" x="50.5586" y="782.8223"/><text fill="#000000" font-family="sans-serif" font-size="14" lengthAdjust="spacing" textLength="91.0273" x="57.5586" y="804.9297">:FlipCommand</text><rect fill="#E2E2F0" height="32.6211" rx="2.5" ry="2.5" style="stroke:#181818;stroke-width:0.5;" width="59.124" x="471.5825" y="50"/><text fill="#000000" font-family="sans-serif" font-size="14" lengthAdjust="spacing" textLength="45.124" x="478.5825" y="72.1074">:Printer</text><rect fill="#E2E2F0" height="32.6211" rx="2.5" ry="2.5" style="stroke:#181818;stroke-width:0.5;" width="59.124" x="471.5825" y="782.8223"/><text fill="#000000" font-family="sans-serif" font-size="14" lengthAdjust="spacing" textLength="45.124" x="478.5825" y="804.9297">:Printer</text><rect fill="#FFFFFF" height="648.9102" style="stroke:#181818;stroke-width:1.0;" width="10" x="98.0723" y="116.9121"/><rect fill="#FFFFFF" height="588.6191" style="stroke:#181818;stroke-width:1.0;" width="10" x="103.0723" y="156.2031"/><rect fill="#FFFFFF" height="25" style="stroke:#181818;stroke-width:1.0;" width="10" x="108.0723" y="200.4941"/><rect fill="#FFFFFF" height="25" style="stroke:#181818;stroke-width:1.0;" width="10" x="108.0723" y="271.7852"/><rect fill="#FFFFFF" height="25" style="stroke:#181818;stroke-width:1.0;" width="10" x="108.0723" y="343.0762"/><rect fill="#FFFFFF" height="25" style="stroke:#181818;stroke-width:1.0;" width="10" x="108.0723" y="414.3672"/><rect fill="#FFFFFF" height="25" style="stroke:#181818;stroke-width:1.0;" width="10" x="108.0723" y="485.6582"/><rect fill="#FFFFFF" height="25" style="stroke:#181818;stroke-width:1.0;" width="10" x="108.0723" y="556.9492"/><rect fill="#FFFFFF" height="14" style="stroke:#181818;stroke-width:1.0;" width="10" x="496.1445" y="620.2402"/><rect fill="#FFFFFF" height="14" style="stroke:#181818;stroke-width:1.0;" width="10" x="496.1445" y="665.5313"/><rect fill="#FFFFFF" height="14" style="stroke:#181818;stroke-width:1.0;" width="10" x="496.1445" y="710.8223"/><polygon fill="#181818" points="86.0723,112.9121,96.0723,116.9121,86.0723,120.9121,90.0723,116.9121" style="stroke:#181818;stroke-width:1.0;"/><line style="stroke:#181818;stroke-width:1.0;" x1="22.7793" x2="92.0723" y1="116.9121" y2="116.9121"/><text fill="#000000" font-family="sans-serif" font-size="13" lengthAdjust="spacing" textLength="54.1899" x="29.7793" y="111.6494">execute()</text><line style="stroke:#181818;stroke-width:1.0;" x1="108.0723" x2="155.0723" y1="143.2031" y2="143.2031"/><line style="stroke:#181818;stroke-width:1.0;" x1="155.0723" x2="155.0723" y1="143.2031" y2="156.2031"/><line style="stroke:#181818;stroke-width:1.0;" x1="114.0723" x2="155.0723" y1="156.2031" y2="156.2031"/><polygon fill="#181818" points="124.0723,152.2031,114.0723,156.2031,124.0723,160.2031,120.0723,156.2031" style="stroke:#181818;stroke-width:1.0;"/><text fill="#000000" font-family="sans-serif" font-size="13" lengthAdjust="spacing" textLength="25.2764" x="120.0723" y="137.9404">flip()</text><line style="stroke:#181818;stroke-width:1.0;" x1="113.0723" x2="160.0723" y1="187.4941" y2="187.4941"/><line style="stroke:#181818;stroke-width:1.0;" x1="160.0723" x2="160.0723" y1="187.4941" y2="200.4941"/><line style="stroke:#181818;stroke-width:1.0;" x1="119.0723" x2="160.0723" y1="200.4941" y2="200.4941"/><polygon fill="#181818" points="129.0723,196.4941,119.0723,200.4941,129.0723,204.4941,125.0723,200.4941" style="stroke:#181818;stroke-width:1.0;"/><text fill="#000000" font-family="sans-serif" font-size="13" lengthAdjust="spacing" textLength="174.8145" x="125.0723" y="182.2314">checkNumberOfWords(words)</text><line style="stroke:#181818;stroke-width:1.0;stroke-dasharray:2.0,2.0;" x1="118.0723" x2="160.0723" y1="224.4941" y2="224.4941"/><line style="stroke:#181818;stroke-width:1.0;stroke-dasharray:2.0,2.0;" x1="160.0723" x2="160.0723" y1="224.4941" y2="237.4941"/><line style="stroke:#181818;stroke-width:1.0;stroke-dasharray:2.0,2.0;" x1="113.0723" x2="160.0723" y1="237.4941" y2="237.4941"/><polygon fill="#181818" points="123.0723,233.4941,113.0723,237.4941,123.0723,241.4941,119.0723,237.4941" style="stroke:#181818;stroke-width:1.0;"/><line style="stroke:#181818;stroke-width:1.0;" x1="113.0723" x2="160.0723" y1="258.7852" y2="258.7852"/><line style="stroke:#181818;stroke-width:1.0;" x1="160.0723" x2="160.0723" y1="258.7852" y2="271.7852"/><line style="stroke:#181818;stroke-width:1.0;" x1="119.0723" x2="160.0723" y1="271.7852" y2="271.7852"/><polygon fill="#181818" points="129.0723,267.7852,119.0723,271.7852,129.0723,275.7852,125.0723,271.7852" style="stroke:#181818;stroke-width:1.0;"/><text fill="#000000" font-family="sans-serif" font-size="13" lengthAdjust="spacing" textLength="204.458" x="125.0723" y="253.5225">checkValidOutcomeWord(words[1])</text><line style="stroke:#181818;stroke-width:1.0;stroke-dasharray:2.0,2.0;" x1="118.0723" x2="160.0723" y1="295.7852" y2="295.7852"/><line style="stroke:#181818;stroke-width:1.0;stroke-dasharray:2.0,2.0;" x1="160.0723" x2="160.0723" y1="295.7852" y2="308.7852"/><line style="stroke:#181818;stroke-width:1.0;stroke-dasharray:2.0,2.0;" x1="113.0723" x2="160.0723" y1="308.7852" y2="308.7852"/><polygon fill="#181818" points="123.0723,304.7852,113.0723,308.7852,123.0723,312.7852,119.0723,308.7852" style="stroke:#181818;stroke-width:1.0;"/><line style="stroke:#181818;stroke-width:1.0;" x1="113.0723" x2="160.0723" y1="330.0762" y2="330.0762"/><line style="stroke:#181818;stroke-width:1.0;" x1="160.0723" x2="160.0723" y1="330.0762" y2="343.0762"/><line style="stroke:#181818;stroke-width:1.0;" x1="119.0723" x2="160.0723" y1="343.0762" y2="343.0762"/><polygon fill="#181818" points="129.0723,339.0762,119.0723,343.0762,129.0723,347.0762,125.0723,343.0762" style="stroke:#181818;stroke-width:1.0;"/><text fill="#000000" font-family="sans-serif" font-size="13" lengthAdjust="spacing" textLength="354.0723" x="125.0723" y="324.8135">checkWithinBalance(userData.betAmount, userData.balance)</text><line style="stroke:#181818;stroke-width:1.0;stroke-dasharray:2.0,2.0;" x1="118.0723" x2="160.0723" y1="367.0762" y2="367.0762"/><line style="stroke:#181818;stroke-width:1.0;stroke-dasharray:2.0,2.0;" x1="160.0723" x2="160.0723" y1="367.0762" y2="380.0762"/><line style="stroke:#181818;stroke-width:1.0;stroke-dasharray:2.0,2.0;" x1="113.0723" x2="160.0723" y1="380.0762" y2="380.0762"/><polygon fill="#181818" points="123.0723,376.0762,113.0723,380.0762,123.0723,384.0762,119.0723,380.0762" style="stroke:#181818;stroke-width:1.0;"/><line style="stroke:#181818;stroke-width:1.0;" x1="113.0723" x2="160.0723" y1="401.3672" y2="401.3672"/><line style="stroke:#181818;stroke-width:1.0;" x1="160.0723" x2="160.0723" y1="401.3672" y2="414.3672"/><line style="stroke:#181818;stroke-width:1.0;" x1="119.0723" x2="160.0723" y1="414.3672" y2="414.3672"/><polygon fill="#181818" points="129.0723,410.3672,119.0723,414.3672,129.0723,418.3672,125.0723,414.3672" style="stroke:#181818;stroke-width:1.0;"/><text fill="#000000" font-family="sans-serif" font-size="13" lengthAdjust="spacing" textLength="80.9263" x="125.0723" y="396.1045">generateFlip()</text><line style="stroke:#181818;stroke-width:1.0;stroke-dasharray:2.0,2.0;" x1="118.0723" x2="160.0723" y1="438.3672" y2="438.3672"/><line style="stroke:#181818;stroke-width:1.0;stroke-dasharray:2.0,2.0;" x1="160.0723" x2="160.0723" y1="438.3672" y2="451.3672"/><line style="stroke:#181818;stroke-width:1.0;stroke-dasharray:2.0,2.0;" x1="113.0723" x2="160.0723" y1="451.3672" y2="451.3672"/><polygon fill="#181818" points="123.0723,447.3672,113.0723,451.3672,123.0723,455.3672,119.0723,451.3672" style="stroke:#181818;stroke-width:1.0;"/><line style="stroke:#181818;stroke-width:1.0;" x1="113.0723" x2="160.0723" y1="472.6582" y2="472.6582"/><line style="stroke:#181818;stroke-width:1.0;" x1="160.0723" x2="160.0723" y1="472.6582" y2="485.6582"/><line style="stroke:#181818;stroke-width:1.0;" x1="119.0723" x2="160.0723" y1="485.6582" y2="485.6582"/><polygon fill="#181818" points="129.0723,481.6582,119.0723,485.6582,129.0723,489.6582,125.0723,485.6582" style="stroke:#181818;stroke-width:1.0;"/><text fill="#000000" font-family="sans-serif" font-size="13" lengthAdjust="spacing" textLength="191.4644" x="125.0723" y="467.3955">getOutcome(actualFlip, words[1])</text><line style="stroke:#181818;stroke-width:1.0;stroke-dasharray:2.0,2.0;" x1="118.0723" x2="160.0723" y1="509.6582" y2="509.6582"/><line style="stroke:#181818;stroke-width:1.0;stroke-dasharray:2.0,2.0;" x1="160.0723" x2="160.0723" y1="509.6582" y2="522.6582"/><line style="stroke:#181818;stroke-width:1.0;stroke-dasharray:2.0,2.0;" x1="113.0723" x2="160.0723" y1="522.6582" y2="522.6582"/><polygon fill="#181818" points="123.0723,518.6582,113.0723,522.6582,123.0723,526.6582,119.0723,522.6582" style="stroke:#181818;stroke-width:1.0;"/><line style="stroke:#181818;stroke-width:1.0;" x1="113.0723" x2="160.0723" y1="543.9492" y2="543.9492"/><line style="stroke:#181818;stroke-width:1.0;" x1="160.0723" x2="160.0723" y1="543.9492" y2="556.9492"/><line style="stroke:#181818;stroke-width:1.0;" x1="119.0723" x2="160.0723" y1="556.9492" y2="556.9492"/><polygon fill="#181818" points="129.0723,552.9492,119.0723,556.9492,129.0723,560.9492,125.0723,556.9492" style="stroke:#181818;stroke-width:1.0;"/><text fill="#000000" font-family="sans-serif" font-size="13" lengthAdjust="spacing" textLength="156.7808" x="125.0723" y="538.6865">processOutcome(outcome)</text><line style="stroke:#181818;stroke-width:1.0;stroke-dasharray:2.0,2.0;" x1="118.0723" x2="160.0723" y1="580.9492" y2="580.9492"/><line style="stroke:#181818;stroke-width:1.0;stroke-dasharray:2.0,2.0;" x1="160.0723" x2="160.0723" y1="580.9492" y2="593.9492"/><line style="stroke:#181818;stroke-width:1.0;stroke-dasharray:2.0,2.0;" x1="113.0723" x2="160.0723" y1="593.9492" y2="593.9492"/><polygon fill="#181818" points="123.0723,589.9492,113.0723,593.9492,123.0723,597.9492,119.0723,593.9492" style="stroke:#181818;stroke-width:1.0;"/><polygon fill="#181818" points="484.1445,616.2402,494.1445,620.2402,484.1445,624.2402,488.1445,620.2402" style="stroke:#181818;stroke-width:1.0;"/><line style="stroke:#181818;stroke-width:1.0;" x1="113.0723" x2="490.1445" y1="620.2402" y2="620.2402"/><text fill="#000000" font-family="sans-serif" font-size="13" lengthAdjust="spacing" textLength="346.8169" x="120.0723" y="614.9775">printFlipOutcome(actualFlip, outcome, userData.betAmount)</text><polygon fill="#181818" points="124.0723,630.2402,114.0723,634.2402,124.0723,638.2402,120.0723,634.2402" style="stroke:#181818;stroke-width:1.0;"/><line style="stroke:#181818;stroke-width:1.0;stroke-dasharray:2.0,2.0;" x1="118.0723" x2="500.1445" y1="634.2402" y2="634.2402"/><polygon fill="#181818" points="484.1445,661.5313,494.1445,665.5313,484.1445,669.5313,488.1445,665.5313" style="stroke:#181818;stroke-width:1.0;"/><line style="stroke:#181818;stroke-width:1.0;" x1="113.0723" x2="490.1445" y1="665.5313" y2="665.5313"/><text fill="#000000" font-family="sans-serif" font-size="13" lengthAdjust="spacing" textLength="163.2617" x="120.0723" y="660.2686">printFlipSummary(userData)</text><polygon fill="#181818" points="124.0723,675.5313,114.0723,679.5313,124.0723,683.5313,120.0723,679.5313" style="stroke:#181818;stroke-width:1.0;"/><line style="stroke:#181818;stroke-width:1.0;stroke-dasharray:2.0,2.0;" x1="118.0723" x2="500.1445" y1="679.5313" y2="679.5313"/><polygon fill="#181818" points="484.1445,706.8223,494.1445,710.8223,484.1445,714.8223,488.1445,710.8223" style="stroke:#181818;stroke-width:1.0;"/><line style="stroke:#181818;stroke-width:1.0;" x1="113.0723" x2="490.1445" y1="710.8223" y2="710.8223"/><text fill="#000000" font-family="sans-serif" font-size="13" lengthAdjust="spacing" textLength="263.7324" x="120.0723" y="705.5596">printUnlockedAchievements(achievementList)</text><polygon fill="#181818" points="124.0723,720.8223,114.0723,724.8223,124.0723,728.8223,120.0723,724.8223" style="stroke:#181818;stroke-width:1.0;"/><line style="stroke:#181818;stroke-width:1.0;stroke-dasharray:2.0,2.0;" x1="118.0723" x2="500.1445" y1="724.8223" y2="724.8223"/><line style="stroke:#181818;stroke-width:1.0;stroke-dasharray:2.0,2.0;" x1="113.0723" x2="155.0723" y1="743.8223" y2="743.8223"/><line style="stroke:#181818;stroke-width:1.0;stroke-dasharray:2.0,2.0;" x1="155.0723" x2="155.0723" y1="743.8223" y2="756.8223"/><line style="stroke:#181818;stroke-width:1.0;stroke-dasharray:2.0,2.0;" x1="108.0723" x2="155.0723" y1="756.8223" y2="756.8223"/><polygon fill="#181818" points="118.0723,752.8223,108.0723,756.8223,118.0723,760.8223,114.0723,756.8223" style="stroke:#181818;stroke-width:1.0;"/><polygon fill="#181818" points="33.7793,761.8223,23.7793,765.8223,33.7793,769.8223,29.7793,765.8223" style="stroke:#181818;stroke-width:1.0;"/><line style="stroke:#181818;stroke-width:1.0;stroke-dasharray:2.0,2.0;" x1="27.7793" x2="102.0723" y1="765.8223" y2="765.8223"/><!--SRC=[lLGxJyCm4DxzAw9CGIf8h1cG2gWJeaYeT40CL-TAhCPsP9yB_7liF8eBfLHLw1BdVFSzuZi7E6cJp2oQ16opiXeC2IvgK9HCAb7VQ2b15I6Vvj56kbNvO8IYbYNDko1bh64-lug9yWJVaJl2x8m19x46mZZF68jbluENFlWDkG_7I-IhUoSNQARBkJQ5pTx2yn2gRIvMu77gJr29Okg8Qud1GMlW-VBbX1xcWagXhg42nJ5plZstG72nG1fBxHIDag-zjkWqvbvHeV60oQ7j7KAIkcPa7kkW2jbHSjgcr4PpjBOtejjrEEqVbwcxcq7PluJahaFeVCJJq4z8vAtZOltbt-EfB_tJpQFpIVEn6Sr_b9kfIlCL5cDU2boZH4NMdy8ck1DsoAyzObWyfFadxwxz1000]--></g></svg>