<svg xmlns="http://www.w3.org/2000/svg" xmlns:xlink="http://www.w3.org/1999/xlink" contentStyleType="text/css" height="998px" preserveAspectRatio="none" style="width:1063px;height:998px;background:#FFFFFF;" version="1.1" viewBox="0 0 1063 998" width="1063px" zoomAndPan="magnify"><defs/><g><rect fill="#FFFFFF" height="856.9863" style="stroke:#181818;stroke-width:1.0;" width="10" x="113.0723" y="116.9121"/><rect fill="#FFFFFF" height="796.6953" style="stroke:#181818;stroke-width:1.0;" width="10" x="118.0723" y="156.2031"/><rect fill="#FFFFFF" height="187.7852" style="stroke:#181818;stroke-width:1.0;" width="10" x="123.0723" y="200.4941"/><rect fill="#FFFFFF" height="25" style="stroke:#181818;stroke-width:1.0;" width="10" x="123.0723" y="434.5703"/><rect fill="#FFFFFF" height="25" style="stroke:#181818;stroke-width:1.0;" width="10" x="123.0723" y="505.8613"/><rect fill="#FFFFFF" height="25" style="stroke:#181818;stroke-width:1.0;" width="10" x="123.0723" y="577.1523"/><rect fill="#FFFFFF" height="25" style="stroke:#181818;stroke-width:1.0;" width="10" x="123.0723" y="648.4434"/><rect fill="#FFFFFF" height="25" style="stroke:#181818;stroke-width:1.0;" width="10" x="123.0723" y="765.0254"/><rect fill="#FFFFFF" height="14" style="stroke:#181818;stroke-width:1.0;" width="10" x="511.1445" y="828.3164"/><rect fill="#FFFFFF" height="14" style="stroke:#181818;stroke-width:1.0;" width="10" x="511.1445" y="873.6074"/><rect fill="#FFFFFF" height="14" style="stroke:#181818;stroke-width:1.0;" width="10" x="511.1445" y="918.8984"/><rect fill="#FFFFFF" height="14" style="stroke:#181818;stroke-width:1.0;" width="10" x="611.0098" y="711.7344"/><rect fill="#FFFFFF" height="16.3301" style="stroke:#181818;stroke-width:1.0;" width="10" x="744.3438" y="273.0762"/><rect fill="none" height="76.9121" style="stroke:#000000;stroke-width:1.5;" width="812.3745" x="10" y="220.4941"/><line style="stroke:#181818;stroke-width:0.5;stroke-dasharray:5.0,5.0;" x1="37" x2="37" y1="83.6211" y2="991.8984"/><line style="stroke:#181818;stroke-width:0.5;stroke-dasharray:5.0,5.0;" x1="117.5586" x2="117.5586" y1="83.6211" y2="991.8984"/><line style="stroke:#181818;stroke-width:0.5;stroke-dasharray:5.0,5.0;" x1="515.5825" x2="515.5825" y1="83.6211" y2="991.8984"/><line style="stroke:#181818;stroke-width:0.5;stroke-dasharray:5.0,5.0;" x1="615.7065" x2="615.7065" y1="83.6211" y2="991.8984"/><line style="stroke:#181818;stroke-width:0.5;stroke-dasharray:5.0,5.0;" x1="749.313" x2="749.313" y1="271.5957" y2="991.8984"/><text fill="#000000" font-family="sans-serif" font-size="14" lengthAdjust="spacing" textLength="29.5586" x="20" y="80.1074">User</text><ellipse cx="37.7793" cy="13.5" fill="#E2E2F0" rx="8" ry="8" style="stroke:#181818;stroke-width:0.5;"/><path d="M37.7793,21.5 L37.7793,48.5 M24.7793,29.5 L50.7793,29.5 M37.7793,48.5 L24.7793,63.5 M37.7793,48.5 L50.7793,63.5 " fill="none" style="stroke:#181818;stroke-width:0.5;"/><rect fill="#E2E2F0" height="32.6211" rx="2.5" ry="2.5" style="stroke:#181818;stroke-width:0.5;" width="105.0273" x="65.5586" y="50"/><text fill="#000000" font-family="sans-serif" font-size="14" lengthAdjust="spacing" textLength="91.0273" x="72.5586" y="72.1074">:FlipCommand</text><rect fill="#E2E2F0" height="32.6211" rx="2.5" ry="2.5" style="stroke:#181818;stroke-width:0.5;" width="59.124" x="486.5825" y="50"/><text fill="#000000" font-family="sans-serif" font-size="14" lengthAdjust="spacing" textLength="45.124" x="493.5825" y="72.1074">:Printer</text><rect fill="#E2E2F0" height="32.6211" rx="2.5" ry="2.5" style="stroke:#181818;stroke-width:0.5;" width="120.6064" x="555.7065" y="50"/><text fill="#000000" font-family="sans-serif" font-size="14" lengthAdjust="spacing" textLength="106.6064" x="562.7065" y="72.1074">:AchievementList</text><rect fill="#FFFFFF" height="856.9863" style="stroke:#181818;stroke-width:1.0;" width="10" x="113.0723" y="116.9121"/><rect fill="#FFFFFF" height="796.6953" style="stroke:#181818;stroke-width:1.0;" width="10" x="118.0723" y="156.2031"/><rect fill="#FFFFFF" height="187.7852" style="stroke:#181818;stroke-width:1.0;" width="10" x="123.0723" y="200.4941"/><rect fill="#FFFFFF" height="25" style="stroke:#181818;stroke-width:1.0;" width="10" x="123.0723" y="434.5703"/><rect fill="#FFFFFF" height="25" style="stroke:#181818;stroke-width:1.0;" width="10" x="123.0723" y="505.8613"/><rect fill="#FFFFFF" height="25" style="stroke:#181818;stroke-width:1.0;" width="10" x="123.0723" y="577.1523"/><rect fill="#FFFFFF" height="25" style="stroke:#181818;stroke-width:1.0;" width="10" x="123.0723" y="648.4434"/><rect fill="#FFFFFF" height="25" style="stroke:#181818;stroke-width:1.0;" width="10" x="123.0723" y="765.0254"/><rect fill="#FFFFFF" height="14" style="stroke:#181818;stroke-width:1.0;" width="10" x="511.1445" y="828.3164"/><rect fill="#FFFFFF" height="14" style="stroke:#181818;stroke-width:1.0;" width="10" x="511.1445" y="873.6074"/><rect fill="#FFFFFF" height="14" style="stroke:#181818;stroke-width:1.0;" width="10" x="511.1445" y="918.8984"/><rect fill="#FFFFFF" height="14" style="stroke:#181818;stroke-width:1.0;" width="10" x="611.0098" y="711.7344"/><rect fill="#FFFFFF" height="16.3301" style="stroke:#181818;stroke-width:1.0;" width="10" x="744.3438" y="273.0762"/><polygon fill="#181818" points="101.0723,112.9121,111.0723,116.9121,101.0723,120.9121,105.0723,116.9121" style="stroke:#181818;stroke-width:1.0;"/><line style="stroke:#181818;stroke-width:1.0;" x1="37.7793" x2="107.0723" y1="116.9121" y2="116.9121"/><text fill="#000000" font-family="sans-serif" font-size="13" lengthAdjust="spacing" textLength="54.1899" x="44.7793" y="111.6494">execute()</text><line style="stroke:#181818;stroke-width:1.0;" x1="123.0723" x2="170.0723" y1="143.2031" y2="143.2031"/><line style="stroke:#181818;stroke-width:1.0;" x1="170.0723" x2="170.0723" y1="143.2031" y2="156.2031"/><line style="stroke:#181818;stroke-width:1.0;" x1="129.0723" x2="170.0723" y1="156.2031" y2="156.2031"/><polygon fill="#181818" points="139.0723,152.2031,129.0723,156.2031,139.0723,160.2031,135.0723,156.2031" style="stroke:#181818;stroke-width:1.0;"/><text fill="#000000" font-family="sans-serif" font-size="13" lengthAdjust="spacing" textLength="25.2764" x="135.0723" y="137.9404">flip()</text><line style="stroke:#181818;stroke-width:1.0;" x1="128.0723" x2="175.0723" y1="187.4941" y2="187.4941"/><line style="stroke:#181818;stroke-width:1.0;" x1="175.0723" x2="175.0723" y1="187.4941" y2="200.4941"/><line style="stroke:#181818;stroke-width:1.0;" x1="134.0723" x2="175.0723" y1="200.4941" y2="200.4941"/><polygon fill="#181818" points="144.0723,196.4941,134.0723,200.4941,144.0723,204.4941,140.0723,200.4941" style="stroke:#181818;stroke-width:1.0;"/><text fill="#000000" font-family="sans-serif" font-size="13" lengthAdjust="spacing" textLength="174.8145" x="140.0723" y="182.2314">checkNumberOfWords(words)</text><path d="M10,220.4941 L75.2109,220.4941 L75.2109,229.7852 L65.2109,239.7852 L10,239.7852 L10,220.4941 " fill="#EEEEEE" style="stroke:#000000;stroke-width:1.5;"/><rect fill="none" height="76.9121" style="stroke:#000000;stroke-width:1.5;" width="812.3745" x="10" y="220.4941"/><text fill="#000000" font-family="sans-serif" font-size="13" font-weight="bold" lengthAdjust="spacing" textLength="20.2109" x="25" y="235.5225">opt</text><text fill="#000000" font-family="sans-serif" font-size="11" font-weight="bold" lengthAdjust="spacing" textLength="98.0869" x="90.2109" y="234.3643">[words.length != 2]</text><polygon fill="#181818" points="674.313,259.0762,684.313,263.0762,674.313,267.0762,678.313,263.0762" style="stroke:#181818;stroke-width:1.0;"/><line style="stroke:#181818;stroke-width:1.0;" x1="133.0723" x2="680.313" y1="263.0762" y2="263.0762"/><text fill="#000000" font-family="sans-serif" font-size="13" lengthAdjust="spacing" textLength="360.5278" x="140.0723" y="257.8135">CoinflipException(CoinflipException.FLIP_INVALID_FORMAT)</text><rect fill="#E2E2F0" height="32.6211" rx="2.5" ry="2.5" style="stroke:#181818;stroke-width:0.5;" width="126.0615" x="686.313" y="239.7852"/><text fill="#000000" font-family="sans-serif" font-size="14" lengthAdjust="spacing" textLength="112.0615" x="693.313" y="261.8926">:CoinflipException</text><polygon fill="#181818" points="48.7793,285.4063,38.7793,289.4063,48.7793,293.4063,44.7793,289.4063" style="stroke:#181818;stroke-width:1.0;"/><line style="stroke:#181818;stroke-width:1.0;stroke-dasharray:2.0,2.0;" x1="42.7793" x2="748.3438" y1="289.4063" y2="289.4063"/><path d="M754,309.4063 L754,370.4063 L1056,370.4063 L1056,319.4063 L1046,309.4063 L754,309.4063 " fill="#FEFFDD" style="stroke:#181818;stroke-width:0.5;"/><path d="M1046,309.4063 L1046,319.4063 L1056,319.4063 L1046,309.4063 " fill="#FEFFDD" style="stroke:#181818;stroke-width:0.5;"/><text fill="#000000" font-family="sans-serif" font-size="13" lengthAdjust="spacing" textLength="281.4043" x="760" y="328.4346">The other functions' exception throws (such as in</text><text fill="#000000" font-family="sans-serif" font-size="13" lengthAdjust="spacing" textLength="273.1206" x="760" y="345.7256">checkValidOutcomeWord(words[1])) have been</text><text fill="#000000" font-family="sans-serif" font-size="13" lengthAdjust="spacing" textLength="232.686" x="760" y="363.0166">intentionally omitted to prevent cluttering</text><line style="stroke:#181818;stroke-width:1.0;stroke-dasharray:2.0,2.0;" x1="133.0723" x2="175.0723" y1="387.2793" y2="387.2793"/><line style="stroke:#181818;stroke-width:1.0;stroke-dasharray:2.0,2.0;" x1="175.0723" x2="175.0723" y1="387.2793" y2="400.2793"/><line style="stroke:#181818;stroke-width:1.0;stroke-dasharray:2.0,2.0;" x1="128.0723" x2="175.0723" y1="400.2793" y2="400.2793"/><polygon fill="#181818" points="138.0723,396.2793,128.0723,400.2793,138.0723,404.2793,134.0723,400.2793" style="stroke:#181818;stroke-width:1.0;"/><line style="stroke:#181818;stroke-width:1.0;" x1="128.0723" x2="175.0723" y1="421.5703" y2="421.5703"/><line style="stroke:#181818;stroke-width:1.0;" x1="175.0723" x2="175.0723" y1="421.5703" y2="434.5703"/><line style="stroke:#181818;stroke-width:1.0;" x1="134.0723" x2="175.0723" y1="434.5703" y2="434.5703"/><polygon fill="#181818" points="144.0723,430.5703,134.0723,434.5703,144.0723,438.5703,140.0723,434.5703" style="stroke:#181818;stroke-width:1.0;"/><text fill="#000000" font-family="sans-serif" font-size="13" lengthAdjust="spacing" textLength="204.458" x="140.0723" y="416.3076">checkValidOutcomeWord(words[1])</text><line style="stroke:#181818;stroke-width:1.0;stroke-dasharray:2.0,2.0;" x1="133.0723" x2="175.0723" y1="458.5703" y2="458.5703"/><line style="stroke:#181818;stroke-width:1.0;stroke-dasharray:2.0,2.0;" x1="175.0723" x2="175.0723" y1="458.5703" y2="471.5703"/><line style="stroke:#181818;stroke-width:1.0;stroke-dasharray:2.0,2.0;" x1="128.0723" x2="175.0723" y1="471.5703" y2="471.5703"/><polygon fill="#181818" points="138.0723,467.5703,128.0723,471.5703,138.0723,475.5703,134.0723,471.5703" style="stroke:#181818;stroke-width:1.0;"/><line style="stroke:#181818;stroke-width:1.0;" x1="128.0723" x2="175.0723" y1="492.8613" y2="492.8613"/><line style="stroke:#181818;stroke-width:1.0;" x1="175.0723" x2="175.0723" y1="492.8613" y2="505.8613"/><line style="stroke:#181818;stroke-width:1.0;" x1="134.0723" x2="175.0723" y1="505.8613" y2="505.8613"/><polygon fill="#181818" points="144.0723,501.8613,134.0723,505.8613,144.0723,509.8613,140.0723,505.8613" style="stroke:#181818;stroke-width:1.0;"/><text fill="#000000" font-family="sans-serif" font-size="13" lengthAdjust="spacing" textLength="354.0723" x="140.0723" y="487.5986">checkWithinBalance(userData.betAmount, userData.balance)</text><line style="stroke:#181818;stroke-width:1.0;stroke-dasharray:2.0,2.0;" x1="133.0723" x2="175.0723" y1="529.8613" y2="529.8613"/><line style="stroke:#181818;stroke-width:1.0;stroke-dasharray:2.0,2.0;" x1="175.0723" x2="175.0723" y1="529.8613" y2="542.8613"/><line style="stroke:#181818;stroke-width:1.0;stroke-dasharray:2.0,2.0;" x1="128.0723" x2="175.0723" y1="542.8613" y2="542.8613"/><polygon fill="#181818" points="138.0723,538.8613,128.0723,542.8613,138.0723,546.8613,134.0723,542.8613" style="stroke:#181818;stroke-width:1.0;"/><line style="stroke:#181818;stroke-width:1.0;" x1="128.0723" x2="175.0723" y1="564.1523" y2="564.1523"/><line style="stroke:#181818;stroke-width:1.0;" x1="175.0723" x2="175.0723" y1="564.1523" y2="577.1523"/><line style="stroke:#181818;stroke-width:1.0;" x1="134.0723" x2="175.0723" y1="577.1523" y2="577.1523"/><polygon fill="#181818" points="144.0723,573.1523,134.0723,577.1523,144.0723,581.1523,140.0723,577.1523" style="stroke:#181818;stroke-width:1.0;"/><text fill="#000000" font-family="sans-serif" font-size="13" lengthAdjust="spacing" textLength="80.9263" x="140.0723" y="558.8896">generateFlip()</text><line style="stroke:#181818;stroke-width:1.0;stroke-dasharray:2.0,2.0;" x1="133.0723" x2="175.0723" y1="601.1523" y2="601.1523"/><line style="stroke:#181818;stroke-width:1.0;stroke-dasharray:2.0,2.0;" x1="175.0723" x2="175.0723" y1="601.1523" y2="614.1523"/><line style="stroke:#181818;stroke-width:1.0;stroke-dasharray:2.0,2.0;" x1="128.0723" x2="175.0723" y1="614.1523" y2="614.1523"/><polygon fill="#181818" points="138.0723,610.1523,128.0723,614.1523,138.0723,618.1523,134.0723,614.1523" style="stroke:#181818;stroke-width:1.0;"/><line style="stroke:#181818;stroke-width:1.0;" x1="128.0723" x2="175.0723" y1="635.4434" y2="635.4434"/><line style="stroke:#181818;stroke-width:1.0;" x1="175.0723" x2="175.0723" y1="635.4434" y2="648.4434"/><line style="stroke:#181818;stroke-width:1.0;" x1="134.0723" x2="175.0723" y1="648.4434" y2="648.4434"/><polygon fill="#181818" points="144.0723,644.4434,134.0723,648.4434,144.0723,652.4434,140.0723,648.4434" style="stroke:#181818;stroke-width:1.0;"/><text fill="#000000" font-family="sans-serif" font-size="13" lengthAdjust="spacing" textLength="191.4644" x="140.0723" y="630.1807">getOutcome(actualFlip, words[1])</text><line style="stroke:#181818;stroke-width:1.0;stroke-dasharray:2.0,2.0;" x1="133.0723" x2="175.0723" y1="672.4434" y2="672.4434"/><line style="stroke:#181818;stroke-width:1.0;stroke-dasharray:2.0,2.0;" x1="175.0723" x2="175.0723" y1="672.4434" y2="685.4434"/><line style="stroke:#181818;stroke-width:1.0;stroke-dasharray:2.0,2.0;" x1="128.0723" x2="175.0723" y1="685.4434" y2="685.4434"/><polygon fill="#181818" points="138.0723,681.4434,128.0723,685.4434,138.0723,689.4434,134.0723,685.4434" style="stroke:#181818;stroke-width:1.0;"/><polygon fill="#181818" points="599.0098,707.7344,609.0098,711.7344,599.0098,715.7344,603.0098,711.7344" style="stroke:#181818;stroke-width:1.0;"/><line style="stroke:#181818;stroke-width:1.0;" x1="128.0723" x2="605.0098" y1="711.7344" y2="711.7344"/><text fill="#000000" font-family="sans-serif" font-size="13" lengthAdjust="spacing" textLength="158.2534" x="135.0723" y="706.4717">update(userData, outcome)</text><polygon fill="#181818" points="139.0723,721.7344,129.0723,725.7344,139.0723,729.7344,135.0723,725.7344" style="stroke:#181818;stroke-width:1.0;"/><line style="stroke:#181818;stroke-width:1.0;stroke-dasharray:2.0,2.0;" x1="133.0723" x2="615.0098" y1="725.7344" y2="725.7344"/><line style="stroke:#181818;stroke-width:1.0;" x1="128.0723" x2="175.0723" y1="752.0254" y2="752.0254"/><line style="stroke:#181818;stroke-width:1.0;" x1="175.0723" x2="175.0723" y1="752.0254" y2="765.0254"/><line style="stroke:#181818;stroke-width:1.0;" x1="134.0723" x2="175.0723" y1="765.0254" y2="765.0254"/><polygon fill="#181818" points="144.0723,761.0254,134.0723,765.0254,144.0723,769.0254,140.0723,765.0254" style="stroke:#181818;stroke-width:1.0;"/><text fill="#000000" font-family="sans-serif" font-size="13" lengthAdjust="spacing" textLength="156.7808" x="140.0723" y="746.7627">processOutcome(outcome)</text><line style="stroke:#181818;stroke-width:1.0;stroke-dasharray:2.0,2.0;" x1="133.0723" x2="175.0723" y1="789.0254" y2="789.0254"/><line style="stroke:#181818;stroke-width:1.0;stroke-dasharray:2.0,2.0;" x1="175.0723" x2="175.0723" y1="789.0254" y2="802.0254"/><line style="stroke:#181818;stroke-width:1.0;stroke-dasharray:2.0,2.0;" x1="128.0723" x2="175.0723" y1="802.0254" y2="802.0254"/><polygon fill="#181818" points="138.0723,798.0254,128.0723,802.0254,138.0723,806.0254,134.0723,802.0254" style="stroke:#181818;stroke-width:1.0;"/><polygon fill="#181818" points="499.1445,824.3164,509.1445,828.3164,499.1445,832.3164,503.1445,828.3164" style="stroke:#181818;stroke-width:1.0;"/><line style="stroke:#181818;stroke-width:1.0;" x1="128.0723" x2="505.1445" y1="828.3164" y2="828.3164"/><text fill="#000000" font-family="sans-serif" font-size="13" lengthAdjust="spacing" textLength="346.8169" x="135.0723" y="823.0537">printFlipOutcome(actualFlip, outcome, userData.betAmount)</text><polygon fill="#181818" points="139.0723,838.3164,129.0723,842.3164,139.0723,846.3164,135.0723,842.3164" style="stroke:#181818;stroke-width:1.0;"/><line style="stroke:#181818;stroke-width:1.0;stroke-dasharray:2.0,2.0;" x1="133.0723" x2="515.1445" y1="842.3164" y2="842.3164"/><polygon fill="#181818" points="499.1445,869.6074,509.1445,873.6074,499.1445,877.6074,503.1445,873.6074" style="stroke:#181818;stroke-width:1.0;"/><line style="stroke:#181818;stroke-width:1.0;" x1="128.0723" x2="505.1445" y1="873.6074" y2="873.6074"/><text fill="#000000" font-family="sans-serif" font-size="13" lengthAdjust="spacing" textLength="163.2617" x="135.0723" y="868.3447">printFlipSummary(userData)</text><polygon fill="#181818" points="139.0723,883.6074,129.0723,887.6074,139.0723,891.6074,135.0723,887.6074" style="stroke:#181818;stroke-width:1.0;"/><line style="stroke:#181818;stroke-width:1.0;stroke-dasharray:2.0,2.0;" x1="133.0723" x2="515.1445" y1="887.6074" y2="887.6074"/><polygon fill="#181818" points="499.1445,914.8984,509.1445,918.8984,499.1445,922.8984,503.1445,918.8984" style="stroke:#181818;stroke-width:1.0;"/><line style="stroke:#181818;stroke-width:1.0;" x1="128.0723" x2="505.1445" y1="918.8984" y2="918.8984"/><text fill="#000000" font-family="sans-serif" font-size="13" lengthAdjust="spacing" textLength="263.7324" x="135.0723" y="913.6357">printUnlockedAchievements(achievementList)</text><polygon fill="#181818" points="139.0723,928.8984,129.0723,932.8984,139.0723,936.8984,135.0723,932.8984" style="stroke:#181818;stroke-width:1.0;"/><line style="stroke:#181818;stroke-width:1.0;stroke-dasharray:2.0,2.0;" x1="133.0723" x2="515.1445" y1="932.8984" y2="932.8984"/><line style="stroke:#181818;stroke-width:1.0;stroke-dasharray:2.0,2.0;" x1="128.0723" x2="170.0723" y1="951.8984" y2="951.8984"/><line style="stroke:#181818;stroke-width:1.0;stroke-dasharray:2.0,2.0;" x1="170.0723" x2="170.0723" y1="951.8984" y2="964.8984"/><line style="stroke:#181818;stroke-width:1.0;stroke-dasharray:2.0,2.0;" x1="123.0723" x2="170.0723" y1="964.8984" y2="964.8984"/><polygon fill="#181818" points="133.0723,960.8984,123.0723,964.8984,133.0723,968.8984,129.0723,964.8984" style="stroke:#181818;stroke-width:1.0;"/><polygon fill="#181818" points="48.7793,969.8984,38.7793,973.8984,48.7793,977.8984,44.7793,973.8984" style="stroke:#181818;stroke-width:1.0;"/><line style="stroke:#181818;stroke-width:1.0;stroke-dasharray:2.0,2.0;" x1="42.7793" x2="117.0723" y1="973.8984" y2="973.8984"/><!--SRC=[lLLDRzim3BthLt2vp07I0Dinm0PaxG84o9fYwyTX60f5PYAXjcJ8L9h- -qbnqibsudLRkai-I3wzHpvQveACXPiIBV1o-ysaIX6Mnj32R5Z1BIcX2gu99fagpasUSvs6ujue2lHgbLTMQQgEx8rsV-eLOo4LhZ57JJDLKbNP2DOHvqRffIVyl15Oa3AwmhJ2FSQsxPnzZ0MF03Se767IProGMdF2ECyOYzjhWWF3CMGNJaWK3vSkNw2TB- -CJSlaCNmUESeK1DlyC4Ez8WblFi1x9Yo6mbQdJURsX4RjMDAA32UpwTNzzF9sF9jUt4_cNx-ChoDzRTespvbdt-vEYXquz1rgurDMhII1MHwekPO8XgJtR-cq2A7ohRTkJqJIciSIaj896VnNccr7VCipbSuT2PDZ67CrvU_lVlJx8FaQOO6eMTX37SxXMVO49bT4c08PAAnVExzZ8dC-vFTr5SH245iVSjtVkDq_seZZSb-mOYVISAT8Als9PrmBJ9ntxu8J7owGnhbncWRmArOL_HznAzHeFM3oqaVk59IqCoFnMCUpa1t0gvlIkEz6u8hKGvxD682fP4KA6XZMl4Wxb3IXNICfh15Oblknj7NyuoHQr-tkBH6O_O-GF6J9JaUyc_jzZRJjpcBxrr27fdtfRzLySpvfdvwzUKMw6vqPyO1fv5Vffr0pxuJqVx6w1wxxAFyJ]--></g></svg>