<svg xmlns="http://www.w3.org/2000/svg" xmlns:xlink="http://www.w3.org/1999/xlink" contentStyleType="text/css" height="363px" preserveAspectRatio="none" style="width:664px;height:363px;background:#FFFFFF;" version="1.1" viewBox="0 0 664 363" width="664px" zoomAndPan="magnify"><defs/><g><rect fill="#FFFFFF" height="221.4941" style="stroke:#181818;stroke-width:1.0;" width="10" x="116.1895" y="116.9121"/><rect fill="#FFFFFF" height="115.9121" style="stroke:#181818;stroke-width:1.0;" width="10" x="121.1895" y="156.2031"/><rect fill="#FFFFFF" height="14" style="stroke:#181818;stroke-width:1.0;" width="10" x="325.0039" y="310.4063"/><rect fill="#FFFFFF" height="16.3301" style="stroke:#181818;stroke-width:1.0;" width="10" x="580.2544" y="228.7852"/><rect fill="none" height="76.9121" style="stroke:#000000;stroke-width:1.5;" width="648.2852" x="10" y="176.2031"/><line style="stroke:#181818;stroke-width:0.5;stroke-dasharray:5.0,5.0;" x1="37" x2="37" y1="83.6211" y2="356.4063"/><line style="stroke:#181818;stroke-width:0.5;stroke-dasharray:5.0,5.0;" x1="120.5586" x2="120.5586" y1="83.6211" y2="356.4063"/><line style="stroke:#181818;stroke-width:0.5;stroke-dasharray:5.0,5.0;" x1="329.4419" x2="329.4419" y1="83.6211" y2="356.4063"/><line style="stroke:#181818;stroke-width:0.5;stroke-dasharray:5.0,5.0;" x1="585.2236" x2="585.2236" y1="227.3047" y2="356.4063"/><text fill="#000000" font-family="sans-serif" font-size="14" lengthAdjust="spacing" textLength="29.5586" x="20" y="80.1074">User</text><ellipse cx="37.7793" cy="13.5" fill="#E2E2F0" rx="8" ry="8" style="stroke:#181818;stroke-width:0.5;"/><path d="M37.7793,21.5 L37.7793,48.5 M24.7793,29.5 L50.7793,29.5 M37.7793,48.5 L24.7793,63.5 M37.7793,48.5 L50.7793,63.5 " fill="none" style="stroke:#181818;stroke-width:0.5;"/><rect fill="#E2E2F0" height="32.6211" rx="2.5" ry="2.5" style="stroke:#181818;stroke-width:0.5;" width="111.2617" x="65.5586" y="50"/><text fill="#000000" font-family="sans-serif" font-size="14" lengthAdjust="spacing" textLength="97.2617" x="72.5586" y="72.1074">:HelpCommand</text><rect fill="#E2E2F0" height="32.6211" rx="2.5" ry="2.5" style="stroke:#181818;stroke-width:0.5;" width="59.124" x="300.4419" y="50"/><text fill="#000000" font-family="sans-serif" font-size="14" lengthAdjust="spacing" textLength="45.124" x="307.4419" y="72.1074">:Printer</text><rect fill="#FFFFFF" height="221.4941" style="stroke:#181818;stroke-width:1.0;" width="10" x="116.1895" y="116.9121"/><rect fill="#FFFFFF" height="115.9121" style="stroke:#181818;stroke-width:1.0;" width="10" x="121.1895" y="156.2031"/><rect fill="#FFFFFF" height="14" style="stroke:#181818;stroke-width:1.0;" width="10" x="325.0039" y="310.4063"/><rect fill="#FFFFFF" height="16.3301" style="stroke:#181818;stroke-width:1.0;" width="10" x="580.2544" y="228.7852"/><polygon fill="#181818" points="104.1895,112.9121,114.1895,116.9121,104.1895,120.9121,108.1895,116.9121" style="stroke:#181818;stroke-width:1.0;"/><line style="stroke:#181818;stroke-width:1.0;" x1="37.7793" x2="110.1895" y1="116.9121" y2="116.9121"/><text fill="#000000" font-family="sans-serif" font-size="13" lengthAdjust="spacing" textLength="54.1899" x="44.7793" y="111.6494">execute()</text><line style="stroke:#181818;stroke-width:1.0;" x1="126.1895" x2="173.1895" y1="143.2031" y2="143.2031"/><line style="stroke:#181818;stroke-width:1.0;" x1="173.1895" x2="173.1895" y1="143.2031" y2="156.2031"/><line style="stroke:#181818;stroke-width:1.0;" x1="132.1895" x2="173.1895" y1="156.2031" y2="156.2031"/><polygon fill="#181818" points="142.1895,152.2031,132.1895,156.2031,142.1895,160.2031,138.1895,156.2031" style="stroke:#181818;stroke-width:1.0;"/><text fill="#000000" font-family="sans-serif" font-size="13" lengthAdjust="spacing" textLength="174.8145" x="138.1895" y="137.9404">checkNumberOfWords(words)</text><path d="M10,176.2031 L75.2109,176.2031 L75.2109,185.4941 L65.2109,195.4941 L10,195.4941 L10,176.2031 " fill="#EEEEEE" style="stroke:#000000;stroke-width:1.5;"/><rect fill="none" height="76.9121" style="stroke:#000000;stroke-width:1.5;" width="648.2852" x="10" y="176.2031"/><text fill="#000000" font-family="sans-serif" font-size="13" font-weight="bold" lengthAdjust="spacing" textLength="20.2109" x="25" y="191.2314">opt</text><text fill="#000000" font-family="sans-serif" font-size="11" font-weight="bold" lengthAdjust="spacing" textLength="98.0869" x="90.2109" y="190.0732">[words.length != 1]</text><polygon fill="#181818" points="510.2236,214.7852,520.2236,218.7852,510.2236,222.7852,514.2236,218.7852" style="stroke:#181818;stroke-width:1.0;"/><line style="stroke:#181818;stroke-width:1.0;" x1="131.1895" x2="516.2236" y1="218.7852" y2="218.7852"/><text fill="#000000" font-family="sans-serif" font-size="13" lengthAdjust="spacing" textLength="367.0342" x="138.1895" y="213.5225">CoinflipException(CoinflipException.HELP_INVALID_FORMAT)</text><rect fill="#E2E2F0" height="32.6211" rx="2.5" ry="2.5" style="stroke:#181818;stroke-width:0.5;" width="126.0615" x="522.2236" y="195.4941"/><text fill="#000000" font-family="sans-serif" font-size="14" lengthAdjust="spacing" textLength="112.0615" x="529.2236" y="217.6016">:CoinflipException</text><polygon fill="#181818" points="48.7793,241.1152,38.7793,245.1152,48.7793,249.1152,44.7793,245.1152" style="stroke:#181818;stroke-width:1.0;"/><line style="stroke:#181818;stroke-width:1.0;stroke-dasharray:2.0,2.0;" x1="42.7793" x2="584.2544" y1="245.1152" y2="245.1152"/><line style="stroke:#181818;stroke-width:1.0;stroke-dasharray:2.0,2.0;" x1="131.1895" x2="173.1895" y1="271.1152" y2="271.1152"/><line style="stroke:#181818;stroke-width:1.0;stroke-dasharray:2.0,2.0;" x1="173.1895" x2="173.1895" y1="271.1152" y2="284.1152"/><line style="stroke:#181818;stroke-width:1.0;stroke-dasharray:2.0,2.0;" x1="126.1895" x2="173.1895" y1="284.1152" y2="284.1152"/><polygon fill="#181818" points="136.1895,280.1152,126.1895,284.1152,136.1895,288.1152,132.1895,284.1152" style="stroke:#181818;stroke-width:1.0;"/><polygon fill="#181818" points="313.0039,306.4063,323.0039,310.4063,313.0039,314.4063,317.0039,310.4063" style="stroke:#181818;stroke-width:1.0;"/><line style="stroke:#181818;stroke-width:1.0;" x1="126.1895" x2="319.0039" y1="310.4063" y2="310.4063"/><text fill="#000000" font-family="sans-serif" font-size="13" lengthAdjust="spacing" textLength="60.6836" x="133.1895" y="305.1436">printHelp()</text><polygon fill="#181818" points="137.1895,320.4063,127.1895,324.4063,137.1895,328.4063,133.1895,324.4063" style="stroke:#181818;stroke-width:1.0;"/><line style="stroke:#181818;stroke-width:1.0;stroke-dasharray:2.0,2.0;" x1="131.1895" x2="329.0039" y1="324.4063" y2="324.4063"/><polygon fill="#181818" points="48.7793,334.4063,38.7793,338.4063,48.7793,342.4063,44.7793,338.4063" style="stroke:#181818;stroke-width:1.0;"/><line style="stroke:#181818;stroke-width:1.0;stroke-dasharray:2.0,2.0;" x1="42.7793" x2="120.1895" y1="338.4063" y2="338.4063"/><!--SRC=[VLBBRi8m4BplLxWvfGUGUhNKIeXIWKG1LNqSaN4sZTN4jfobpUSNXo3PiU3YnyxipgpNGf9nxAD5nqJRxr2f0bbf31rC1rOuKb9PeOajiRPpqpH25vwSyI2GHSoTKvhE9JC-N6B6t2XTriekEecMbD5dRXBE07fpawTGdZFiK1u9ytiGajIl80nn00ZDZfDbXV9dSsmEwBRbbt55c__vzKenOudr-BH6_KqLktja3o0TUcBYUAoSTihJM9v4fil5UhTVRJvdwzNp_cNxzZfx3_obigdEvAJUJxJ06tbuwZ2o7BzMc1ozyAZDOSgSMN_mO3YR0ONBnxWXSg6EFOqx2V1_]--></g></svg>