<svg xmlns="http://www.w3.org/2000/svg" xmlns:xlink="http://www.w3.org/1999/xlink" contentStyleType="text/css" height="348px" preserveAspectRatio="none" style="width:350px;height:348px;background:#FFFFFF;" version="1.1" viewBox="0 0 350 348" width="350px" zoomAndPan="magnify"><defs/><g><rect fill="#FFFFFF" height="130.582" style="stroke:#181818;stroke-width:1.0;" width="10" x="101.1895" y="116.9121"/><rect fill="#FFFFFF" height="25" style="stroke:#181818;stroke-width:1.0;" width="10" x="106.1895" y="156.2031"/><rect fill="#FFFFFF" height="14" style="stroke:#181818;stroke-width:1.0;" width="10" x="310.0039" y="219.4941"/><line style="stroke:#181818;stroke-width:0.5;stroke-dasharray:5.0,5.0;" x1="22" x2="22" y1="83.6211" y2="265.4941"/><line style="stroke:#181818;stroke-width:0.5;stroke-dasharray:5.0,5.0;" x1="105.5586" x2="105.5586" y1="83.6211" y2="265.4941"/><line style="stroke:#181818;stroke-width:0.5;stroke-dasharray:5.0,5.0;" x1="314.4419" x2="314.4419" y1="83.6211" y2="265.4941"/><text fill="#000000" font-family="sans-serif" font-size="14" lengthAdjust="spacing" textLength="29.5586" x="5" y="80.1074">User</text><ellipse cx="22.7793" cy="13.5" fill="#E2E2F0" rx="8" ry="8" style="stroke:#181818;stroke-width:0.5;"/><path d="M22.7793,21.5 L22.7793,48.5 M9.7793,29.5 L35.7793,29.5 M22.7793,48.5 L9.7793,63.5 M22.7793,48.5 L35.7793,63.5 " fill="none" style="stroke:#181818;stroke-width:0.5;"/><text fill="#000000" font-family="sans-serif" font-size="14" lengthAdjust="spacing" textLength="29.5586" x="5" y="279.6016">User</text><ellipse cx="22.7793" cy="291.6152" fill="#E2E2F0" rx="8" ry="8" style="stroke:#181818;stroke-width:0.5;"/><path d="M22.7793,299.6152 L22.7793,326.6152 M9.7793,307.6152 L35.7793,307.6152 M22.7793,326.6152 L9.7793,341.6152 M22.7793,326.6152 L35.7793,341.6152 " fill="none" style="stroke:#181818;stroke-width:0.5;"/><rect fill="#E2E2F0" height="32.6211" rx="2.5" ry="2.5" style="stroke:#181818;stroke-width:0.5;" width="111.2617" x="50.5586" y="50"/><text fill="#000000" font-family="sans-serif" font-size="14" lengthAdjust="spacing" textLength="97.2617" x="57.5586" y="72.1074">:HelpCommand</text><rect fill="#E2E2F0" height="32.6211" rx="2.5" ry="2.5" style="stroke:#181818;stroke-width:0.5;" width="111.2617" x="50.5586" y="264.4941"/><text fill="#000000" font-family="sans-serif" font-size="14" lengthAdjust="spacing" textLength="97.2617" x="57.5586" y="286.6016">:HelpCommand</text><rect fill="#E2E2F0" height="32.6211" rx="2.5" ry="2.5" style="stroke:#181818;stroke-width:0.5;" width="59.124" x="285.4419" y="50"/><text fill="#000000" font-family="sans-serif" font-size="14" lengthAdjust="spacing" textLength="45.124" x="292.4419" y="72.1074">:Printer</text><rect fill="#E2E2F0" height="32.6211" rx="2.5" ry="2.5" style="stroke:#181818;stroke-width:0.5;" width="59.124" x="285.4419" y="264.4941"/><text fill="#000000" font-family="sans-serif" font-size="14" lengthAdjust="spacing" textLength="45.124" x="292.4419" y="286.6016">:Printer</text><rect fill="#FFFFFF" height="130.582" style="stroke:#181818;stroke-width:1.0;" width="10" x="101.1895" y="116.9121"/><rect fill="#FFFFFF" height="25" style="stroke:#181818;stroke-width:1.0;" width="10" x="106.1895" y="156.2031"/><rect fill="#FFFFFF" height="14" style="stroke:#181818;stroke-width:1.0;" width="10" x="310.0039" y="219.4941"/><polygon fill="#181818" points="89.1895,112.9121,99.1895,116.9121,89.1895,120.9121,93.1895,116.9121" style="stroke:#181818;stroke-width:1.0;"/><line style="stroke:#181818;stroke-width:1.0;" x1="22.7793" x2="95.1895" y1="116.9121" y2="116.9121"/><text fill="#000000" font-family="sans-serif" font-size="13" lengthAdjust="spacing" textLength="54.1899" x="29.7793" y="111.6494">execute()</text><line style="stroke:#181818;stroke-width:1.0;" x1="111.1895" x2="158.1895" y1="143.2031" y2="143.2031"/><line style="stroke:#181818;stroke-width:1.0;" x1="158.1895" x2="158.1895" y1="143.2031" y2="156.2031"/><line style="stroke:#181818;stroke-width:1.0;" x1="117.1895" x2="158.1895" y1="156.2031" y2="156.2031"/><polygon fill="#181818" points="127.1895,152.2031,117.1895,156.2031,127.1895,160.2031,123.1895,156.2031" style="stroke:#181818;stroke-width:1.0;"/><text fill="#000000" font-family="sans-serif" font-size="13" lengthAdjust="spacing" textLength="174.8145" x="123.1895" y="137.9404">checkNumberOfWords(words)</text><line style="stroke:#181818;stroke-width:1.0;stroke-dasharray:2.0,2.0;" x1="116.1895" x2="158.1895" y1="180.2031" y2="180.2031"/><line style="stroke:#181818;stroke-width:1.0;stroke-dasharray:2.0,2.0;" x1="158.1895" x2="158.1895" y1="180.2031" y2="193.2031"/><line style="stroke:#181818;stroke-width:1.0;stroke-dasharray:2.0,2.0;" x1="111.1895" x2="158.1895" y1="193.2031" y2="193.2031"/><polygon fill="#181818" points="121.1895,189.2031,111.1895,193.2031,121.1895,197.2031,117.1895,193.2031" style="stroke:#181818;stroke-width:1.0;"/><polygon fill="#181818" points="298.0039,215.4941,308.0039,219.4941,298.0039,223.4941,302.0039,219.4941" style="stroke:#181818;stroke-width:1.0;"/><line style="stroke:#181818;stroke-width:1.0;" x1="111.1895" x2="304.0039" y1="219.4941" y2="219.4941"/><text fill="#000000" font-family="sans-serif" font-size="13" lengthAdjust="spacing" textLength="60.6836" x="118.1895" y="214.2314">printHelp()</text><polygon fill="#181818" points="122.1895,229.4941,112.1895,233.4941,122.1895,237.4941,118.1895,233.4941" style="stroke:#181818;stroke-width:1.0;"/><line style="stroke:#181818;stroke-width:1.0;stroke-dasharray:2.0,2.0;" x1="116.1895" x2="314.0039" y1="233.4941" y2="233.4941"/><polygon fill="#181818" points="33.7793,243.4941,23.7793,247.4941,33.7793,251.4941,29.7793,247.4941" style="stroke:#181818;stroke-width:1.0;"/><line style="stroke:#181818;stroke-width:1.0;stroke-dasharray:2.0,2.0;" x1="27.7793" x2="105.1895" y1="247.4941" y2="247.4941"/><!--SRC=[VP0z3W8X48NxEGMXMWilG65ZOwKsndg4CHA59UoiUdm3iWbiLXl-tipt7eEQ-oXE0qM1GzuXO6IhRK3FOaUFiEsTGs-IBbNr89lAOxIUlnIfoaK2PF9wKuEKe3VfaQbR0MgsJsIgTG2eRUVD-aRwlX_TXUBXUkwZ6RfNMd_06bJB0aFB_ZFxyXibGZeaiKvUL9W6yCTaAfrdocDV3lC1]--></g></svg>