<svg xmlns="http://www.w3.org/2000/svg" xmlns:xlink="http://www.w3.org/1999/xlink" contentStyleType="text/css" height="379px" preserveAspectRatio="none" style="width:497px;height:379px;background:#FFFFFF;" version="1.1" viewBox="0 0 497 379" width="497px" zoomAndPan="magnify"><defs/><g><rect fill="#FFFFFF" height="129.873" style="stroke:#181818;stroke-width:1.0;" width="10" x="168.0786" y="116.9121"/><rect fill="#FFFFFF" height="30" style="stroke:#181818;stroke-width:1.0;" width="10" x="319.8994" y="185.4941"/><line style="stroke:#181818;stroke-width:0.5;stroke-dasharray:5.0,5.0;" x1="22" x2="22" y1="83.6211" y2="296.0762"/><line style="stroke:#181818;stroke-width:0.5;stroke-dasharray:5.0,5.0;" x1="172.5166" x2="172.5166" y1="83.6211" y2="296.0762"/><line style="stroke:#181818;stroke-width:0.5;stroke-dasharray:5.0,5.0;" x1="324.2686" x2="324.2686" y1="83.6211" y2="296.0762"/><line style="stroke:#181818;stroke-width:0.5;stroke-dasharray:5.0,5.0;" x1="461.77" x2="461.77" y1="83.6211" y2="296.0762"/><text fill="#000000" font-family="sans-serif" font-size="14" lengthAdjust="spacing" textLength="29.5586" x="5" y="80.1074">User</text><ellipse cx="22.7793" cy="13.5" fill="#E2E2F0" rx="8" ry="8" style="stroke:#181818;stroke-width:0.5;"/><path d="M22.7793,21.5 L22.7793,48.5 M9.7793,29.5 L35.7793,29.5 M22.7793,48.5 L9.7793,63.5 M22.7793,48.5 L35.7793,63.5 " fill="none" style="stroke:#181818;stroke-width:0.5;"/><text fill="#000000" font-family="sans-serif" font-size="14" lengthAdjust="spacing" textLength="29.5586" x="5" y="310.1836">User</text><ellipse cx="22.7793" cy="322.1973" fill="#E2E2F0" rx="8" ry="8" style="stroke:#181818;stroke-width:0.5;"/><path d="M22.7793,330.1973 L22.7793,357.1973 M9.7793,338.1973 L35.7793,338.1973 M22.7793,357.1973 L9.7793,372.1973 M22.7793,357.1973 L35.7793,372.1973 " fill="none" style="stroke:#181818;stroke-width:0.5;"/><rect fill="#E2E2F0" height="32.6211" rx="2.5" ry="2.5" style="stroke:#181818;stroke-width:0.5;" width="59.124" x="143.5166" y="50"/><text fill="#000000" font-family="sans-serif" font-size="14" lengthAdjust="spacing" textLength="45.124" x="150.5166" y="72.1074">:Parser</text><rect fill="#E2E2F0" height="32.6211" rx="2.5" ry="2.5" style="stroke:#181818;stroke-width:0.5;" width="59.124" x="143.5166" y="295.0762"/><text fill="#000000" font-family="sans-serif" font-size="14" lengthAdjust="spacing" textLength="45.124" x="150.5166" y="317.1836">:Parser</text><rect fill="#E2E2F0" height="32.6211" rx="2.5" ry="2.5" style="stroke:#181818;stroke-width:0.5;" width="111.2617" x="269.2686" y="50"/><text fill="#000000" font-family="sans-serif" font-size="14" lengthAdjust="spacing" textLength="97.2617" x="276.2686" y="72.1074">:HelpCommand</text><rect fill="#E2E2F0" height="32.6211" rx="2.5" ry="2.5" style="stroke:#181818;stroke-width:0.5;" width="111.2617" x="269.2686" y="295.0762"/><text fill="#000000" font-family="sans-serif" font-size="14" lengthAdjust="spacing" textLength="97.2617" x="276.2686" y="317.1836">:HelpCommand</text><rect fill="#E2E2F0" height="32.6211" rx="2.5" ry="2.5" style="stroke:#181818;stroke-width:0.5;" width="59.124" x="432.77" y="50"/><text fill="#000000" font-family="sans-serif" font-size="14" lengthAdjust="spacing" textLength="45.124" x="439.77" y="72.1074">:Printer</text><rect fill="#E2E2F0" height="32.6211" rx="2.5" ry="2.5" style="stroke:#181818;stroke-width:0.5;" width="59.124" x="432.77" y="295.0762"/><text fill="#000000" font-family="sans-serif" font-size="14" lengthAdjust="spacing" textLength="45.124" x="439.77" y="317.1836">:Printer</text><rect fill="#FFFFFF" height="129.873" style="stroke:#181818;stroke-width:1.0;" width="10" x="168.0786" y="116.9121"/><rect fill="#FFFFFF" height="30" style="stroke:#181818;stroke-width:1.0;" width="10" x="319.8994" y="185.4941"/><polygon fill="#181818" points="156.0786,112.9121,166.0786,116.9121,156.0786,120.9121,160.0786,116.9121" style="stroke:#181818;stroke-width:1.0;"/><line style="stroke:#181818;stroke-width:1.0;" x1="22.7793" x2="162.0786" y1="116.9121" y2="116.9121"/><text fill="#000000" font-family="sans-serif" font-size="13" lengthAdjust="spacing" textLength="126.2993" x="29.7793" y="111.6494">input command "help"</text><path d="M183,129.9121 L183,156.9121 L275,156.9121 L275,139.9121 L265,129.9121 L183,129.9121 " fill="#FEFFDD" style="stroke:#181818;stroke-width:0.5;"/><path d="M265,129.9121 L265,139.9121 L275,139.9121 L265,129.9121 " fill="#FEFFDD" style="stroke:#181818;stroke-width:0.5;"/><text fill="#000000" font-family="sans-serif" font-size="13" lengthAdjust="spacing" textLength="71.3794" x="189" y="148.9404">Parse "help"</text><polygon fill="#181818" points="307.8994,181.4941,317.8994,185.4941,307.8994,189.4941,311.8994,185.4941" style="stroke:#181818;stroke-width:1.0;"/><line style="stroke:#181818;stroke-width:1.0;" x1="178.0786" x2="313.8994" y1="185.4941" y2="185.4941"/><text fill="#000000" font-family="sans-serif" font-size="13" lengthAdjust="spacing" textLength="122.8208" x="185.0786" y="180.2314">new HelpCommand()</text><line style="stroke:#181818;stroke-width:1.0;" x1="23.7793" x2="33.7793" y1="246.7852" y2="242.7852"/><line style="stroke:#181818;stroke-width:1.0;" x1="23.7793" x2="33.7793" y1="246.7852" y2="250.7852"/><line style="stroke:#181818;stroke-width:1.0;stroke-dasharray:2.0,2.0;" x1="22.7793" x2="172.0786" y1="246.7852" y2="246.7852"/><text fill="#000000" font-family="sans-serif" font-size="13" lengthAdjust="spacing" textLength="57.0781" x="39.7793" y="241.5225">command</text><polygon fill="#181818" points="450.332,274.0762,460.332,278.0762,450.332,282.0762,454.332,278.0762" style="stroke:#181818;stroke-width:1.0;"/><line style="stroke:#181818;stroke-width:1.0;" x1="324.8994" x2="456.332" y1="278.0762" y2="278.0762"/><text fill="#000000" font-family="sans-serif" font-size="13" lengthAdjust="spacing" textLength="113.4326" x="331.8994" y="272.8135">printHelpMessage()</text><!--SRC=[RL0n3iCW3DnvXSMK3Fa0GvOkNIfbwGCiGXEa1X2uxVSB0L8YTR9zFf_FHadMmpqepnnwqb8xD0GJ-WW11k0Yv_pKlwgdkzXjGpDdKWEScPFNXWwfN736qaOOnh98W3RkHI2B95-Z76SeIR-HL64nPcmil5vM0liuPlTOPuhpADrO4c3KfmMw_YVUm6nMV-4gEepZ_YjHdRO3rMJxctHXlbc0IqbgtbG8kAYk_m80]--></g></svg>