<svg xmlns="http://www.w3.org/2000/svg" xmlns:xlink="http://www.w3.org/1999/xlink" contentStyleType="text/css" height="278px" preserveAspectRatio="none" style="width:976px;height:278px;background:#FFFFFF;" version="1.1" viewBox="0 0 976 278" width="976px" zoomAndPan="magnify"><defs/><g><!--class Command--><g id="elem_Command"><rect codeLine="3" fill="#F1F1F1" height="48" id="Command" rx="2.5" ry="2.5" style="stroke:#181818;stroke-width:0.5;" width="96.5791" x="451.5" y="7"/><ellipse cx="466.5" cy="23" fill="#A9DCDF" rx="11" ry="11" style="stroke:#181818;stroke-width:1.0;"/><path d="M468.6875,24.7656 L464.5469,24.7656 L464.125,25.7969 L464.5469,25.7969 Q465.1563,25.7969 465.4219,26.0313 Q465.6875,26.2656 465.6875,26.6563 Q465.6875,27.0313 465.4219,27.2656 Q465.1563,27.5 464.5469,27.5 L462.25,27.5 Q461.6406,27.5 461.3906,27.2656 Q461.125,27.0313 461.125,26.6406 Q461.125,26.2656 461.4063,26.0313 Q461.6719,25.7813 462.2969,25.7969 L464.9688,19.1406 L463.8594,19.1406 Q463.25,19.1406 462.9844,18.9063 Q462.7188,18.6719 462.7188,18.2813 Q462.7188,17.9063 462.9844,17.6719 Q463.25,17.4375 463.8594,17.4375 L467.5313,17.4375 L470.9219,25.7969 Q471.5156,25.7969 471.7031,25.9375 Q472.0938,26.2031 472.0938,26.6563 Q472.0938,27.0313 471.8281,27.2656 Q471.5781,27.5 470.9688,27.5 L468.6719,27.5 Q468.0625,27.5 467.7969,27.2656 Q467.5313,27.0313 467.5313,26.6406 Q467.5313,26.2656 467.7969,26.0313 Q468.0625,25.7969 468.6719,25.7969 L469.0938,25.7969 L468.6875,24.7656 Z M467.9688,23.0625 L466.6094,19.6875 L465.2344,23.0625 L467.9688,23.0625 Z " fill="#000000"/><text fill="#000000" font-family="sans-serif" font-size="14" font-style="italic" lengthAdjust="spacing" textLength="64.5791" x="480.5" y="28.7969">Command</text><line style="stroke:#181818;stroke-width:0.5;" x1="452.5" x2="547.0791" y1="39" y2="39"/><line style="stroke:#181818;stroke-width:0.5;" x1="452.5" x2="547.0791" y1="47" y2="47"/></g><!--class ChangeCommand--><g id="elem_ChangeCommand"><rect codeLine="5" fill="#F1F1F1" height="48" id="ChangeCommand" rx="2.5" ry="2.5" style="stroke:#181818;stroke-width:0.5;" width="145.6201" x="178" y="115"/><ellipse cx="193" cy="131" fill="#ADD1B2" rx="11" ry="11" style="stroke:#181818;stroke-width:1.0;"/><path d="M195.7656,126.875 Q195.9219,126.6563 196.1094,126.5469 Q196.2969,126.4375 196.5156,126.4375 Q196.8906,126.4375 197.125,126.7031 Q197.3594,126.9531 197.3594,127.5625 L197.3594,129.0156 Q197.3594,129.625 197.125,129.8906 Q196.8906,130.1563 196.5156,130.1563 Q196.1719,130.1563 195.9688,129.9531 Q195.7656,129.7656 195.6563,129.25 Q195.6094,128.8906 195.4219,128.7031 Q195.0938,128.3281 194.4844,128.1094 Q193.875,127.8906 193.25,127.8906 Q192.4844,127.8906 191.8438,128.2188 Q191.2188,128.5469 190.7188,129.2969 Q190.2344,130.0469 190.2344,131.0781 L190.2344,132.1719 Q190.2344,133.4063 191.125,134.2344 Q192.0156,135.0469 193.6094,135.0469 Q194.5469,135.0469 195.2031,134.7969 Q195.5938,134.6406 196.0156,134.2031 Q196.2813,133.9375 196.4219,133.8594 Q196.5781,133.7813 196.7813,133.7813 Q197.1094,133.7813 197.3594,134.0469 Q197.625,134.2969 197.625,134.6406 Q197.625,134.9844 197.2813,135.3906 Q196.7813,135.9688 195.9844,136.2969 Q194.9063,136.75 193.6094,136.75 Q192.0938,136.75 190.8906,136.125 Q189.9063,135.625 189.2188,134.5625 Q188.5313,133.4844 188.5313,132.2031 L188.5313,131.0469 Q188.5313,129.7188 189.1406,128.5781 Q189.7656,127.4219 190.8594,126.8125 Q191.9531,126.1875 193.1875,126.1875 Q193.9219,126.1875 194.5625,126.3594 Q195.2188,126.5156 195.7656,126.875 Z " fill="#000000"/><text fill="#000000" font-family="sans-serif" font-size="14" lengthAdjust="spacing" textLength="113.6201" x="207" y="136.7969">ChangeCommand</text><line style="stroke:#181818;stroke-width:0.5;" x1="179" x2="322.6201" y1="147" y2="147"/><line style="stroke:#181818;stroke-width:0.5;" x1="179" x2="322.6201" y1="155" y2="155"/></g><!--class CheckCommand--><g id="elem_CheckCommand"><rect codeLine="6" fill="#F1F1F1" height="48" id="CheckCommand" rx="2.5" ry="2.5" style="stroke:#181818;stroke-width:0.5;" width="136.2617" x="7" y="115"/><ellipse cx="22" cy="131" fill="#ADD1B2" rx="11" ry="11" style="stroke:#181818;stroke-width:1.0;"/><path d="M24.7656,126.875 Q24.9219,126.6563 25.1094,126.5469 Q25.2969,126.4375 25.5156,126.4375 Q25.8906,126.4375 26.125,126.7031 Q26.3594,126.9531 26.3594,127.5625 L26.3594,129.0156 Q26.3594,129.625 26.125,129.8906 Q25.8906,130.1563 25.5156,130.1563 Q25.1719,130.1563 24.9688,129.9531 Q24.7656,129.7656 24.6563,129.25 Q24.6094,128.8906 24.4219,128.7031 Q24.0938,128.3281 23.4844,128.1094 Q22.875,127.8906 22.25,127.8906 Q21.4844,127.8906 20.8438,128.2188 Q20.2188,128.5469 19.7188,129.2969 Q19.2344,130.0469 19.2344,131.0781 L19.2344,132.1719 Q19.2344,133.4063 20.125,134.2344 Q21.0156,135.0469 22.6094,135.0469 Q23.5469,135.0469 24.2031,134.7969 Q24.5938,134.6406 25.0156,134.2031 Q25.2813,133.9375 25.4219,133.8594 Q25.5781,133.7813 25.7813,133.7813 Q26.1094,133.7813 26.3594,134.0469 Q26.625,134.2969 26.625,134.6406 Q26.625,134.9844 26.2813,135.3906 Q25.7813,135.9688 24.9844,136.2969 Q23.9063,136.75 22.6094,136.75 Q21.0938,136.75 19.8906,136.125 Q18.9063,135.625 18.2188,134.5625 Q17.5313,133.4844 17.5313,132.2031 L17.5313,131.0469 Q17.5313,129.7188 18.1406,128.5781 Q18.7656,127.4219 19.8594,126.8125 Q20.9531,126.1875 22.1875,126.1875 Q22.9219,126.1875 23.5625,126.3594 Q24.2188,126.5156 24.7656,126.875 Z " fill="#000000"/><text fill="#000000" font-family="sans-serif" font-size="14" lengthAdjust="spacing" textLength="104.2617" x="36" y="136.7969">CheckCommand</text><line style="stroke:#181818;stroke-width:0.5;" x1="8" x2="142.2617" y1="147" y2="147"/><line style="stroke:#181818;stroke-width:0.5;" x1="8" x2="142.2617" y1="155" y2="155"/></g><!--class ExitCommand--><g id="elem_ExitCommand"><rect codeLine="7" fill="#F1F1F1" height="48" id="ExitCommand" rx="2.5" ry="2.5" style="stroke:#181818;stroke-width:0.5;" width="119.917" x="359" y="115"/><ellipse cx="374" cy="131" fill="#ADD1B2" rx="11" ry="11" style="stroke:#181818;stroke-width:1.0;"/><path d="M376.7656,126.875 Q376.9219,126.6563 377.1094,126.5469 Q377.2969,126.4375 377.5156,126.4375 Q377.8906,126.4375 378.125,126.7031 Q378.3594,126.9531 378.3594,127.5625 L378.3594,129.0156 Q378.3594,129.625 378.125,129.8906 Q377.8906,130.1563 377.5156,130.1563 Q377.1719,130.1563 376.9688,129.9531 Q376.7656,129.7656 376.6563,129.25 Q376.6094,128.8906 376.4219,128.7031 Q376.0938,128.3281 375.4844,128.1094 Q374.875,127.8906 374.25,127.8906 Q373.4844,127.8906 372.8438,128.2188 Q372.2188,128.5469 371.7188,129.2969 Q371.2344,130.0469 371.2344,131.0781 L371.2344,132.1719 Q371.2344,133.4063 372.125,134.2344 Q373.0156,135.0469 374.6094,135.0469 Q375.5469,135.0469 376.2031,134.7969 Q376.5938,134.6406 377.0156,134.2031 Q377.2813,133.9375 377.4219,133.8594 Q377.5781,133.7813 377.7813,133.7813 Q378.1094,133.7813 378.3594,134.0469 Q378.625,134.2969 378.625,134.6406 Q378.625,134.9844 378.2813,135.3906 Q377.7813,135.9688 376.9844,136.2969 Q375.9063,136.75 374.6094,136.75 Q373.0938,136.75 371.8906,136.125 Q370.9063,135.625 370.2188,134.5625 Q369.5313,133.4844 369.5313,132.2031 L369.5313,131.0469 Q369.5313,129.7188 370.1406,128.5781 Q370.7656,127.4219 371.8594,126.8125 Q372.9531,126.1875 374.1875,126.1875 Q374.9219,126.1875 375.5625,126.3594 Q376.2188,126.5156 376.7656,126.875 Z " fill="#000000"/><text fill="#000000" font-family="sans-serif" font-size="14" lengthAdjust="spacing" textLength="87.917" x="388" y="136.7969">ExitCommand</text><line style="stroke:#181818;stroke-width:0.5;" x1="360" x2="477.917" y1="147" y2="147"/><line style="stroke:#181818;stroke-width:0.5;" x1="360" x2="477.917" y1="155" y2="155"/></g><!--class FlipCommand--><g id="elem_FlipCommand"><rect codeLine="8" fill="#F1F1F1" height="48" id="FlipCommand" rx="2.5" ry="2.5" style="stroke:#181818;stroke-width:0.5;" width="119.1377" x="842.5" y="115"/><ellipse cx="857.5" cy="131" fill="#ADD1B2" rx="11" ry="11" style="stroke:#181818;stroke-width:1.0;"/><path d="M860.2656,126.875 Q860.4219,126.6563 860.6094,126.5469 Q860.7969,126.4375 861.0156,126.4375 Q861.3906,126.4375 861.625,126.7031 Q861.8594,126.9531 861.8594,127.5625 L861.8594,129.0156 Q861.8594,129.625 861.625,129.8906 Q861.3906,130.1563 861.0156,130.1563 Q860.6719,130.1563 860.4688,129.9531 Q860.2656,129.7656 860.1563,129.25 Q860.1094,128.8906 859.9219,128.7031 Q859.5938,128.3281 858.9844,128.1094 Q858.375,127.8906 857.75,127.8906 Q856.9844,127.8906 856.3438,128.2188 Q855.7188,128.5469 855.2188,129.2969 Q854.7344,130.0469 854.7344,131.0781 L854.7344,132.1719 Q854.7344,133.4063 855.625,134.2344 Q856.5156,135.0469 858.1094,135.0469 Q859.0469,135.0469 859.7031,134.7969 Q860.0938,134.6406 860.5156,134.2031 Q860.7813,133.9375 860.9219,133.8594 Q861.0781,133.7813 861.2813,133.7813 Q861.6094,133.7813 861.8594,134.0469 Q862.125,134.2969 862.125,134.6406 Q862.125,134.9844 861.7813,135.3906 Q861.2813,135.9688 860.4844,136.2969 Q859.4063,136.75 858.1094,136.75 Q856.5938,136.75 855.3906,136.125 Q854.4063,135.625 853.7188,134.5625 Q853.0313,133.4844 853.0313,132.2031 L853.0313,131.0469 Q853.0313,129.7188 853.6406,128.5781 Q854.2656,127.4219 855.3594,126.8125 Q856.4531,126.1875 857.6875,126.1875 Q858.4219,126.1875 859.0625,126.3594 Q859.7188,126.5156 860.2656,126.875 Z " fill="#000000"/><text fill="#000000" font-family="sans-serif" font-size="14" lengthAdjust="spacing" textLength="87.1377" x="871.5" y="136.7969">FlipCommand</text><line style="stroke:#181818;stroke-width:0.5;" x1="843.5" x2="960.6377" y1="147" y2="147"/><line style="stroke:#181818;stroke-width:0.5;" x1="843.5" x2="960.6377" y1="155" y2="155"/></g><!--class HelpCommand--><g id="elem_HelpCommand"><rect codeLine="9" fill="#F1F1F1" height="48" id="HelpCommand" rx="2.5" ry="2.5" style="stroke:#181818;stroke-width:0.5;" width="125.3721" x="682.5" y="115"/><ellipse cx="697.5" cy="131" fill="#ADD1B2" rx="11" ry="11" style="stroke:#181818;stroke-width:1.0;"/><path d="M700.2656,126.875 Q700.4219,126.6563 700.6094,126.5469 Q700.7969,126.4375 701.0156,126.4375 Q701.3906,126.4375 701.625,126.7031 Q701.8594,126.9531 701.8594,127.5625 L701.8594,129.0156 Q701.8594,129.625 701.625,129.8906 Q701.3906,130.1563 701.0156,130.1563 Q700.6719,130.1563 700.4688,129.9531 Q700.2656,129.7656 700.1563,129.25 Q700.1094,128.8906 699.9219,128.7031 Q699.5938,128.3281 698.9844,128.1094 Q698.375,127.8906 697.75,127.8906 Q696.9844,127.8906 696.3438,128.2188 Q695.7188,128.5469 695.2188,129.2969 Q694.7344,130.0469 694.7344,131.0781 L694.7344,132.1719 Q694.7344,133.4063 695.625,134.2344 Q696.5156,135.0469 698.1094,135.0469 Q699.0469,135.0469 699.7031,134.7969 Q700.0938,134.6406 700.5156,134.2031 Q700.7813,133.9375 700.9219,133.8594 Q701.0781,133.7813 701.2813,133.7813 Q701.6094,133.7813 701.8594,134.0469 Q702.125,134.2969 702.125,134.6406 Q702.125,134.9844 701.7813,135.3906 Q701.2813,135.9688 700.4844,136.2969 Q699.4063,136.75 698.1094,136.75 Q696.5938,136.75 695.3906,136.125 Q694.4063,135.625 693.7188,134.5625 Q693.0313,133.4844 693.0313,132.2031 L693.0313,131.0469 Q693.0313,129.7188 693.6406,128.5781 Q694.2656,127.4219 695.3594,126.8125 Q696.4531,126.1875 697.6875,126.1875 Q698.4219,126.1875 699.0625,126.3594 Q699.7188,126.5156 700.2656,126.875 Z " fill="#000000"/><text fill="#000000" font-family="sans-serif" font-size="14" lengthAdjust="spacing" textLength="93.3721" x="711.5" y="136.7969">HelpCommand</text><line style="stroke:#181818;stroke-width:0.5;" x1="683.5" x2="806.8721" y1="147" y2="147"/><line style="stroke:#181818;stroke-width:0.5;" x1="683.5" x2="806.8721" y1="155" y2="155"/></g><!--class ResetCommand--><g id="elem_ResetCommand"><rect codeLine="10" fill="#F1F1F1" height="48" id="ResetCommand" rx="2.5" ry="2.5" style="stroke:#181818;stroke-width:0.5;" width="133.1514" x="514.5" y="115"/><ellipse cx="529.5" cy="131" fill="#ADD1B2" rx="11" ry="11" style="stroke:#181818;stroke-width:1.0;"/><path d="M532.2656,126.875 Q532.4219,126.6563 532.6094,126.5469 Q532.7969,126.4375 533.0156,126.4375 Q533.3906,126.4375 533.625,126.7031 Q533.8594,126.9531 533.8594,127.5625 L533.8594,129.0156 Q533.8594,129.625 533.625,129.8906 Q533.3906,130.1563 533.0156,130.1563 Q532.6719,130.1563 532.4688,129.9531 Q532.2656,129.7656 532.1563,129.25 Q532.1094,128.8906 531.9219,128.7031 Q531.5938,128.3281 530.9844,128.1094 Q530.375,127.8906 529.75,127.8906 Q528.9844,127.8906 528.3438,128.2188 Q527.7188,128.5469 527.2188,129.2969 Q526.7344,130.0469 526.7344,131.0781 L526.7344,132.1719 Q526.7344,133.4063 527.625,134.2344 Q528.5156,135.0469 530.1094,135.0469 Q531.0469,135.0469 531.7031,134.7969 Q532.0938,134.6406 532.5156,134.2031 Q532.7813,133.9375 532.9219,133.8594 Q533.0781,133.7813 533.2813,133.7813 Q533.6094,133.7813 533.8594,134.0469 Q534.125,134.2969 534.125,134.6406 Q534.125,134.9844 533.7813,135.3906 Q533.2813,135.9688 532.4844,136.2969 Q531.4063,136.75 530.1094,136.75 Q528.5938,136.75 527.3906,136.125 Q526.4063,135.625 525.7188,134.5625 Q525.0313,133.4844 525.0313,132.2031 L525.0313,131.0469 Q525.0313,129.7188 525.6406,128.5781 Q526.2656,127.4219 527.3594,126.8125 Q528.4531,126.1875 529.6875,126.1875 Q530.4219,126.1875 531.0625,126.3594 Q531.7188,126.5156 532.2656,126.875 Z " fill="#000000"/><text fill="#000000" font-family="sans-serif" font-size="14" lengthAdjust="spacing" textLength="101.1514" x="543.5" y="136.7969">ResetCommand</text><line style="stroke:#181818;stroke-width:0.5;" x1="515.5" x2="646.6514" y1="147" y2="147"/><line style="stroke:#181818;stroke-width:0.5;" x1="515.5" x2="646.6514" y1="155" y2="155"/></g><!--class Storage--><g id="elem_Storage"><rect codeLine="12" fill="#F1F1F1" height="48" id="Storage" rx="2.5" ry="2.5" style="stroke:#181818;stroke-width:0.5;" width="81.0342" x="540.5" y="223"/><ellipse cx="555.5" cy="239" fill="#ADD1B2" rx="11" ry="11" style="stroke:#181818;stroke-width:1.0;"/><path d="M558.2656,234.875 Q558.4219,234.6563 558.6094,234.5469 Q558.7969,234.4375 559.0156,234.4375 Q559.3906,234.4375 559.625,234.7031 Q559.8594,234.9531 559.8594,235.5625 L559.8594,237.0156 Q559.8594,237.625 559.625,237.8906 Q559.3906,238.1563 559.0156,238.1563 Q558.6719,238.1563 558.4688,237.9531 Q558.2656,237.7656 558.1563,237.25 Q558.1094,236.8906 557.9219,236.7031 Q557.5938,236.3281 556.9844,236.1094 Q556.375,235.8906 555.75,235.8906 Q554.9844,235.8906 554.3438,236.2188 Q553.7188,236.5469 553.2188,237.2969 Q552.7344,238.0469 552.7344,239.0781 L552.7344,240.1719 Q552.7344,241.4063 553.625,242.2344 Q554.5156,243.0469 556.1094,243.0469 Q557.0469,243.0469 557.7031,242.7969 Q558.0938,242.6406 558.5156,242.2031 Q558.7813,241.9375 558.9219,241.8594 Q559.0781,241.7813 559.2813,241.7813 Q559.6094,241.7813 559.8594,242.0469 Q560.125,242.2969 560.125,242.6406 Q560.125,242.9844 559.7813,243.3906 Q559.2813,243.9688 558.4844,244.2969 Q557.4063,244.75 556.1094,244.75 Q554.5938,244.75 553.3906,244.125 Q552.4063,243.625 551.7188,242.5625 Q551.0313,241.4844 551.0313,240.2031 L551.0313,239.0469 Q551.0313,237.7188 551.6406,236.5781 Q552.2656,235.4219 553.3594,234.8125 Q554.4531,234.1875 555.6875,234.1875 Q556.4219,234.1875 557.0625,234.3594 Q557.7188,234.5156 558.2656,234.875 Z " fill="#000000"/><text fill="#000000" font-family="sans-serif" font-size="14" lengthAdjust="spacing" textLength="49.0342" x="569.5" y="244.7969">Storage</text><line style="stroke:#181818;stroke-width:0.5;" x1="541.5" x2="620.5342" y1="255" y2="255"/><line style="stroke:#181818;stroke-width:0.5;" x1="541.5" x2="620.5342" y1="263" y2="263"/></g><!--class UserData--><g id="elem_UserData"><rect codeLine="13" fill="#F1F1F1" height="48" id="UserData" rx="2.5" ry="2.5" style="stroke:#181818;stroke-width:0.5;" width="91.1309" x="310.5" y="223"/><ellipse cx="325.5" cy="239" fill="#ADD1B2" rx="11" ry="11" style="stroke:#181818;stroke-width:1.0;"/><path d="M328.2656,234.875 Q328.4219,234.6563 328.6094,234.5469 Q328.7969,234.4375 329.0156,234.4375 Q329.3906,234.4375 329.625,234.7031 Q329.8594,234.9531 329.8594,235.5625 L329.8594,237.0156 Q329.8594,237.625 329.625,237.8906 Q329.3906,238.1563 329.0156,238.1563 Q328.6719,238.1563 328.4688,237.9531 Q328.2656,237.7656 328.1563,237.25 Q328.1094,236.8906 327.9219,236.7031 Q327.5938,236.3281 326.9844,236.1094 Q326.375,235.8906 325.75,235.8906 Q324.9844,235.8906 324.3438,236.2188 Q323.7188,236.5469 323.2188,237.2969 Q322.7344,238.0469 322.7344,239.0781 L322.7344,240.1719 Q322.7344,241.4063 323.625,242.2344 Q324.5156,243.0469 326.1094,243.0469 Q327.0469,243.0469 327.7031,242.7969 Q328.0938,242.6406 328.5156,242.2031 Q328.7813,241.9375 328.9219,241.8594 Q329.0781,241.7813 329.2813,241.7813 Q329.6094,241.7813 329.8594,242.0469 Q330.125,242.2969 330.125,242.6406 Q330.125,242.9844 329.7813,243.3906 Q329.2813,243.9688 328.4844,244.2969 Q327.4063,244.75 326.1094,244.75 Q324.5938,244.75 323.3906,244.125 Q322.4063,243.625 321.7188,242.5625 Q321.0313,241.4844 321.0313,240.2031 L321.0313,239.0469 Q321.0313,237.7188 321.6406,236.5781 Q322.2656,235.4219 323.3594,234.8125 Q324.4531,234.1875 325.6875,234.1875 Q326.4219,234.1875 327.0625,234.3594 Q327.7188,234.5156 328.2656,234.875 Z " fill="#000000"/><text fill="#000000" font-family="sans-serif" font-size="14" lengthAdjust="spacing" textLength="59.1309" x="339.5" y="244.7969">UserData</text><line style="stroke:#181818;stroke-width:0.5;" x1="311.5" x2="400.6309" y1="255" y2="255"/><line style="stroke:#181818;stroke-width:0.5;" x1="311.5" x2="400.6309" y1="263" y2="263"/></g><!--class AchievementList--><g id="elem_AchievementList"><rect codeLine="14" fill="#F1F1F1" height="48" id="AchievementList" rx="2.5" ry="2.5" style="stroke:#181818;stroke-width:0.5;" width="134.7168" x="834.5" y="223"/><ellipse cx="849.5" cy="239" fill="#ADD1B2" rx="11" ry="11" style="stroke:#181818;stroke-width:1.0;"/><path d="M852.2656,234.875 Q852.4219,234.6563 852.6094,234.5469 Q852.7969,234.4375 853.0156,234.4375 Q853.3906,234.4375 853.625,234.7031 Q853.8594,234.9531 853.8594,235.5625 L853.8594,237.0156 Q853.8594,237.625 853.625,237.8906 Q853.3906,238.1563 853.0156,238.1563 Q852.6719,238.1563 852.4688,237.9531 Q852.2656,237.7656 852.1563,237.25 Q852.1094,236.8906 851.9219,236.7031 Q851.5938,236.3281 850.9844,236.1094 Q850.375,235.8906 849.75,235.8906 Q848.9844,235.8906 848.3438,236.2188 Q847.7188,236.5469 847.2188,237.2969 Q846.7344,238.0469 846.7344,239.0781 L846.7344,240.1719 Q846.7344,241.4063 847.625,242.2344 Q848.5156,243.0469 850.1094,243.0469 Q851.0469,243.0469 851.7031,242.7969 Q852.0938,242.6406 852.5156,242.2031 Q852.7813,241.9375 852.9219,241.8594 Q853.0781,241.7813 853.2813,241.7813 Q853.6094,241.7813 853.8594,242.0469 Q854.125,242.2969 854.125,242.6406 Q854.125,242.9844 853.7813,243.3906 Q853.2813,243.9688 852.4844,244.2969 Q851.4063,244.75 850.1094,244.75 Q848.5938,244.75 847.3906,244.125 Q846.4063,243.625 845.7188,242.5625 Q845.0313,241.4844 845.0313,240.2031 L845.0313,239.0469 Q845.0313,237.7188 845.6406,236.5781 Q846.2656,235.4219 847.3594,234.8125 Q848.4531,234.1875 849.6875,234.1875 Q850.4219,234.1875 851.0625,234.3594 Q851.7188,234.5156 852.2656,234.875 Z " fill="#000000"/><text fill="#000000" font-family="sans-serif" font-size="14" lengthAdjust="spacing" textLength="102.7168" x="863.5" y="244.7969">AchievementList</text><line style="stroke:#181818;stroke-width:0.5;" x1="835.5" x2="968.2168" y1="255" y2="255"/><line style="stroke:#181818;stroke-width:0.5;" x1="835.5" x2="968.2168" y1="263" y2="263"/></g><!--reverse link Command to ChangeCommand--><g id="link_Command_ChangeCommand"><path codeLine="16" d="M434.8373,59.7382 C392.7973,77.6282 348.66,96.42 305.1,114.97 " fill="none" id="Command-backto-ChangeCommand" style="stroke:#181818;stroke-width:1.0;"/><polygon fill="none" points="451.4,52.69,432.4879,54.2173,437.1867,65.2591,451.4,52.69" style="stroke:#181818;stroke-width:1.0;"/></g><!--reverse link Command to CheckCommand--><g id="link_Command_CheckCommand"><path codeLine="17" d="M433.9661,47.5951 C367.9161,63.2651 263.57,88.35 160,115 C154.52,116.41 148.85,117.89 143.16,119.4 " fill="none" id="Command-backto-CheckCommand" style="stroke:#181818;stroke-width:1.0;"/><polygon fill="none" points="451.48,43.44,432.5811,41.7571,435.3512,53.433,451.48,43.44" style="stroke:#181818;stroke-width:1.0;"/></g><!--reverse link Command to ExitCommand--><g id="link_Command_ExitCommand"><path codeLine="18" d="M471.4934,69.3042 C458.0034,86.9642 450.38,96.94 436.82,114.68 " fill="none" id="Command-backto-ExitCommand" style="stroke:#181818;stroke-width:1.0;"/><polygon fill="none" points="482.42,55,466.7254,65.662,476.2615,72.9464,482.42,55" style="stroke:#181818;stroke-width:1.0;"/></g><!--reverse link Command to FlipCommand--><g id="link_Command_FlipCommand"><path codeLine="19" d="M566.1056,48.0425 C629.7856,63.6025 727.35,87.96 825,115 C830.65,116.56 836.51,118.23 842.38,119.93 " fill="none" id="Command-backto-FlipCommand" style="stroke:#181818;stroke-width:1.0;"/><polygon fill="none" points="548.62,43.77,564.6814,53.8711,567.5298,42.214,548.62,43.77" style="stroke:#181818;stroke-width:1.0;"/></g><!--reverse link Command to HelpCommand--><g id="link_Command_HelpCommand"><path codeLine="20" d="M565.2199,60.218 C606.5199,78.088 649.16,96.53 691.72,114.95 " fill="none" id="Command-backto-HelpCommand" style="stroke:#181818;stroke-width:1.0;"/><polygon fill="none" points="548.7,53.07,562.8372,65.7246,567.6025,54.7113,548.7,53.07" style="stroke:#181818;stroke-width:1.0;"/></g><!--reverse link Command to ResetCommand--><g id="link_Command_ResetCommand"><path codeLine="21" d="M528.5066,69.3042 C541.9966,86.9642 549.62,96.94 563.18,114.68 " fill="none" id="Command-backto-ResetCommand" style="stroke:#181818;stroke-width:1.0;"/><polygon fill="none" points="517.58,55,523.7385,72.9464,533.2746,65.662,517.58,55" style="stroke:#181818;stroke-width:1.0;"/></g><!--link ChangeCommand to Storage--><g id="link_ChangeCommand_Storage"><path codeLine="23" d="M322.61,163 C389.14,184.37 480.1774,213.6153 534.4474,231.0453 " fill="none" id="ChangeCommand-to-Storage" style="stroke:#181818;stroke-width:1.0;"/><polygon fill="#181818" points="540.16,232.88,532.8143,226.3195,535.3995,231.3511,530.368,233.9363,540.16,232.88" style="stroke:#181818;stroke-width:1.0;"/></g><!--link ChangeCommand to UserData--><g id="link_ChangeCommand_UserData"><path codeLine="24" d="M273.78,163 C291.27,180.66 311.1078,200.677 328.6778,218.417 " fill="none" id="ChangeCommand-to-UserData" style="stroke:#181818;stroke-width:1.0;"/><polygon fill="#181818" points="332.9,222.68,329.4088,213.4707,329.3815,219.1275,323.7247,219.1003,332.9,222.68" style="stroke:#181818;stroke-width:1.0;"/></g><!--link CheckCommand to UserData--><g id="link_CheckCommand_UserData"><path codeLine="26" d="M135.97,163 C188.43,182.79 257.3361,208.7825 304.7661,226.6725 " fill="none" id="CheckCommand-to-UserData" style="stroke:#181818;stroke-width:1.0;"/><polygon fill="#181818" points="310.38,228.79,303.3708,221.8711,305.7017,227.0254,300.5474,229.3564,310.38,228.79" style="stroke:#181818;stroke-width:1.0;"/></g><!--link FlipCommand to Storage--><g id="link_FlipCommand_Storage"><path codeLine="28" d="M842.37,159.69 C778.01,180.94 682.9474,212.3386 627.1974,230.7486 " fill="none" id="FlipCommand-to-Storage" style="stroke:#181818;stroke-width:1.0;"/><polygon fill="#181818" points="621.5,232.63,631.3004,233.6061,626.2478,231.0622,628.7918,226.0096,621.5,232.63" style="stroke:#181818;stroke-width:1.0;"/></g><!--link FlipCommand to UserData--><g id="link_FlipCommand_UserData"><path codeLine="29" d="M842.49,158.51 C836.61,160.12 830.7,161.65 825,163 C671.32,199.42 491.83,226.8533 407.57,238.8633 " fill="none" id="FlipCommand-to-UserData" style="stroke:#181818;stroke-width:1.0;"/><polygon fill="#181818" points="401.63,239.71,411.1044,242.4,406.58,239.0045,409.9755,234.48,401.63,239.71" style="stroke:#181818;stroke-width:1.0;"/></g><!--link FlipCommand to AchievementList--><g id="link_FlipCommand_AchievementList"><path codeLine="30" d="M902,163 C902,180.66 902,198.94 902,216.68 " fill="none" id="FlipCommand-to-AchievementList" style="stroke:#181818;stroke-width:1.0;"/><polygon fill="#181818" points="902,222.68,906,213.68,902,217.68,898,213.68,902,222.68" style="stroke:#181818;stroke-width:1.0;"/></g><!--link ResetCommand to Storage--><g id="link_ResetCommand_Storage"><path codeLine="32" d="M581,163 C581,180.66 581,198.94 581,216.68 " fill="none" id="ResetCommand-to-Storage" style="stroke:#181818;stroke-width:1.0;"/><polygon fill="#181818" points="581,222.68,585,213.68,581,217.68,577,213.68,581,222.68" style="stroke:#181818;stroke-width:1.0;"/></g><!--link ResetCommand to UserData--><g id="link_ResetCommand_UserData"><path codeLine="33" d="M532.18,163 C493.4,181.27 445.0075,204.0623 407.0875,221.9323 " fill="none" id="ResetCommand-to-UserData" style="stroke:#181818;stroke-width:1.0;"/><polygon fill="#181818" points="401.66,224.49,411.5064,224.2717,406.1829,222.3585,408.0961,217.035,401.66,224.49" style="stroke:#181818;stroke-width:1.0;"/></g><!--SRC=[PP1D2i8m44RtEKKk4F008XH_K71byG3JEBIXJLeoeuXuU1Uc9PCkvxraydsXteK98dXj1o2gcADhdemNEuRQVL1lb8A6E8Bb_n6z7xs7y50gZHs45cSuCxIzHCUtOqbEWviaEUDGa1iISl5WpME45jDq9um7O4XZPJk7B_GO-Eg8bKgNzVPhJ96rK5baOVBaGkG5XCXx227hY3JQcDrIRMsMcYeFMgWia5XNykL6ALQ_bmSMArTYtla3]--></g></svg>