<svg xmlns="http://www.w3.org/2000/svg" xmlns:xlink="http://www.w3.org/1999/xlink" contentStyleType="text/css" height="278px" preserveAspectRatio="none" style="width:983px;height:278px;background:#FFFFFF;" version="1.1" viewBox="0 0 983 278" width="983px" zoomAndPan="magnify"><defs/><g><!--class UserData--><g id="elem_UserData"><rect codeLine="3" fill="#F1F1F1" height="48" id="UserData" rx="2.5" ry="2.5" style="stroke:#181818;stroke-width:0.5;" width="91.1309" x="223" y="223"/><ellipse cx="238" cy="239" fill="#ADD1B2" rx="11" ry="11" style="stroke:#181818;stroke-width:1.0;"/><path d="M240.7656,234.875 Q240.9219,234.6563 241.1094,234.5469 Q241.2969,234.4375 241.5156,234.4375 Q241.8906,234.4375 242.125,234.7031 Q242.3594,234.9531 242.3594,235.5625 L242.3594,237.0156 Q242.3594,237.625 242.125,237.8906 Q241.8906,238.1563 241.5156,238.1563 Q241.1719,238.1563 240.9688,237.9531 Q240.7656,237.7656 240.6563,237.25 Q240.6094,236.8906 240.4219,236.7031 Q240.0938,236.3281 239.4844,236.1094 Q238.875,235.8906 238.25,235.8906 Q237.4844,235.8906 236.8438,236.2188 Q236.2188,236.5469 235.7188,237.2969 Q235.2344,238.0469 235.2344,239.0781 L235.2344,240.1719 Q235.2344,241.4063 236.125,242.2344 Q237.0156,243.0469 238.6094,243.0469 Q239.5469,243.0469 240.2031,242.7969 Q240.5938,242.6406 241.0156,242.2031 Q241.2813,241.9375 241.4219,241.8594 Q241.5781,241.7813 241.7813,241.7813 Q242.1094,241.7813 242.3594,242.0469 Q242.625,242.2969 242.625,242.6406 Q242.625,242.9844 242.2813,243.3906 Q241.7813,243.9688 240.9844,244.2969 Q239.9063,244.75 238.6094,244.75 Q237.0938,244.75 235.8906,244.125 Q234.9063,243.625 234.2188,242.5625 Q233.5313,241.4844 233.5313,240.2031 L233.5313,239.0469 Q233.5313,237.7188 234.1406,236.5781 Q234.7656,235.4219 235.8594,234.8125 Q236.9531,234.1875 238.1875,234.1875 Q238.9219,234.1875 239.5625,234.3594 Q240.2188,234.5156 240.7656,234.875 Z " fill="#000000"/><text fill="#000000" font-family="sans-serif" font-size="14" lengthAdjust="spacing" textLength="59.1309" x="252" y="244.7969">UserData</text><line style="stroke:#181818;stroke-width:0.5;" x1="224" x2="313.1309" y1="255" y2="255"/><line style="stroke:#181818;stroke-width:0.5;" x1="224" x2="313.1309" y1="263" y2="263"/></g><!--class AchievementList--><g id="elem_AchievementList"><rect codeLine="4" fill="#F1F1F1" height="48" id="AchievementList" rx="2.5" ry="2.5" style="stroke:#181818;stroke-width:0.5;" width="134.7168" x="7" y="7"/><ellipse cx="22" cy="23" fill="#ADD1B2" rx="11" ry="11" style="stroke:#181818;stroke-width:1.0;"/><path d="M24.7656,18.875 Q24.9219,18.6563 25.1094,18.5469 Q25.2969,18.4375 25.5156,18.4375 Q25.8906,18.4375 26.125,18.7031 Q26.3594,18.9531 26.3594,19.5625 L26.3594,21.0156 Q26.3594,21.625 26.125,21.8906 Q25.8906,22.1563 25.5156,22.1563 Q25.1719,22.1563 24.9688,21.9531 Q24.7656,21.7656 24.6563,21.25 Q24.6094,20.8906 24.4219,20.7031 Q24.0938,20.3281 23.4844,20.1094 Q22.875,19.8906 22.25,19.8906 Q21.4844,19.8906 20.8438,20.2188 Q20.2188,20.5469 19.7188,21.2969 Q19.2344,22.0469 19.2344,23.0781 L19.2344,24.1719 Q19.2344,25.4063 20.125,26.2344 Q21.0156,27.0469 22.6094,27.0469 Q23.5469,27.0469 24.2031,26.7969 Q24.5938,26.6406 25.0156,26.2031 Q25.2813,25.9375 25.4219,25.8594 Q25.5781,25.7813 25.7813,25.7813 Q26.1094,25.7813 26.3594,26.0469 Q26.625,26.2969 26.625,26.6406 Q26.625,26.9844 26.2813,27.3906 Q25.7813,27.9688 24.9844,28.2969 Q23.9063,28.75 22.6094,28.75 Q21.0938,28.75 19.8906,28.125 Q18.9063,27.625 18.2188,26.5625 Q17.5313,25.4844 17.5313,24.2031 L17.5313,23.0469 Q17.5313,21.7188 18.1406,20.5781 Q18.7656,19.4219 19.8594,18.8125 Q20.9531,18.1875 22.1875,18.1875 Q22.9219,18.1875 23.5625,18.3594 Q24.2188,18.5156 24.7656,18.875 Z " fill="#000000"/><text fill="#000000" font-family="sans-serif" font-size="14" lengthAdjust="spacing" textLength="102.7168" x="36" y="28.7969">AchievementList</text><line style="stroke:#181818;stroke-width:0.5;" x1="8" x2="140.7168" y1="39" y2="39"/><line style="stroke:#181818;stroke-width:0.5;" x1="8" x2="140.7168" y1="47" y2="47"/></g><!--class Achievement--><g id="elem_Achievement"><rect codeLine="7" fill="#F1F1F1" height="48" id="Achievement" rx="2.5" ry="2.5" style="stroke:#181818;stroke-width:0.5;" width="112.9307" x="303" y="115"/><ellipse cx="318" cy="131" fill="#A9DCDF" rx="11" ry="11" style="stroke:#181818;stroke-width:1.0;"/><path d="M320.1875,132.7656 L316.0469,132.7656 L315.625,133.7969 L316.0469,133.7969 Q316.6563,133.7969 316.9219,134.0313 Q317.1875,134.2656 317.1875,134.6563 Q317.1875,135.0313 316.9219,135.2656 Q316.6563,135.5 316.0469,135.5 L313.75,135.5 Q313.1406,135.5 312.8906,135.2656 Q312.625,135.0313 312.625,134.6406 Q312.625,134.2656 312.9063,134.0313 Q313.1719,133.7813 313.7969,133.7969 L316.4688,127.1406 L315.3594,127.1406 Q314.75,127.1406 314.4844,126.9063 Q314.2188,126.6719 314.2188,126.2813 Q314.2188,125.9063 314.4844,125.6719 Q314.75,125.4375 315.3594,125.4375 L319.0313,125.4375 L322.4219,133.7969 Q323.0156,133.7969 323.2031,133.9375 Q323.5938,134.2031 323.5938,134.6563 Q323.5938,135.0313 323.3281,135.2656 Q323.0781,135.5 322.4688,135.5 L320.1719,135.5 Q319.5625,135.5 319.2969,135.2656 Q319.0313,135.0313 319.0313,134.6406 Q319.0313,134.2656 319.2969,134.0313 Q319.5625,133.7969 320.1719,133.7969 L320.5938,133.7969 L320.1875,132.7656 Z M319.4688,131.0625 L318.1094,127.6875 L316.7344,131.0625 L319.4688,131.0625 Z " fill="#000000"/><text fill="#000000" font-family="sans-serif" font-size="14" font-style="italic" lengthAdjust="spacing" textLength="80.9307" x="332" y="136.7969">Achievement</text><line style="stroke:#181818;stroke-width:0.5;" x1="304" x2="414.9307" y1="147" y2="147"/><line style="stroke:#181818;stroke-width:0.5;" x1="304" x2="414.9307" y1="155" y2="155"/></g><!--class GamesAchievement--><g id="elem_GamesAchievement"><rect codeLine="10" fill="#F1F1F1" height="48" id="GamesAchievement" rx="2.5" ry="2.5" style="stroke:#181818;stroke-width:0.5;" width="158.0547" x="177.5" y="7"/><ellipse cx="192.5" cy="23" fill="#ADD1B2" rx="11" ry="11" style="stroke:#181818;stroke-width:1.0;"/><path d="M195.2656,18.875 Q195.4219,18.6563 195.6094,18.5469 Q195.7969,18.4375 196.0156,18.4375 Q196.3906,18.4375 196.625,18.7031 Q196.8594,18.9531 196.8594,19.5625 L196.8594,21.0156 Q196.8594,21.625 196.625,21.8906 Q196.3906,22.1563 196.0156,22.1563 Q195.6719,22.1563 195.4688,21.9531 Q195.2656,21.7656 195.1563,21.25 Q195.1094,20.8906 194.9219,20.7031 Q194.5938,20.3281 193.9844,20.1094 Q193.375,19.8906 192.75,19.8906 Q191.9844,19.8906 191.3438,20.2188 Q190.7188,20.5469 190.2188,21.2969 Q189.7344,22.0469 189.7344,23.0781 L189.7344,24.1719 Q189.7344,25.4063 190.625,26.2344 Q191.5156,27.0469 193.1094,27.0469 Q194.0469,27.0469 194.7031,26.7969 Q195.0938,26.6406 195.5156,26.2031 Q195.7813,25.9375 195.9219,25.8594 Q196.0781,25.7813 196.2813,25.7813 Q196.6094,25.7813 196.8594,26.0469 Q197.125,26.2969 197.125,26.6406 Q197.125,26.9844 196.7813,27.3906 Q196.2813,27.9688 195.4844,28.2969 Q194.4063,28.75 193.1094,28.75 Q191.5938,28.75 190.3906,28.125 Q189.4063,27.625 188.7188,26.5625 Q188.0313,25.4844 188.0313,24.2031 L188.0313,23.0469 Q188.0313,21.7188 188.6406,20.5781 Q189.2656,19.4219 190.3594,18.8125 Q191.4531,18.1875 192.6875,18.1875 Q193.4219,18.1875 194.0625,18.3594 Q194.7188,18.5156 195.2656,18.875 Z " fill="#000000"/><text fill="#000000" font-family="sans-serif" font-size="14" lengthAdjust="spacing" textLength="126.0547" x="206.5" y="28.7969">GamesAchievement</text><line style="stroke:#181818;stroke-width:0.5;" x1="178.5" x2="334.5547" y1="39" y2="39"/><line style="stroke:#181818;stroke-width:0.5;" x1="178.5" x2="334.5547" y1="47" y2="47"/></g><!--class LoseStreakAchievement--><g id="elem_LoseStreakAchievement"><rect codeLine="11" fill="#F1F1F1" height="48" id="LoseStreakAchievement" rx="2.5" ry="2.5" style="stroke:#181818;stroke-width:0.5;" width="183.751" x="370.5" y="7"/><ellipse cx="385.5" cy="23" fill="#ADD1B2" rx="11" ry="11" style="stroke:#181818;stroke-width:1.0;"/><path d="M388.2656,18.875 Q388.4219,18.6563 388.6094,18.5469 Q388.7969,18.4375 389.0156,18.4375 Q389.3906,18.4375 389.625,18.7031 Q389.8594,18.9531 389.8594,19.5625 L389.8594,21.0156 Q389.8594,21.625 389.625,21.8906 Q389.3906,22.1563 389.0156,22.1563 Q388.6719,22.1563 388.4688,21.9531 Q388.2656,21.7656 388.1563,21.25 Q388.1094,20.8906 387.9219,20.7031 Q387.5938,20.3281 386.9844,20.1094 Q386.375,19.8906 385.75,19.8906 Q384.9844,19.8906 384.3438,20.2188 Q383.7188,20.5469 383.2188,21.2969 Q382.7344,22.0469 382.7344,23.0781 L382.7344,24.1719 Q382.7344,25.4063 383.625,26.2344 Q384.5156,27.0469 386.1094,27.0469 Q387.0469,27.0469 387.7031,26.7969 Q388.0938,26.6406 388.5156,26.2031 Q388.7813,25.9375 388.9219,25.8594 Q389.0781,25.7813 389.2813,25.7813 Q389.6094,25.7813 389.8594,26.0469 Q390.125,26.2969 390.125,26.6406 Q390.125,26.9844 389.7813,27.3906 Q389.2813,27.9688 388.4844,28.2969 Q387.4063,28.75 386.1094,28.75 Q384.5938,28.75 383.3906,28.125 Q382.4063,27.625 381.7188,26.5625 Q381.0313,25.4844 381.0313,24.2031 L381.0313,23.0469 Q381.0313,21.7188 381.6406,20.5781 Q382.2656,19.4219 383.3594,18.8125 Q384.4531,18.1875 385.6875,18.1875 Q386.4219,18.1875 387.0625,18.3594 Q387.7188,18.5156 388.2656,18.875 Z " fill="#000000"/><text fill="#000000" font-family="sans-serif" font-size="14" lengthAdjust="spacing" textLength="151.751" x="399.5" y="28.7969">LoseStreakAchievement</text><line style="stroke:#181818;stroke-width:0.5;" x1="371.5" x2="553.251" y1="39" y2="39"/><line style="stroke:#181818;stroke-width:0.5;" x1="371.5" x2="553.251" y1="47" y2="47"/></g><!--class WinCountAchievement--><g id="elem_WinCountAchievement"><rect codeLine="12" fill="#F1F1F1" height="48" id="WinCountAchievement" rx="2.5" ry="2.5" style="stroke:#181818;stroke-width:0.5;" width="174.3994" x="589.5" y="7"/><ellipse cx="604.5" cy="23" fill="#ADD1B2" rx="11" ry="11" style="stroke:#181818;stroke-width:1.0;"/><path d="M607.2656,18.875 Q607.4219,18.6563 607.6094,18.5469 Q607.7969,18.4375 608.0156,18.4375 Q608.3906,18.4375 608.625,18.7031 Q608.8594,18.9531 608.8594,19.5625 L608.8594,21.0156 Q608.8594,21.625 608.625,21.8906 Q608.3906,22.1563 608.0156,22.1563 Q607.6719,22.1563 607.4688,21.9531 Q607.2656,21.7656 607.1563,21.25 Q607.1094,20.8906 606.9219,20.7031 Q606.5938,20.3281 605.9844,20.1094 Q605.375,19.8906 604.75,19.8906 Q603.9844,19.8906 603.3438,20.2188 Q602.7188,20.5469 602.2188,21.2969 Q601.7344,22.0469 601.7344,23.0781 L601.7344,24.1719 Q601.7344,25.4063 602.625,26.2344 Q603.5156,27.0469 605.1094,27.0469 Q606.0469,27.0469 606.7031,26.7969 Q607.0938,26.6406 607.5156,26.2031 Q607.7813,25.9375 607.9219,25.8594 Q608.0781,25.7813 608.2813,25.7813 Q608.6094,25.7813 608.8594,26.0469 Q609.125,26.2969 609.125,26.6406 Q609.125,26.9844 608.7813,27.3906 Q608.2813,27.9688 607.4844,28.2969 Q606.4063,28.75 605.1094,28.75 Q603.5938,28.75 602.3906,28.125 Q601.4063,27.625 600.7188,26.5625 Q600.0313,25.4844 600.0313,24.2031 L600.0313,23.0469 Q600.0313,21.7188 600.6406,20.5781 Q601.2656,19.4219 602.3594,18.8125 Q603.4531,18.1875 604.6875,18.1875 Q605.4219,18.1875 606.0625,18.3594 Q606.7188,18.5156 607.2656,18.875 Z " fill="#000000"/><text fill="#000000" font-family="sans-serif" font-size="14" lengthAdjust="spacing" textLength="142.3994" x="618.5" y="28.7969">WinCountAchievement</text><line style="stroke:#181818;stroke-width:0.5;" x1="590.5" x2="762.8994" y1="39" y2="39"/><line style="stroke:#181818;stroke-width:0.5;" x1="590.5" x2="762.8994" y1="47" y2="47"/></g><!--class WinStreakAchievement--><g id="elem_WinStreakAchievement"><rect codeLine="13" fill="#F1F1F1" height="48" id="WinStreakAchievement" rx="2.5" ry="2.5" style="stroke:#181818;stroke-width:0.5;" width="177.5029" x="798.5" y="7"/><ellipse cx="813.5" cy="23" fill="#ADD1B2" rx="11" ry="11" style="stroke:#181818;stroke-width:1.0;"/><path d="M816.2656,18.875 Q816.4219,18.6563 816.6094,18.5469 Q816.7969,18.4375 817.0156,18.4375 Q817.3906,18.4375 817.625,18.7031 Q817.8594,18.9531 817.8594,19.5625 L817.8594,21.0156 Q817.8594,21.625 817.625,21.8906 Q817.3906,22.1563 817.0156,22.1563 Q816.6719,22.1563 816.4688,21.9531 Q816.2656,21.7656 816.1563,21.25 Q816.1094,20.8906 815.9219,20.7031 Q815.5938,20.3281 814.9844,20.1094 Q814.375,19.8906 813.75,19.8906 Q812.9844,19.8906 812.3438,20.2188 Q811.7188,20.5469 811.2188,21.2969 Q810.7344,22.0469 810.7344,23.0781 L810.7344,24.1719 Q810.7344,25.4063 811.625,26.2344 Q812.5156,27.0469 814.1094,27.0469 Q815.0469,27.0469 815.7031,26.7969 Q816.0938,26.6406 816.5156,26.2031 Q816.7813,25.9375 816.9219,25.8594 Q817.0781,25.7813 817.2813,25.7813 Q817.6094,25.7813 817.8594,26.0469 Q818.125,26.2969 818.125,26.6406 Q818.125,26.9844 817.7813,27.3906 Q817.2813,27.9688 816.4844,28.2969 Q815.4063,28.75 814.1094,28.75 Q812.5938,28.75 811.3906,28.125 Q810.4063,27.625 809.7188,26.5625 Q809.0313,25.4844 809.0313,24.2031 L809.0313,23.0469 Q809.0313,21.7188 809.6406,20.5781 Q810.2656,19.4219 811.3594,18.8125 Q812.4531,18.1875 813.6875,18.1875 Q814.4219,18.1875 815.0625,18.3594 Q815.7188,18.5156 816.2656,18.875 Z " fill="#000000"/><text fill="#000000" font-family="sans-serif" font-size="14" lengthAdjust="spacing" textLength="145.5029" x="827.5" y="28.7969">WinStreakAchievement</text><line style="stroke:#181818;stroke-width:0.5;" x1="799.5" x2="975.0029" y1="39" y2="39"/><line style="stroke:#181818;stroke-width:0.5;" x1="799.5" x2="975.0029" y1="47" y2="47"/></g><!--link GamesAchievement to Achievement--><g id="link_GamesAchievement_Achievement"><path codeLine="16" d="M278.85,55 C296.01,72.66 307.0553,84.0315 324.2953,101.7715 " fill="none" id="GamesAchievement-to-Achievement" style="stroke:#181818;stroke-width:1.0;"/><polygon fill="none" points="336.84,114.68,328.5981,97.5899,319.9924,105.953,336.84,114.68" style="stroke:#181818;stroke-width:1.0;"/></g><!--link LoseStreakAchievement to Achievement--><g id="link_LoseStreakAchievement_Achievement"><path codeLine="17" d="M440.15,55 C422.99,72.66 411.9447,84.0315 394.7047,101.7715 " fill="none" id="LoseStreakAchievement-to-Achievement" style="stroke:#181818;stroke-width:1.0;"/><polygon fill="none" points="382.16,114.68,399.0076,105.953,390.4019,97.5899,382.16,114.68" style="stroke:#181818;stroke-width:1.0;"/></g><!--link WinCountAchievement to Achievement--><g id="link_WinCountAchievement_Achievement"><path codeLine="18" d="M607.72,55 C550.45,74.15 486.9506,95.3807 433.3106,113.3207 " fill="none" id="WinCountAchievement-to-Achievement" style="stroke:#181818;stroke-width:1.0;"/><polygon fill="none" points="416.24,119.03,435.2137,119.0109,431.4075,107.6305,416.24,119.03" style="stroke:#181818;stroke-width:1.0;"/></g><!--link WinStreakAchievement to Achievement--><g id="link_WinStreakAchievement_Achievement"><path codeLine="19" d="M798.46,51.45 C792.72,52.66 787.03,53.86 781.5,55 C650.98,81.99 514.9895,108.3185 433.8995,123.8285 " fill="none" id="WinStreakAchievement-to-Achievement" style="stroke:#181818;stroke-width:1.0;"/><polygon fill="none" points="416.22,127.21,435.0267,129.7216,432.7723,117.9353,416.22,127.21" style="stroke:#181818;stroke-width:1.0;"/></g><!--link AchievementList to Achievement--><g id="link_AchievementList_Achievement"><path codeLine="22" d="M136.34,55 C185.78,73.39 248.9167,96.8676 296.9967,114.7576 " fill="none" id="AchievementList-to-Achievement" style="stroke:#181818;stroke-width:1.0;"/><polygon fill="#181818" points="302.62,116.85,295.5799,109.9625,297.9339,115.1064,292.7901,117.4603,302.62,116.85" style="stroke:#181818;stroke-width:1.0;"/></g><!--link AchievementList to UserData--><g id="link_AchievementList_UserData"><path codeLine="23" d="M95.63,55.31 C132.95,96.47 206.0699,177.135 243.3699,218.275 " fill="none" id="AchievementList-to-UserData" style="stroke:#181818;stroke-width:1.0;stroke-dasharray:7.0,7.0;"/><polygon fill="#181818" points="247.4,222.72,244.3182,213.3657,244.0416,219.0158,238.3915,218.7392,247.4,222.72" style="stroke:#181818;stroke-width:1.0;"/></g><!--link Achievement to UserData--><g id="link_Achievement_UserData"><path codeLine="24" d="M339.75,163 C324.6,180.66 307.6583,200.3875 292.4283,218.1275 " fill="none" id="Achievement-to-UserData" style="stroke:#181818;stroke-width:1.0;stroke-dasharray:7.0,7.0;"/><polygon fill="#181818" points="288.52,222.68,297.4175,218.4569,291.7769,218.8863,291.3475,213.2458,288.52,222.68" style="stroke:#181818;stroke-width:1.0;"/></g><!--SRC=[ZL6z3e8m4Dxx5BSnmIEO44YC2HinpaSvGwCKqpkSV7YhOBIqWzEbtyzzNtePL9CZw54Gz1MPYTLxmf79rHvUdwKU3Drf92kDOL4gWx9ZSQW5EcHQt0e_MEHwETgvMqDWEWVa8j_ZI1p3pSJKYYEynDp9s6gQhIIPsEHB7En0pWXQJMeR27d-s0N5ajcnB54ZAVfZbQzOquriJrORVuxDptj3gD_oHR7x7kytAI2U]--></g></svg>