<svg xmlns="http://www.w3.org/2000/svg" xmlns:xlink="http://www.w3.org/1999/xlink" contentStyleType="text/css" height="452px" preserveAspectRatio="none" style="width:668px;height:452px;background:#FFFFFF;" version="1.1" viewBox="0 0 668 452" width="668px" zoomAndPan="magnify"><defs/><g><rect fill="#FFFFFF" height="311.0762" style="stroke:#181818;stroke-width:1.0;" width="10" x="120.0791" y="116.9121"/><rect fill="#FFFFFF" height="103.9121" style="stroke:#181818;stroke-width:1.0;" width="10" x="125.0791" y="156.2031"/><rect fill="#FFFFFF" height="25" style="stroke:#181818;stroke-width:1.0;" width="10" x="125.0791" y="291.4063"/><rect fill="#FFFFFF" height="14" style="stroke:#181818;stroke-width:1.0;" width="10" x="328.8936" y="354.6973"/><rect fill="#FFFFFF" height="14" style="stroke:#181818;stroke-width:1.0;" width="10" x="401.9175" y="399.9883"/><rect fill="#FFFFFF" height="16.3301" style="stroke:#181818;stroke-width:1.0;" width="10" x="584.144" y="228.7852"/><rect fill="none" height="76.9121" style="stroke:#000000;stroke-width:1.5;" width="652.1748" x="10" y="176.2031"/><line style="stroke:#181818;stroke-width:0.5;stroke-dasharray:5.0,5.0;" x1="37" x2="37" y1="83.6211" y2="445.9883"/><line style="stroke:#181818;stroke-width:0.5;stroke-dasharray:5.0,5.0;" x1="124.5586" x2="124.5586" y1="83.6211" y2="445.9883"/><line style="stroke:#181818;stroke-width:0.5;stroke-dasharray:5.0,5.0;" x1="333.3315" x2="333.3315" y1="83.6211" y2="445.9883"/><line style="stroke:#181818;stroke-width:0.5;stroke-dasharray:5.0,5.0;" x1="406.4556" x2="406.4556" y1="83.6211" y2="445.9883"/><line style="stroke:#181818;stroke-width:0.5;stroke-dasharray:5.0,5.0;" x1="589.1133" x2="589.1133" y1="227.3047" y2="445.9883"/><text fill="#000000" font-family="sans-serif" font-size="14" lengthAdjust="spacing" textLength="29.5586" x="20" y="80.1074">User</text><ellipse cx="37.7793" cy="13.5" fill="#E2E2F0" rx="8" ry="8" style="stroke:#181818;stroke-width:0.5;"/><path d="M37.7793,21.5 L37.7793,48.5 M24.7793,29.5 L50.7793,29.5 M37.7793,48.5 L24.7793,63.5 M37.7793,48.5 L50.7793,63.5 " fill="none" style="stroke:#181818;stroke-width:0.5;"/><rect fill="#E2E2F0" height="32.6211" rx="2.5" ry="2.5" style="stroke:#181818;stroke-width:0.5;" width="119.041" x="65.5586" y="50"/><text fill="#000000" font-family="sans-serif" font-size="14" lengthAdjust="spacing" textLength="105.041" x="72.5586" y="72.1074">:ResetCommand</text><rect fill="#E2E2F0" height="32.6211" rx="2.5" ry="2.5" style="stroke:#181818;stroke-width:0.5;" width="59.124" x="304.3315" y="50"/><text fill="#000000" font-family="sans-serif" font-size="14" lengthAdjust="spacing" textLength="45.124" x="311.3315" y="72.1074">:Printer</text><rect fill="#E2E2F0" height="32.6211" rx="2.5" ry="2.5" style="stroke:#181818;stroke-width:0.5;" width="66.9238" x="373.4556" y="50"/><text fill="#000000" font-family="sans-serif" font-size="14" lengthAdjust="spacing" textLength="52.9238" x="380.4556" y="72.1074">:Storage</text><rect fill="#FFFFFF" height="311.0762" style="stroke:#181818;stroke-width:1.0;" width="10" x="120.0791" y="116.9121"/><rect fill="#FFFFFF" height="103.9121" style="stroke:#181818;stroke-width:1.0;" width="10" x="125.0791" y="156.2031"/><rect fill="#FFFFFF" height="25" style="stroke:#181818;stroke-width:1.0;" width="10" x="125.0791" y="291.4063"/><rect fill="#FFFFFF" height="14" style="stroke:#181818;stroke-width:1.0;" width="10" x="328.8936" y="354.6973"/><rect fill="#FFFFFF" height="14" style="stroke:#181818;stroke-width:1.0;" width="10" x="401.9175" y="399.9883"/><rect fill="#FFFFFF" height="16.3301" style="stroke:#181818;stroke-width:1.0;" width="10" x="584.144" y="228.7852"/><polygon fill="#181818" points="108.0791,112.9121,118.0791,116.9121,108.0791,120.9121,112.0791,116.9121" style="stroke:#181818;stroke-width:1.0;"/><line style="stroke:#181818;stroke-width:1.0;" x1="37.7793" x2="114.0791" y1="116.9121" y2="116.9121"/><text fill="#000000" font-family="sans-serif" font-size="13" lengthAdjust="spacing" textLength="54.1899" x="44.7793" y="111.6494">execute()</text><line style="stroke:#181818;stroke-width:1.0;" x1="130.0791" x2="177.0791" y1="143.2031" y2="143.2031"/><line style="stroke:#181818;stroke-width:1.0;" x1="177.0791" x2="177.0791" y1="143.2031" y2="156.2031"/><line style="stroke:#181818;stroke-width:1.0;" x1="136.0791" x2="177.0791" y1="156.2031" y2="156.2031"/><polygon fill="#181818" points="146.0791,152.2031,136.0791,156.2031,146.0791,160.2031,142.0791,156.2031" style="stroke:#181818;stroke-width:1.0;"/><text fill="#000000" font-family="sans-serif" font-size="13" lengthAdjust="spacing" textLength="174.8145" x="142.0791" y="137.9404">checkNumberOfWords(words)</text><path d="M10,176.2031 L75.2109,176.2031 L75.2109,185.4941 L65.2109,195.4941 L10,195.4941 L10,176.2031 " fill="#EEEEEE" style="stroke:#000000;stroke-width:1.5;"/><rect fill="none" height="76.9121" style="stroke:#000000;stroke-width:1.5;" width="652.1748" x="10" y="176.2031"/><text fill="#000000" font-family="sans-serif" font-size="13" font-weight="bold" lengthAdjust="spacing" textLength="20.2109" x="25" y="191.2314">opt</text><text fill="#000000" font-family="sans-serif" font-size="11" font-weight="bold" lengthAdjust="spacing" textLength="98.0869" x="90.2109" y="190.0732">[words.length != 1]</text><polygon fill="#181818" points="514.1133,214.7852,524.1133,218.7852,514.1133,222.7852,518.1133,218.7852" style="stroke:#181818;stroke-width:1.0;"/><line style="stroke:#181818;stroke-width:1.0;" x1="135.0791" x2="520.1133" y1="218.7852" y2="218.7852"/><text fill="#000000" font-family="sans-serif" font-size="13" lengthAdjust="spacing" textLength="367.0342" x="142.0791" y="213.5225">CoinflipException(CoinflipException.Reset_INVALID_FORMAT)</text><rect fill="#E2E2F0" height="32.6211" rx="2.5" ry="2.5" style="stroke:#181818;stroke-width:0.5;" width="126.0615" x="526.1133" y="195.4941"/><text fill="#000000" font-family="sans-serif" font-size="14" lengthAdjust="spacing" textLength="112.0615" x="533.1133" y="217.6016">:CoinflipException</text><polygon fill="#181818" points="48.7793,241.1152,38.7793,245.1152,48.7793,249.1152,44.7793,245.1152" style="stroke:#181818;stroke-width:1.0;"/><line style="stroke:#181818;stroke-width:1.0;stroke-dasharray:2.0,2.0;" x1="42.7793" x2="588.144" y1="245.1152" y2="245.1152"/><line style="stroke:#181818;stroke-width:1.0;" x1="130.0791" x2="177.0791" y1="278.4063" y2="278.4063"/><line style="stroke:#181818;stroke-width:1.0;" x1="177.0791" x2="177.0791" y1="278.4063" y2="291.4063"/><line style="stroke:#181818;stroke-width:1.0;" x1="136.0791" x2="177.0791" y1="291.4063" y2="291.4063"/><polygon fill="#181818" points="146.0791,287.4063,136.0791,291.4063,146.0791,295.4063,142.0791,291.4063" style="stroke:#181818;stroke-width:1.0;"/><text fill="#000000" font-family="sans-serif" font-size="13" lengthAdjust="spacing" textLength="145.2153" x="142.0791" y="273.1436">resetUserData(userData)</text><line style="stroke:#181818;stroke-width:1.0;stroke-dasharray:2.0,2.0;" x1="135.0791" x2="177.0791" y1="315.4063" y2="315.4063"/><line style="stroke:#181818;stroke-width:1.0;stroke-dasharray:2.0,2.0;" x1="177.0791" x2="177.0791" y1="315.4063" y2="328.4063"/><line style="stroke:#181818;stroke-width:1.0;stroke-dasharray:2.0,2.0;" x1="130.0791" x2="177.0791" y1="328.4063" y2="328.4063"/><polygon fill="#181818" points="140.0791,324.4063,130.0791,328.4063,140.0791,332.4063,136.0791,328.4063" style="stroke:#181818;stroke-width:1.0;"/><polygon fill="#181818" points="316.8936,350.6973,326.8936,354.6973,316.8936,358.6973,320.8936,354.6973" style="stroke:#181818;stroke-width:1.0;"/><line style="stroke:#181818;stroke-width:1.0;" x1="130.0791" x2="322.8936" y1="354.6973" y2="354.6973"/><text fill="#000000" font-family="sans-serif" font-size="13" lengthAdjust="spacing" textLength="130.7681" x="137.0791" y="349.4346">printResetSuccessful()</text><polygon fill="#181818" points="141.0791,364.6973,131.0791,368.6973,141.0791,372.6973,137.0791,368.6973" style="stroke:#181818;stroke-width:1.0;"/><line style="stroke:#181818;stroke-width:1.0;stroke-dasharray:2.0,2.0;" x1="135.0791" x2="332.8936" y1="368.6973" y2="368.6973"/><polygon fill="#181818" points="389.9175,395.9883,399.9175,399.9883,389.9175,403.9883,393.9175,399.9883" style="stroke:#181818;stroke-width:1.0;"/><line style="stroke:#181818;stroke-width:1.0;" x1="130.0791" x2="395.9175" y1="399.9883" y2="399.9883"/><text fill="#000000" font-family="sans-serif" font-size="13" lengthAdjust="spacing" textLength="116.3271" x="137.0791" y="394.7256">saveData(userData)</text><polygon fill="#181818" points="141.0791,409.9883,131.0791,413.9883,141.0791,417.9883,137.0791,413.9883" style="stroke:#181818;stroke-width:1.0;"/><line style="stroke:#181818;stroke-width:1.0;stroke-dasharray:2.0,2.0;" x1="135.0791" x2="405.9175" y1="413.9883" y2="413.9883"/><polygon fill="#181818" points="48.7793,423.9883,38.7793,427.9883,48.7793,431.9883,44.7793,427.9883" style="stroke:#181818;stroke-width:1.0;"/><line style="stroke:#181818;stroke-width:1.0;stroke-dasharray:2.0,2.0;" x1="42.7793" x2="124.0791" y1="427.9883" y2="427.9883"/><!--SRC=[VP9DRuCm38Rl-HKP9tPefLsHDgbgEwdIraxjFevL6ao91YHAJCVF7u4WaKPm8R5vujTlOiPHQlfbG5DckfNa8WMQIOaNsH35D0ek5AkG7i40hcLPiYgrT9ICCv77VcXHOLyqIbpW4wTMc5sX9rpW4sifggmGQjjmK2XarRD1EYAaCx1uyLfCA3J0QuJuaJ2EuiOGF80GubaAplCS-E- -BY-W3zcFrAc9_-ntgfvKI3jWMK1rnPm-FDCdmZLOCcWx40_z9c4k3ZBBhivvj_zUlUqsvzV3yNtrEMen50w55gryz_Wfp9o3rkC8yBpFtwIsaHNOC6HnxJPJz-ZNkYissK7GWXkxX2gxwVwUQix1cAmknaFXG38CxPpam0PgReGJQjWDfcmwY0p3FwSqiE5rtB_K6FW7]--></g></svg>